/* XPM */
static char *result[] = {
/* columns rows colors chars-per-pixel */
"64 61 101 2 ",
"   c #3C2655",
".  c #3E2855",
"X  c #402755",
"o  c #442A55",
"O  c #482B56",
"+  c #442C5C",
"@  c #492E5C",
"#  c #522E56",
"$  c #4E315B",
"%  c #52325C",
"&  c #5E355B",
"*  c #673E4B",
"=  c #643658",
"-  c #6C3B5A",
";  c #713C59",
":  c #783F5A",
">  c #66444B",
",  c #7A4846",
"<  c #77484F",
"1  c #7C5446",
"2  c #724D51",
"3  c #76415F",
"4  c #7C435F",
"5  c #9A5A3E",
"6  c #96673F",
"7  c #AA6239",
"8  c #B76935",
"9  c #B86A35",
"0  c #BB663A",
"q  c #BC7535",
"w  c #C2713C",
"e  c #CD7739",
"r  c #CF7839",
"t  c #D47F37",
"y  c #D1763C",
"u  c #D17A39",
"i  c #9B3E4C",
"p  c #8D5341",
"a  c #88524B",
"s  c #8C5F4B",
"d  c #9D5D46",
"f  c #84455C",
"g  c #944354",
"h  c #934A5C",
"j  c #A94855",
"k  c #A24C5A",
"l  c #B04751",
"z  c #A1505D",
"x  c #AB535D",
"c  c #B4565D",
"v  c #BF5C5F",
"b  c #A36144",
"n  c #AE6641",
"m  c #A77444",
"M  c #964D61",
"N  c #984E61",
"B  c #A65562",
"V  c #B65B63",
"C  c #BA5D63",
"Z  c #CC4946",
"A  c #D44B45",
"S  c #C75E49",
"D  c #C65851",
"F  c #CD5954",
"G  c #C45E5F",
"H  c #D05955",
"J  c #D15D59",
"K  c #E7544B",
"L  c #F0564A",
"P  c #C36145",
"I  c #DC6F49",
"U  c #D67342",
"Y  c #CA605F",
"T  c #D3625E",
"R  c #E16C4F",
"E  c #E76856",
"W  c #E5655B",
"Q  c #EB665B",
"!  c #EC695E",
"~  c #C46164",
"^  c #CB6262",
"/  c #D36460",
"(  c #D76965",
")  c #DC6B66",
"_  c #E36E66",
"`  c #ED6D62",
"'  c #E77066",
"]  c #EF7367",
"[  c #EF7368",
"{  c #F07367",
"}  c #F07368",
"|  c #D28B2F",
" . c #D8972D",
".. c #DE9B2B",
"X. c #C18633",
"o. c #D89437",
"O. c #D99837",
"+. c #E39334",
"@. c #FBB12F",
"#. c #F6AD30",
"$. c None",
/* pixels */
"$.$.$.$.$.$.$.$.$.$.$.$.$.$.$.$.$.$.$.$.$.$.$.$.$.$.Q Q ! Q $.$.$.$.H H H H $.$.$.$.$.$.$.$.$.$.$.$.$.$.$.$.$.$.$.$.$.$.$.$.$.$.",
"$.$.$.$.$.$.$.$.$.$.$.$.$.$.$.$.$.$.$.$.$.$.$.$.Q Q ` { { ! Q $.$.H T T T J H H $.$.$.$.$.$.$.$.$.$.$.$.$.$.$.$.$.$.$.$.$.$.$.$.",
"$.$.$.$.$.$.$.$.$.$.$.$.$.$.$.$.$.$.$.$.$.$.$.Q ! ] ] ] [ [ ! ! H J / / / / / H H $.$.$.$.$.$.$.$.$.$.$.$.$.$.$.$.$.$.$.$.$.$.$.",
"$.$.$.$.$.$.$.$.$.$.$.$.$.$.$.$.$.$.$.Q Q Q Q ! ] ] ] ] [ [ { Q H / / / / / / / J H H H H $.$.$.$.$.$.$.$.$.$.$.$.$.$.$.$.$.$.$.",
"$.$.$.$.$.$.$.$.$.$.$.$.$.$.$.$.$.Q Q ! ] ] ] ] ] ] ` ] [ [ { ! H / / / T J / / / T T T J H H $.$.$.$.$.$.$.$.$.$.$.$.$.$.$.$.$.",
"$.$.$.$.$.$.$.$.$.$.$.$.$.$.$.Q Q ] ] ] ] ] ] { ] ] ! ` [ ] { ! J / / / T J / / / / / / / / T F H $.$.$.$.$.$.$.$.$.$.$.$.$.$.$.",
"$.$.$.$.$.$.$.$.$.$.$.$.$.$.$.Q ] ] ] ] ] ] ] ] ] [ ! ` ] ] ] ! J / / / T H / / / / / / / / / / H $.$.$.$.$.$.$.$.$.$.$.$.$.$.$.",
"$.$.$.$.$.$.$.$.$.$.$.$.$.$.Q ] ] ] ] ] ] ] ] ] ] ] Q ] ] [ [ Q H / / / T H / / / / / / / / / / T H $.$.$.$.$.$.$.$.$.$.$.$.$.$.",
"$.$.$.$.$.$.$.$.$.$.$.$.$.$.Q [ [ ] ] ] ] ] ] ] { Q Q ! ] ] ] Q H / / / H H H T T / / / / / / / / H $.$.$.$.$.$.$.$.$.$.$.$.$.$.",
"$.$.$.$.$.$.$.$.$.$.$.$.Q Q Q ] ] ] ] ] [ ] [ ! Q ! { ! Q ! Q Q H H J H J T J H J T / / / / / / / H H H $.$.$.$.$.$.$.$.$.$.$.$.",
"$.$.$.$.$.$.$.$.$.$.$.Q ! ] Q ` [ ] ] [ ] ] ] ` ] ] ) B Y ! Q Q H H J c h G / T T / / / / / T T T H / H H $.$.$.$.$.$.$.$.$.$.$.",
"$.$.$.$.$.$.$.$.$.$.$.Q ] { ] Q Q ] ] ] ] ] ] ] ( % + & V ] Q Q H H T k @   O v T / / / / T T J H T / / H $.$.$.$.$.$.$.$.$.$.$.",
"$.$.$.$.$.$.$.$.$.$.Q ` ] ] ] ] ! ` [ ] ] ] [ ~ + h [ [ ] ] Q Q H H / / / / f   x / / / / / T J T / / / J H $.$.$.$.$.$.$.$.$.$.",
"$.$.$.$.$.$.$.$.$.$.Q ] ] ] ] ] ] ] [ [ [ [ ' @ C { [ [ ] ] ! Q H J / / / / / x . ^ / / / / / / / / / / T H $.$.$.$.$.$.$.$.$.$.",
"$.$.$.$.$.$.$.$.$.$.Q ] ] { ] ] ] ] ] [ ] ] - 3 [ ] [ ] ] ] ] Q H T T / / / / / - = T / / / / / / / / / / H $.$.$.$.$.$.$.$.$.$.",
"$.$.$.$.$.$.$.$.$.$.Q ] ] ] ] ] ] Q ] ] ] [ + _ ] ] [ ] ] ] ] Q H T / / / / / / Y   T / / / F T / / / / / H $.$.$.$.$.$.$.$.$.$.",
"$.$.$.$.$.$.$.$.$.$.Q ` } [ [ ] ] Q ! { { [ ( [ ] ] [ [ ] ] ] Q H / / / / / / / / G / / / J H / / / / / T H $.$.$.$.$.$.$.$.$.$.",
"$.$.$.$.$.$.$.$.$.Q Q Q [ [ ] ] ] ] Q Q Q ! Q Q [ ] ] ] ] ] ] Q H / / / / / / / F H H H H H T / / / / / H H H $.$.$.$.$.$.$.$.$.",
"$.$.$.$.$.$.$.$.$.Q { Q ! { [ [ ] ] ] [ ] ! ] Q [ ] ] ] ] { ] Q H / / / / / / / H T T T / / / / / / T H H T H $.$.$.$.$.$.$.$.$.",
"$.$.$.$.$.$.$.$.$.Q ] ] ! ! [ ] ] ] ] ] [ ] ] Q ] ] { [ ] ] [ Q H / / / / / / / H T / / / / / / / / J J / T H $.$.$.$.$.$.$.$.$.",
"$.$.$.$.$.$.$.$.$.Q ] ] ] ] ] ] ] ] ] ] ] [ ] Q [ [ [ ] ] ] ] Q F T / / / / / / H / / / / / / / / / / / / / H $.$.$.$.$.$.$.$.$.",
"$.$.$.$.$.$.$.$.$.Q ] ] [ [ ] { ] ] ] ] ] ] ] ! ` ] [ ] ] ] Q Q H H / / / / / J H T / / / / / / / / / / / / H $.$.$.$.$.$.$.$.$.",
"$.$.$.$.$.$.$.$.$.Q ! { ] ] ] ` ! { ] ] ] ] ] ] Q ` [ } ] ! Q Q H H H / / / T H T / / / / / / J T T T / / H J $.$.$.$.$.$.$.$.$.",
"$.$.$.$.$.$.$.$.$.Q Q Q Q ! Q Q ] ] { ] ] ] ] ] ] Q Q Q Q Q ] Q H / H H H H H J / / / / / / / T H H H H H H H $.$.$.$.$.$.$.$.$.",
"$.$.$.$.$.$.$.$.$.Q ] ] Q ` { ] ] { ] ] ] ] ] ] ] ] ] ] ] ] { Q H / T / J / / / / / / / / / / / / T J H T / H $.$.$.$.$.$.$.$.$.",
"$.$.$.$.$.$.$.$.$.Q ] ] ` ! ] ] ] ] ] ] ] B ] ] [ ] ] ] B { ! Q H J / h / / / / / / h / / / / / / / J J / / H $.$.$.$.$.$.$.$.$.",
"$.$.$.$.$.$.$.$.$.Q ] ] { Q ] ] ] ] ] ] ] $ ] ] ] ] ] ] @ { Q Q H H T O / / / / / / X / / / / / / / H / / / H $.$.$.$.$.$.$.$.$.",
"$.$.$.$.$.$.$.$.$.Q ` ] { Q ! ] ] ] ] ] [ f 3 ] ] ] ] 3 4 ] ` Q H J / : = / / / / - - / / / / / / J H / T T H $.$.$.$.$.$.$.$.$.",
"$.$.$.$.$.$.$.$.$.$.Q ] ] [ Q ` [ ] ] ] ] ] O $ M M $ @ ] [ ] Q F / / / X O f f O   / / / / / / T H T / / H $.$.$.$.$.$.$.$.$.$.",
"$.$.$.$.$.$.$.$.$.$.Q Q ] ] ] Q ! ] { ] ] ] ] 4 @ @ 4 ] ] ] [ Q H / / / / - X X - / / / / / / J H T / T H H $.$.$.$.$.$.$.$.$.$.",
"$.$.$.$.$.$.$.$.$.$.$.$.Q ] ] ] ! Q ! ] ] ] ] ] ] ` ! M ~ ] ] Q H T T x f J J T T T / T T H H H / / / H $.$.$.$.$.$.$.$.$.$.$.$.",
"] ] ] { $.$.$.$.$.$.$.$.Q ] ] ] { ] ! ! Q Q Q Q Q ! ! + + + @ & # X       J H H H H H H J J / / / / T H $.$.$.$.$.$.$.$./ / / / ",
"] ] ] $.[ $.[ ] $.$.$.$.Q ` ] ] ] ] ] ] ] [ ] ] ] ] ] % + + + l i X     O / / / / / / / / / / / / / J H $.$.$.$./ / $./ $./ / / ",
"] $.] } ] [ { ] $.$.$.$.$.Q { ] ] ] ] ] ] ] ] ] ] ] ` W % + K L A Z   O F J / / / / / / / / / / / / H $.$.$.$.$./ / / T ( T $./ ",
"] ] ] ] ] $.$.[ $.$.$.$.$.Q ` ] [ ] ] [ ] ] ] ] ] ] Q ` { ^ k j i g V T T H / / / / / / / / / / / J H $.$.$.$.$./ $.$.( / / / / ",
"[ ] ] ] $.$.$.] $.$.$.$.$.$.Q ! ] ] { ] ] ] [ } { Q W Q ` } ] ] / / ^ J H D F / / / / / / / / / J H $.$.$.$.$.$./ $.$.$./ / / / ",
"$.] ] [ ] [ ] $.$.$.$.$.$.$.$.Q Q ! ` { ] ] ] Q Q x d y E Q Q Q H H H F 0 p g F J T T T T T J H H $.$.$.$.$.$.$.$./ / / / / / $.",
"$.$.$.] ] [ $.$.$.$.$.$.$.$.$.$.$.$.Q Q Q Q E R y @ o.u r y U I P 0 8 8 8 q   0 S F F H H H $.$.$.$.$.$.$.$.$.$.$.$./ / / $.$.$.",
"$.$.$.$.] ] $.$.$.$.$.$.$.$.$.$.$.$.$.$.+ @ r r w + #.@.#.+.t u 9 9 q | ....  7 8 8 O   $.$.$.$.$.$.$.$.$.$.$.$.$.$./ / $.$.$.$.",
"$.$.$.$.] [ { $.$.$.$.$.$.$.$.$.$.$.$.+ + a r u b + @.@.@.@.@.@.............  p 8 8 ,     $.$.$.$.$.$.$.$.$.$.$.$./ / ( $.$.$.$.",
"$.$.$.$.$.[ ] $.$.$.$.$.$.$.$.$.$.$.$.$.$.@ + n 2 $ @.@.@.@.@.@.............o > 5 X   $.$.$.$.$.$.$.$.$.$.$.$.$.$./ / $.$.$.$.$.",
"$.$.$.$.$.] ] $.$.$.$.$.$.$.$.$.$.$.$.$.$.] 4 + + 2 @.@.@.@.@.@.............> .   * / $.$.$.$.$.$.$.$.$.$.$.$.$.$./ / $.$.$.$.$.",
"$.$.$.$.$.$.{ ] $.$.$.$.$.$.$.$.$.$.$.$.] ] $.$.+ m @.@.@.@.@.@.............6   $.$./ / $.$.$.$.$.$.$.$.$.$.$.$./ / $.$.$.$.$.$.",
"$.$.$.$.$.$.[ ] ] $.$.$.$.$.$.$.$.$.$.] ] ] $.$.+ O.@.@.@.@.@.@.............X.  $.$./ / / $.$.$.$.$.$.$.$.$.$./ / / $.$.$.$.$.$.",
"$.$.$.$.$.$.$.] [ ] $.$.$.$.$.$.$.] ] ] ] $.$.$.+ #.@.@.@.@.@.@............. .  $.$.$./ / / / $.$.$.$.$.$.$./ / / $.$.$.$.$.$.$.",
"$.$.$.$.$.$.$.$.] ] ] [ [ ] ] [ ] ] ] $.$.$.$.$.+ @.@.@.@.@.@.@...............  $.$.$.$.$./ / / / / / / / / / / $.$.$.$.$.$.$.$.",
"$.$.$.$.$.$.$.$.$.$.] ] ] { ] ] [ $.$.$.$.$.$.$.$ @.@.@.@.@.@.@...............o $.$.$.$.$.$.$.T / / / / / T $.$.$.$.$.$.$.$.$.$.",
"$.$.$.$.$.$.$.$.$.$.$.$.$.$.$.$.$.$.$.$.$.$.$.+ $ s s s s s s s a 1 1 1 1 1 1 o   $.$.$.$.$.$.$.$.$.$.$.$.$.$.$.$.$.$.$.$.$.$.$.",
"$.$.$.$.$.$.$.$.$.$.$.$.$.$.$.$.$.$.$.$.$.$.$.+ + + + + + + + +                   $.$.$.$.$.$.$.$.$.$.$.$.$.$.$.$.$.$.$.$.$.$.$.",
"$.$.$.$.$.$.$.$.$.$.$.$.$.$.$.$.$.$.$.$.+ @ + + + + + + + + + +                   . .   $.$.$.$.$.$.$.$.$.$.$.$.$.$.$.$.$.$.$.$.",
"$.$.$.$.$.$.$.$.$.$.$.$.$.$.$.$.$.$.+ @ + + + + + + + + + + + @                         .   $.$.$.$.$.$.$.$.$.$.$.$.$.$.$.$.$.$.",
"$.$.$.$.$.$.$.$.$.$.$.$.$.$.$.$.$.$.$.$.+ + + + + + + + + + + $.$.                    . $.$.$.$.$.$.$.$.$.$.$.$.$.$.$.$.$.$.$.$.",
"$.$.$.$.$.$.$.$.$.$.$.$.$.$.$.$.$.$.$.$.$.$.$.$.$.$.$.@ + + + $.$.        $.$.$.$.$.$.$.$.$.$.$.$.$.$.$.$.$.$.$.$.$.$.$.$.$.$.$.",
"$.$.$.$.$.$.$.$.$.$.$.$.$.$.$.$.$.$.$.$.$.$.$.$.$.$.$.$.$.$.+ +     $.$.$.$.$.$.$.$.$.$.$.$.$.$.$.$.$.$.$.$.$.$.$.$.$.$.$.$.$.$.",
"$.$.$.$.$.$.$.$.$.$.$.$.$.$.$.$.$.$.$.$.$.$.$.$.$.$.$.$.$.$.$.+   $.$.$.$.$.$.$.$.$.$.$.$.$.$.$.$.$.$.$.$.$.$.$.$.$.$.$.$.$.$.$.",
"$.$.$.$.$.$.$.$.$.$.$.$.$.$.$.$.$.$.$.$.$.$.$.$.$.$.$.$.$.$.$.$.$.$.$.$.$.$.$.$.$.$.$.$.$.$.$.$.$.$.$.$.$.$.$.$.$.$.$.$.$.$.$.$.",
"$.$.$.$.$.$.$.$.$.$.$.$.$.$.$.$.$.$.$.$.$.$.$.$.$.$.$.$.$.$.$.$.$.$.$.$.$.$.$.$.$.$.$.$.$.$.$.$.$.$.$.$.$.$.$.$.$.$.$.$.$.$.$.$.",
"$.$.$.$.$.$.$.$.$.$.$.$.$.$.$.$.$.$.$.$.$.$.$.$.$.$.$.$.$.$.$.$.$.$.$.$.$.$.$.$.$.$.$.$.$.$.$.$.$.$.$.$.$.$.$.$.$.$.$.$.$.$.$.$.",
"$.$.$.$.$.$.$.$.$.$.$.$.$.$.$.$.$.$.$.$.$.$.$.$.$.$.$.$.$.$.$.$.$.$.$.$.$.$.$.$.$.$.$.$.$.$.$.$.$.$.$.$.$.$.$.$.$.$.$.$.$.$.$.$.",
"$.$.$.$.$.$.$.$.$.$.$.$.$.$.$.$.$.$.$.$.$.$.$.$.$.$.$.$.$.$.$.$.$.$.$.$.$.$.$.$.$.$.$.$.$.$.$.$.$.$.$.$.$.$.$.$.$.$.$.$.$.$.$.$.",
"$.$.$.$.$.$.$.$.$.$.$.$.$.$.$.$.$.$.$.$.$.$.$.$.$.$.$.$.$.$.$.$.$.$.$.$.$.$.$.$.$.$.$.$.$.$.$.$.$.$.$.$.$.$.$.$.$.$.$.$.$.$.$.$."
};
