/* XPM */
static char *result[] = {
/* columns rows colors chars-per-pixel */
"64 55 201 2 ",
"   c #21100F",
".  c #231111",
"X  c #2B1817",
"o  c #301B1A",
"O  c #34201E",
"+  c #3B2624",
"@  c #3E2B28",
"#  c #282020",
"$  c #59050A",
"%  c #4A0F13",
"&  c #6B040C",
"*  c #67030A",
"=  c #73040F",
"-  c #670912",
";  c #740914",
":  c #770916",
">  c #76131E",
",  c #681221",
"<  c #7D1223",
"1  c #781727",
"2  c #432C2A",
"3  c #482C2A",
"4  c #4E3533",
"5  c #5A3D39",
"6  c #49322F",
"7  c #69252D",
"8  c #6A3335",
"9  c #664A3E",
"0  c #634440",
"q  c #6F5647",
"w  c #7A644C",
"e  c #7A6651",
"r  c #7A6652",
"t  c #6D6866",
"y  c #840C1A",
"u  c #8B0E1B",
"i  c #870614",
"p  c #930F1E",
"a  c #93101F",
"s  c #841225",
"d  c #8C1426",
"f  c #8E1328",
"g  c #8A182C",
"h  c #94142A",
"j  c #9C162D",
"k  c #9C182D",
"l  c #9A1425",
"z  c #9A1930",
"x  c #960F20",
"c  c #A2172F",
"v  c #A21A2F",
"b  c #A61528",
"n  c #A51730",
"m  c #A61931",
"M  c #AC1932",
"N  c #B31B35",
"B  c #B91C37",
"V  c #BD1C38",
"C  c #8E2E2D",
"Z  c #B82139",
"A  c #A03129",
"S  c #C31E3A",
"D  c #CA1F3C",
"F  c #CC203E",
"G  c #C5243C",
"H  c #8C5E22",
"J  c #BA543D",
"K  c #A96320",
"L  c #D3483F",
"P  c #BF3246",
"I  c #C42941",
"U  c #C03949",
"Y  c #834E46",
"T  c #B94E54",
"R  c #B75959",
"E  c #AB5A57",
"W  c #826B55",
"Q  c #8B735C",
"!  c #9B675B",
"~  c #8E7761",
"^  c #927B63",
"/  c #AD7667",
"(  c #C45057",
")  c #5BA65D",
"_  c #6DB55B",
"`  c #6DB55B",
"'  c #469D74",
"]  c #4F9C66",
"[  c #57A765",
"{  c #4CA271",
"}  c #BABF23",
"|  c #AC921D",
" . c #E0AE3D",
".. c #BCC119",
"X. c #CFD718",
"o. c #DCE91B",
"O. c #E4EB1C",
"+. c #E8F41B",
"@. c #F6FD1F",
"#. c #CED425",
"$. c #D1D72E",
"%. c #E2E528",
"&. c #FFFF23",
"*. c #FEFE2B",
"=. c #E9E838",
"-. c #ECF734",
";. c #FFFE32",
":. c #FEFF3B",
">. c #FAF636",
",. c #EFF027",
"<. c #9D836A",
"1. c #A0866E",
"2. c #A5866E",
"3. c #A48B72",
"4. c #AB8E74",
"5. c #AE9176",
"6. c #AB937C",
"7. c #B3967A",
"8. c #B6997D",
"9. c #B99B7E",
"0. c #B09277",
"q. c #C6AC76",
"w. c #CCB46B",
"e. c #87C559",
"r. c #99D55C",
"t. c #8FD05C",
"y. c #A5DE5F",
"u. c #B5E962",
"i. c #A8E260",
"p. c #B2DB76",
"a. c #D4D35B",
"s. c #E4D84D",
"d. c #F4E842",
"f. c #FEFF4C",
"g. c #FBFB43",
"h. c #F7FF56",
"j. c #F4EB54",
"k. c #DBCB60",
"l. c #E9D766",
"z. c #C7F365",
"x. c #D4F965",
"c. c #C1E26F",
"v. c #E7FE63",
"b. c #3B9A89",
"n. c #369B98",
"m. c #308598",
"M. c #2D97AC",
"N. c #329CA5",
"B. c #2A8FB1",
"V. c #2797BA",
"C. c #2996BA",
"Z. c #299ABD",
"A. c #2B9AB4",
"S. c #409F86",
"D. c #42A185",
"F. c #6DBC9D",
"G. c #299CC2",
"H. c #AA9887",
"J. c #B69B82",
"K. c #BC9E82",
"L. c #B09F8F",
"P. c #BFA184",
"I. c #BBA38B",
"U. c #BDA693",
"Y. c #B5A79A",
"T. c #BAADA3",
"R. c #BBB0A5",
"E. c #BCB3AA",
"W. c #BDBDBD",
"Q. c #BCB8B3",
"!. c #AAA9A9",
"~. c #C3A385",
"^. c #C5A689",
"/. c #CCAB8C",
"(. c #C8A788",
"). c #D0AF8F",
"_. c #D1B08F",
"`. c #D4B291",
"'. c #DAB795",
"]. c #DCB997",
"[. c #DEBB99",
"{. c #C0AE9D",
"}. c #E1BE9A",
"|. c #E0BE93",
" X c #C2B7AC",
".X c #C1BEBE",
"XX c #C3BBB3",
"oX c #85C690",
"OX c #BFC0BF",
"+X c #E4C886",
"@X c #E5C492",
"#X c #C2C1BF",
"$X c #C8C3BE",
"%X c #C1BFC0",
"&X c #BFC0C0",
"*X c #C4C4C4",
"=X c #C9C5C3",
"-X c #C9C8C6",
";X c #CAC9C9",
":X c #C7C7C8",
">X c None",
/* pixels */
">X>X>X>X>X>X>X>X>X>X>X>X>X>X>X>X>X>X>X>X>X>X>X>X>X>X>X>X>X>X>X>X>X>X>X>X>X>X>X>X>X>X>X>X>X>X>X>X>X>X>X>X>X>X>X>X>X>X>X>X>X>X>X>X",
">X>X>X>X>X>X>X>X>X>X>X>X>X>X>X>X>X>X>X>X>X>X>X>X>X>X>X>X>X>X>X>X>X>X>X>X>X>X>X>X>X>X>X>X>X>X>X>X>X>X>X>X>X>X>X>X>X>X>X>X>X>X>X>X",
">X>X>X>X>X>X>X>X>X>X>X>X>X>X>X>X>X>X>X>X>X>X>X>X>X>X>X>X>X>X>X>X>X>X>X>X>X>X>X>X>X>X>X>X>X>X>X>X>X>X>X>X>X>X>X>X>X>X>X>X>X>X>X>X",
">X>X>X>X>X>X>X>X>X>X>X>X>X>X>X>X>X>X>X>X>X>X>X>X>X>X>X>X>X>X>X>X>X>X>X>X>X>X>X>X>X>X>X>X>X>X>X>X>X>X>X>X>X>X>X>X>X>X>X>X>X>X>X>X",
">X>X>X>X>X>X>X>X>X>X>X>X>X>X>X>X>X>X>X>X>X>X>X>X>X>X>X>Xa.p.F.oXc.a.>X>X>X>X>X>X>X>X>X>X>X>X>X>X>X>X>X>X>X>X>X>X>X>X>X>X>X>X>X>X",
">X>X>X>X>X>X>X>X>X>X>X>X>X>X>X>X>X>X>X>X>X>X>X>X>XZ.G.G.G.G.G.G.G.G.G.G.C.>X>X>X>X>X>X>X>X>X>X>X>X>X>X>X>X>X>X>X>X>X>X>X>X>X>X>X",
">X>X>X>X>X>X>X>X>X>X>X>X>X>X>X>X>X>X>X>X>XC.G.G.G.G.G.G.G.Z.Z.G.G.G.G.G.G.G.Z.Z.B.>X>X>X>X>X>X>X>X>X>X>X>X>X>X>X>X>X>X>X>X>X>X>X",
">X>X>X>X>X>X>X>X>X>X>X>X>X>X>X>X>X>XG.G.G.G.G.G.G.G.Z.N.N.n.b.n.N.M.A.C.C.G.Z.Z.C.C.V.>X>X>X>X>X>X>X>X>X>X>X>X>X>X>X>X>X>X>X>X>X",
">X>X>X>X>X>X>X>X>X>X>X>X>X>X>X>X>Xm.G.G.G.G.A.N.n.S.' [ _ e.t.e._ [ ' D.b.n.M.M.V.V.V.V.>X>X>X>X>X>X>X>X>X>X>X>X>X>X>X>X>X>X>X>X",
">X>X>X>X>X>X>X>X>X>X>X>X>X>X>X>X>XZ.N.n.D.{ [ ` t.i.z.v.h.f.f.h.v.x.z.y.e._ ) ] ' b.b.M.B.>X>X>X>X>X>X>X>X>X>X>X>X>X>X>X>X>X>X>X",
">X>X>X>X>X>X>X>X>X>X>X>X>X>X>X>Xm.D.` t.u.x.v.h.h.:.*.&.*.&.@.@.&.*.;.:.f.h.v.x.u.r.e.] b.>X>X>X>X>X>X>X>X>X>X>X>X>X>X>X>X>X>X>X",
">X>X>X>X>X>X>X>X>X>X>X>X>X>X>X>X[ u.h.g.g.;.*.&.&.&.>.s.w.8.7.q.a.d.*.&.&.&.&.*.;.:.h.z.e.] >X>X>X>X>X>X>X>X>X>X>X>X>X>X>X>X>X>X",
">X>X>X>X>X>X>X>X>X>X>X>X>X>X>Xe.v.:.&.&.*.d.k.q.K.8.8.8.9.8.8.8.7.8.J.J.K.q.k.=.*.&.@.*.f.z.>X>X>X>X>X>X>X>X>X>X>X>X>X>X>X>X>X>X",
">X>X>X>X>X>X>X>X>X>X>X>X>X>X>Xg.&.>.@X~.~.~.P.4.L.R.E.Y.6.7.8.6.H.Y.Y.H.3.K.~.~.^.^.@X>.*.;.h.>X>X>X>X>X>X>X>X>X>X>X>X>X>X>X>X>X",
">X>X>X>X>X>X>X>X>X>X>X>X>X>X,.&.+X@X[.~.~.K.H..X*X*X&X*XQ.L.6.!.W.&X&X*X$XY.J.K.~.~.}.}.@Xg.*.>X>X>X>X>X>X>X>X>X>X>X>X>X>X>X>X>X",
">X>X>X>X>X>X>X>X>X>X>X>X>X>Xl.[.[.[.].~.K.Y.*X:X*X*X*X&X*XE.Y.W.W.W.%X*X*X=XT.H.~.^.}.}.}.[.}.j.>X>X>X>X>X>X>X>X>X>X>X>X>X>X>X>X",
">X>X>X>X>X>X>X>X>X>X>X>X>X7.`.`.'.].'.I.H.=X-X*X:X&X&X*X&XQ.R.W.W.*X%X*X*X=X:XXXK.~.|.].|.'.'.'.>X>X>X>X>X>X>X>X>X>X>X>X>X>X>X>X",
">X>X>X>X>X>X>X>X>X>X>X>X>X>X/.).`.`.'.K. X-X:X*X*X*X&X&X*XQ.R.W.W.W.%X*X:X:X;X;XL.~.'.'.'.'.'.`.>X>X>X>X>X>X>X>X>X>X>X>X>X>X>X>X",
">X>X>X>X>X>X>X>X>X>X>X>X>X>X(./.)._.`.I.=X:X-X*X*X!.# E.OXXXR.W.t t W.*X*X:X;X;XE.~.'.`.'.).`.).>X>X>X>X>X>X>X>X>X>X>X>X>X>X>X>X",
">X>X>X>X>X>X>X>X>X>X>X>X>X>X~.^.^././.U.-X-X:X*X&XW.W.*XW.Y.Y.W.W.Q.*X*X*X:X;X;X%X^.'.`.).).)./.>X>X>X>X>X>X>X>X>X>X>X>X>X>X>X>X",
">X>X>X>X>X>X>X>X>X>X>X>X>X>X8.~.^.^./.I.=X-X*X*X*X*X&X&XE.8.8.Y.W.&X&X*X*X:X:X;XXX^.`.`.).).).(.>X>X>X>X>X>X>X>X>X>X>X>X>X>X>X>X",
">X>X>X>X>X>X>X>X>X>X>X>X>X>X5.K.~.^.^.~. X-X:X*X*X&X&XXXI.9.8.8.E.&X%X*X:X:X;X;X{.^.).`.).)./.~.>X>X>X>X>XJ >X>X>X>X>X>X>X>X>X>X",
">X>X>X>X>X>X>X>X>.F Z Z >X>X>X8.P.P.~.~.~.XX*X-X&XOXT.P.8.8.7.8.J.T..X*X:X:X;X X^.(.).).)././.8.>XZ Z D D D d.*.%.>X>X>X>X>X>X>X",
">X>X>X>X>X%.&.;.( D D D D D I 5.8.P.P.~.~.I.I.U.I.P.8.8.8.5.7.7.7.8.J.U.T.{.^.^.^.~.).)././.^.( F D F F D D G :.&.&.=.>X>X>X>X>X",
">X>X>X>X>X*.&. .B S S D D D F 3.5.8.9.5.5.4.5.5.5.5.5.5.5.5.5.5.0.0.5.7.7.8.8.8.9.~.).).(.~.K.F D D D S S Z N -.@.@.=.>X>X>X>X>X",
">X>X>X>X>X*.&.%.N V V S S D D <.4.5.7.5.4.5.5.5.5.5.5.5.5.4.5.5.0.5.5.7.7.7.8.9.9.K.(.(.(.~.K.D D S S V B N v o.@.@.-.>X>X>X>X>X",
">X>X>X>X>X,.O.o.c M V S S F S T <.w 5.5.4.5.5.0.0.4.5.5.4.4.7.7.5.7.5.0.0.9.8.9.9.K.~.8.4.~.( G S V B N m c A o.+.@.$.>X>X>X>X>X",
">X>X>X>X>X#.X.X.h j m N S S S D E <.Q 4.5.5.5.0.0.0.e r <.<.Q 9 <.5.5.7.7.7.7.9.K.K.K.2.K./ D V B N M c c l K X.O.O.>X>X>X>X>X>X",
">X>X>X>X>X} ....C h h m M V S D F F E ^ 0.0.0.0.4.0.5.5.5.5.5.5.5.0.0.0.7.8.9.9.9.J.<.( D S V B N M m k j f | #.#.#.>X>X>X>X>X>X",
">X>X>X>X>X>X>X>XH 1 >X>X>X>Xf D F F F I Y q ^ ^ 2.4.5.1.W w w e W ^ 5.0.7.8.5.^ W T D D S S B k s >X>X>X>X>X>X>X>X>X>X>X>X>X>X>X",
">X>X>X>X>X>X>X>X>X>X>X>X>X, c D F F F F D D U ! W q q r ~ 3.3.1.Q e r r ^ 2.T F D D S D S V M n f >X>X>X>X>X>X>X>X>X>X>X>X>X>X>X",
">X>X>X>X>X>X>X>X>X>X>X>X>Xh V D F F D D D F D D F D P R / <.<.1./ R U G D D D S S S S S S V B M j >X>X>X>X>X>X>X>X>X>X>X>X>X>X>X",
">X>X>X>X>X>X>X>X>X>X>X>X< N S D D D D D D F S D G S S S G S b u v G S S S S S S S S B S S V S N n h >X>X>X>X>X>X>X>X>X>X>X>X>X>X",
">X>X>X>X>X>X>X>X>X>X>X>Xn S S S S S S S S S D S S S S S S S x i l B S S S S S V S B S V V S S B N j >X>X>X>X>X>X>X>X>X>X>X>X>X>X",
">X>X>X>X>X>X>X>X>X>X>Xg N S S S S S S S S S S S S S S S B N a i x Z V Z V V B V V V B V V V S S B m >X>X>X>X>X>X>X>X>X>X>X>X>X>X",
">X>X>X>X>X>X>X>X>X>X>Xn N V V S S S S S S S B S S S Z S Z N a i x N B B B B N B B B V B B S B B B N n >X>X>X>X>X>X>X>X>X>X>X>X>X",
">X>X>X>X>X>X>X>X>X>X>Xk N B B V S S B S S B B S N A p p l M a i x M N B B N N N B B B B V B B B N N k >X>X>X>X>X>X>X>X>X>X>X>X>X",
">X>X>X>X>X>X>X>X>X>X>Xg M N B B N B N N B B B N N v i = & ; ; ; a M N N N N N N N N B B B B B B N m >X>X>X>X>X>X>X>X>X>X>X>X>X>X",
">X>X>X>X>X>X>X>X>X>X>X>Xm N N N N N N B N B N N N N N N M v y i u m M M M N N N N N N N N N N N N n >X>X>X>X>X>X>X>X>X>X>X>X>X>X",
">X>X>X>X>X>X>X>X>X>X>X>Xj M M M M N B b M N N M M N M M M v y : u z m M M M M M N N N N N N N N M z >X>X>X>X>X>X>X>X>X>X>X>X>X>X",
">X>X>X>X>X>X>X>X>X>X>X>Xf M m M b M M M M M M m M M m m n j y = y z v v m M M M M M M M M N N M M g >X>X>X>X>X>X>X>X>X>X>X>X>X>X",
">X>X>X>X>X>X>X>X>X>X>X>X< k n n b M M b n n n n n n n n n l : = : h v v c M m M M M M M M N M M k >X>X>X>X>X>X>X>X>X>X>X>X>X>X>X",
">X>X>X>X>X>X>X>X>X>X>X>X, f j n c c c c n n n k n k k k h h : & ; f k v c n n M M M M N M M M n h >X>X>X>X>X>X>X>X>X>X>X>X>X>X>X",
">X>X>X>X>X>X>X>X>X>X>X>X>X1 f h c j c c j k k k j j k k h f : - ; f j c c n m n n M M M M M M n g >X>X>X>X>X>X>X>X>X>X>X>X>X>X>X",
">X>X>X>X>X>X>X>X>X>X>X>X>X>X1 f f f h j j h j j h h l h h d : & ; d k c v c n n M c n n M n M z >X>X>X>X>X>X>X>X>X>X>X>X>X>X>X>X",
">X>X>X>X>X>X>X>X>X>X>X>X>X>X>Xs d f f f h h h f h h h h h g : & = d h k j c c c c c n n n n m >X>X>X>X>X>X>X>X>X>X>X>X>X>X>X>X>X",
">X>X>X>X>X>X>X>X>X>X>X>X>X>X>X>X8 1 < s s s f f f h h h f d ; * ; d h k j j c j c c c n n z >X>X>X>X>X>X>X>X>X>X>X>X>X>X>X>X>X>X",
">X>X>X>X>X>X>X>X>X>X>X>X>X>X>X>X@ 5 5 8 s s s s d > : ; > 1 ; - - s h h h l j j j j C 0 0 >X>X>X>X>X>X>X>X>X>X>X>X>X>X>X>X>X>X>X",
">X>X>X>X>X>X>X>X>X>X>X>X>X>X>X>X>X4 4 4 5 5 7 s s , $ $ $ - $ $ - s f h h h h 8 5 0 0 0 + >X>X>X>X>X>X>X>X>X>X>X>X>X>X>X>X>X>X>X",
">X>X>X>X>X>X>X>X>X>X>X>X>X>X>X>X>XX X X # + + 2 3 1 ; $ $ - - $ & < s s 7 3 3 2 3 2 2 + >X>X>X>X>X>X>X>X>X>X>X>X>X>X>X>X>X>X>X>X",
">X>X>X>X>X>X>X>X>X>X>X>X>X>X>X>X>X>X>X>X>X.   . X X X % > , - $ $ % X X X . . . . . . >X>X>X>X>X>X>X>X>X>X>X>X>X>X>X>X>X>X>X>X>X",
">X>X>X>X>X>X>X>X>X>X>X>X>X>X>X>X>X>X>X>X>X>X>X>X>X>X>X>X>X>X>X>X>X>X>X>X>X>X>X>X>X>X>X>X>X>X>X>X>X>X>X>X>X>X>X>X>X>X>X>X>X>X>X>X",
">X>X>X>X>X>X>X>X>X>X>X>X>X>X>X>X>X>X>X>X>X>X>X>X>X>X>X>X>X>X>X>X>X>X>X>X>X>X>X>X>X>X>X>X>X>X>X>X>X>X>X>X>X>X>X>X>X>X>X>X>X>X>X>X",
">X>X>X>X>X>X>X>X>X>X>X>X>X>X>X>X>X>X>X>X>X>X>X>X>X>X>X>X>X>X>X>X>X>X>X>X>X>X>X>X>X>X>X>X>X>X>X>X>X>X>X>X>X>X>X>X>X>X>X>X>X>X>X>X",
">X>X>X>X>X>X>X>X>X>X>X>X>X>X>X>X>X>X>X>X>X>X>X>X>X>X>X>X>X>X>X>X>X>X>X>X>X>X>X>X>X>X>X>X>X>X>X>X>X>X>X>X>X>X>X>X>X>X>X>X>X>X>X>X"
};
