/* XPM */
static char *result[] = {
/* columns rows colors chars-per-pixel */
"64 64 177 2 ",
"   c #040404",
".  c #0B0C0A",
"X  c #080808",
"o  c #110D0B",
"O  c #1F0B07",
"+  c #0F100C",
"@  c #14120E",
"#  c #0E1315",
"$  c #1B1311",
"%  c #13191D",
"&  c #171714",
"*  c #0F0D15",
"=  c #3A1209",
"-  c #231816",
";  c #250D08",
":  c #1F2216",
">  c #34221F",
",  c #272B1C",
"<  c #1A1C29",
"1  c #231C33",
"2  c #1C262C",
"3  c #192125",
"4  c #1F2A30",
"5  c #3B2E25",
"6  c #372923",
"7  c #2E3521",
"8  c #353724",
"9  c #222E35",
"0  c #25333B",
"q  c #29363E",
"w  c #393133",
"e  c #34353A",
"r  c #57190C",
"t  c #681D0D",
"y  c #46221B",
"u  c #452F2B",
"i  c #4E332F",
"p  c #453332",
"a  c #553935",
"s  c #572C24",
"d  c #3C432A",
"f  c #3E4730",
"g  c #495233",
"h  c #525D39",
"j  c #4B4634",
"k  c #65423C",
"l  c #68443F",
"z  c #56623D",
"x  c #59653E",
"c  c #7C683D",
"v  c #2B3C45",
"b  c #343F47",
"n  c #443C76",
"m  c #33424C",
"M  c #344853",
"N  c #364853",
"B  c #354954",
"V  c #3F5563",
"C  c #41474F",
"Z  c #6D4741",
"A  c #6D4842",
"S  c #774D46",
"D  c #7E524A",
"F  c #5C6840",
"G  c #647145",
"H  c #6A794A",
"J  c #7C7647",
"K  c #4D6B7C",
"L  c #486474",
"P  c #962911",
"I  c #8A2610",
"U  c #A92D13",
"Y  c #983C2A",
"T  c #973B29",
"R  c #D83917",
"E  c #C53415",
"W  c #E23B17",
"Q  c #E13E19",
"!  c #9E4331",
"~  c #9C402E",
"^  c #A04634",
"/  c #A54C3A",
"(  c #A54B39",
")  c #B05F33",
"_  c #D8441E",
"`  c #DE4B22",
"'  c #DA592C",
"]  c #D76736",
"[  c #85564E",
"{  c #8C5A52",
"}  c #915D55",
"|  c #AD5443",
" . c #B45C4C",
".. c #B05747",
"X. c #9C645B",
"o. c #956057",
"O. c #BA6454",
"+. c #BF6A5A",
"@. c #AD6457",
"#. c #A66A61",
"$. c #AA6D63",
"%. c #B9766C",
"&. c #BE796E",
"*. c #B47369",
"=. c #C26C5D",
"-. c #C67162",
";. c #CE7B6D",
":. c #C87465",
">. c #C47E72",
",. c #D17E70",
"<. c #798954",
"1. c #73824F",
"2. c #84965B",
"3. c #97AC69",
"4. c #9DB26C",
"5. c #A6BC72",
"6. c #A0B56E",
"7. c #CC9656",
"8. c #C9A05C",
"9. c #CA8276",
"0. c #CF8478",
"q. c #D58375",
"w. c #D28579",
"e. c #D7897D",
"r. c #DB8B7E",
"t. c #D88679",
"y. c #C5B268",
"u. c #ABC276",
"i. c #B3CB7B",
"p. c #BECC7B",
"a. c #B0C779",
"s. c #BBD27F",
"d. c #C1C174",
"f. c #557589",
"g. c #5A7E92",
"h. c #7667CF",
"j. c #7B69CB",
"k. c #7767D0",
"l. c #8C6FBF",
"z. c #9372BA",
"x. c #9A74B4",
"c. c #9670A7",
"v. c #AA7AA9",
"b. c #B47EA1",
"n. c #826CC6",
"m. c #886EC2",
"M. c #5F859B",
"N. c #60869D",
"B. c #6A95AD",
"V. c #6790A8",
"C. c #6F9BB5",
"Z. c #638BA2",
"A. c #74A2BD",
"S. c #79AAC7",
"D. c #7BADCA",
"F. c #7EB1CF",
"G. c #7FB2D0",
"H. c #BC819A",
"J. c #DE8E81",
"K. c #D68B87",
"L. c #C48494",
"P. c #C98381",
"I. c #E08F82",
"U. c #BCD581",
"Y. c #B6D28C",
"T. c #ACCD9B",
"R. c #B2D092",
"E. c #9CC6B5",
"W. c #A2C9AB",
"Q. c #A7CBA3",
"!. c #81B5D4",
"~. c #84B9D7",
"^. c #85BBDA",
"/. c #8BBED0",
"(. c #95C3C0",
"). c #91C0C8",
"_. c None",
/* pixels */
"_._._._._._._._._._._._._._._._._._._._._._._._._._._._._._._._._._._._._._._._._._._._._._._._._._._._._._._._._._._._._._._._.",
"_._._._._._._._._._._._._._._._._._._._._._._._._._._._._._._._._._._._._._._._._._._._._._._._._._._._._._._._._._._._._._._._.",
"_._._._._._._._._._._._._._._._._._._._._._._._._._._._._._._._._._._._._._._._._._._._._._._._._._._._._._._._._._._._._._._._.",
"_._._._._._._._._._._._._._._._._._._.+ 6 l } X.X.{ k 6 o _._._._._._._._._._._._._._._._._._._._._._._._._._._._._._._._._._._.",
"_._._._._._._._._._._._._._._._.i 9.J.J.J.J.J.J.J.J.J.J.J.J.>.u _._._._._._._._._._._._._._._._._._._._._._._._._._._._._._._._.",
"_._._._._._._._._._._._._.o $.I.J.J.J.J.J.J.J.J.J.J.J.J.J.J.J.J.I.{ X _._._._._._._._._._._._._._._._._._._._._._._._._._._._._.",
"_._._._._._._._._._._.X $.J.J.J.I.J.J.J.J.J.J.J.J.J.J.J.J.J.J.J.J.J.I.k _._._._._._._._._._._._._._._._._._._._._._._._._._._._.",
"_._._._._._._._._._.u J.J.J.J.J.I.r.J.J.J.J.J.J.J.J.J.J.J.J.J.e.#.X.%.J.9.X _._._._._.+ @ + _._._._._._._._._._._._._._._._._._.",
"_._._._._._._._._.X.J.J.J.J.J.J.I.I.J.J.J.J.J.J.J.J.J.J.J.X.g i.U.U.U.4.7 w.o _._.G U.U.U.d.7.c _._._._._._._._._._._._._._._._.",
"_._._._._._._._.9.I.J.J.J.J.J.J.r.J.J.J.J.J.J.J.J.J.J.J.8 s.s.U.U.s.' W W ) [ . i.U.U.U.` W _ W Q . _._._._._._._._._._._._._._.",
"_._._._._._._.9.J.L.h.h.h.n.J.J.J.J.J.J.J.J.J.J.J.J.J.5 U.U.U.U.d.W W P U W _ 2.U.U.U.7.W r     U ] _._._._._._._._._._._._._._.",
"_._._._._._.*.J.J.j.h.h.h.h.h.K.J.J.J.J.J.J.J.J.J.J.#.s.U.U.U.U.] W O X X = R J U.U.U.` Q X     ; W 1._._._._._._._._._._._._._.",
"_._._._._.Z J.J.I.v.h.h.h.h.h.j.J.J.J.J.J.J.J.J.J.I.f s.U.U.U.U.Q W     X X W 7.x U.U.] W =     P Q U._._._._._._._._._._._._._.",
"_._._._.@ J.J.J.J.J.z.h.h.h.h.h.J.J.J.J.J.J.J.J.J.r.5.U.U.U.U.U.' W t X   I W d.j U.U.d.W W E R W 8.U.. _._._._._._._._._._._._.",
"_._._._.w.J.J.J.J.J.J.K.z.j.l.J.J.J.J.J.J.J.J.J.r.9.U.s.U.U.U.U.d.Q Q W W W ` s.1.U.U.U.y.Q Q Q 8.U.U.@ _._._._._._._._._._._._.",
"_._._.> J.J.J.J.J.J.J.J.J.J.J.J.J.J.J.J.J.J.J.I.I.&.U.U.U.U.U.U.U.s.` W W ] s.s.<.U.U.U.U.U.U.U.U.U.U.X _._._._._._._._._._._._.",
"_._._.P.K.J.J.J.J.J.J.J.J.J.J.J.J.J.r.I.I.r.I.I.I.e.i.U.U.U.U.U.U.U.U.U.U.U.U.U.h U.U.U.U.U.U.U.U.U.U._._._._._._._._._._._._._.",
"_._.. h.h.J.J.J.J.J.J.J.J.J.J.J.J.J.K.h.j.J.r.I.r.I.G U.U.U.U.U.U.U.U.U.U.U.U.U.d U.U.U.U.U.U.U.U.U.x _._._._._._._._._._._._._.",
"_._.n h.h.K.J.J.J.J.I.r.J.J.J.J.J.J.H.h.h.h.K.I.J.J.k U.U.U.U.U.U.U.U.U.U.U.U.u.a.U.U.U.U.U.U.U.U.a.  _._._._._._._._._._._._._.",
"_._.h.h.h.I.J.J.J.J.I.J.J.J.J.J.J.J.J.h.h.h.j.r.J.J.I.g U.U.U.s.U.U.U.U.U.U.U.6 4.U.U.U.U.U.U.U.u.  _._._._._._._._._._._._._._.",
"_._.h.h.z.I.J.J.J.J.J.J.q.:.t.I.J.J.I.x.h.k.h.I.J.r.I.e.x s.U.U.U.U.U.U.U.U.6 J.0.8 i.U.U.U.i.g   _._._._._._._._._._._._._._._.",
"_.o H.v.r.I.J.J.J.J.O.T T Y Y Y r.I.r.I.v.k.h.I.J.J.I.J.I.8 u.U.U.U.U.U.2.& J.J.J.J.e.#.i X !.^.X _._._._._._._._._._._._._._._.",
"_.- I.I.J.J.J.J.I.( Y Y Y Y Y Y ~ ;.r.I.I.I.r.I.J.J.J.J.I.I.e.l 6 8 5 B ^.f.J.J.J.J.J.J.%._.D.^.. _._._._._._._._._._._._._._._.",
"_.> r.I.J.J.J.J...Y T Y Y Y Y Y ~ T q.r.I.r.I.I.J.J.J.J.J.I.J.J.J.J.J.k ^.D.J.J.J.J.J.J.0._.K ^.# _._._._._._._._._._._._._._._.",
"_.1 k.n.I.J.J.r.Y Y Y O.I.J.J.=.T T T r.r.I.I.J.J.J.J.J.J.J.J.J.J.J.J.J.S.~.%.J.J.J.J.J.e._.4 ^.3 _._._._._._._._._._._._._._._.",
"_.< k.k.b.r.J.( Y Y :.r.J.I.J.J.:.~ ~ / I.I.J.J.J.J.J.J.J.J.J.J.J.J.J.J.e ~.Z J.J.J.J.J.e._.. ^.4 _._._._._._._._._._._._._._._.",
"_.* k.k.n.I.I.Y Y ^ r.I.J.r.J.J.J. .T ~ r.r.I.I.J.J.J.J.J.J.J.J.J.J.J.J.#.^.e J.J.J.J.J.e._._.^.0 _._._._._._._._._._._._._._._.",
"_.X h.k.m.J.q.Y Y q.I.I.J.J.J.J.J.r.T T O.r.J.h.h.z.J.J.J.J.J.J.J.J.J.J.J.V.K J.J.J.J.J.w._._.^.v _._._._._._._._._._._._._._._.",
"_._.k.k.L.I.+.Y Y J.J.J.J.J.J.J.J.J.O.~ ~ r.J.h.h.h.L.r.I.I.J.J.J.J.J.J.J.e S.J.J.J.J.J.&._._.~.M _._._._._._._._._._._._._._._.",
"_._.c.H.I.I.| Y Y J.J.J.J.J.J.J.J.J.e.T ~ r.J.h.h.h.j.J.r.I.J.J.J.J.J.J.J.{ ^.%.J.J.J.J.} _._.G.M _._._._._._._._._._._._._._._.",
"_._.[ J.J.J./ Y Y J.J.J.J.J.J.J.J.J.J.~ ~ r.r.v.h.h.h.J.I.J.J.J.J.J.J.J.I.e.F.k J.J.J.J.a _._.D.M _._._._._._._._._._._._._._._.",
"_._.$ J.J.J./ Y ~ I.J.J.J.J.J.J.J.J.J.~ T q.r.I.j.h.l.I.J.J.J.J.J.J.J.J.J.J.K q J.J.J.J.$ _._.S.M _._._._._._._._._._._._._._._.",
"_._._.I.r.I. .Y T J.J.J.J. .r.I.J.J.J.Y T ,.J.J.r.K.J.J.J.J.J.J.J.J.J.J.J.J.w f.J.J.J.J.  _._.D.m _._._._._._._._._._._._._._._.",
"_._._.o.I.r.-.Y ~ J.J.I.J.r.~ I.r.J.J.Y Y ,.J.J.I.J.J.J.J.J.J.J.J.J.J.J.J.J.[ !.r.J.J.J._._._.G.v _._._._._._._._._._._._._._._.",
"_._._.. I.I.t.Y T r.r.I.J.J.T  .I.J.J.Y Y q.J.J.J.J.J.J.J.J.J.J.J.J.J.J.J.J.0.^.#.J.I.{ _._._.~.9 _._._._._._._._._._._._._._._.",
"_._._._.9.I.r.T T O.J.J.J.J.! T J.J.J.Y Y q.J.J.J.J.J.J.J.J.J.J.J.J.J.J.J.J.I.B.p J.J.- _._._.^.2 _._._._._._._._._._._._._._._.",
"_._._._.$ I.I.( T ~ r.r.J.J.! T r.I.q.T Y r.I.J.J.J.J.J.J.J.J.J.J.J.J.J.J.J.J.V N I.I.  _._._.^.% _._._._._._._._._._._._._._._.",
"_._._._._.%.I.w.T T / I.J.I.T ~ t.I. .Y Y J.J.J.J.J.J.J.J.J.J.J.J.J.J.J.J.J.J.w B.I.#._._._._.^.# _._._._._._._._._._._._._._._.",
"_._._._._.. I.J.~ ~ ~ ~ +.! T T J.I.~ T Y I.J.J.J.I.J.J.J.J.J.J.J.J.J.J.J.J.J.Z ^.9.$ _._._.* ^.. _._._._._._._._._._._._._._._.",
"_._._._._._.A J.r.T T T T ~ T  .J.I.Y T Y J.J.J.J.I.r.J.J.J.J.J.J.J.J.J.J.J.J.*.^.A _._._._.3 ^.  _._._._._._._._._._._._._._._.",
"_._._._._._._.e.J.w.Y Y Y Y ! I.J.;.Y Y / I.I.J.J.J.J.J.J.J.J.J.J.J.J.J.J.J.J.e.!.2 _._._._.M ^.  _._._._._._._._._._._._._._._.",
"_._._._._._._.$ J.J.r. .( =.I.I.J.( Y Y +.I.J.J.J.J.J.J.J.J.J.J.J.J.J.J.J.J.J.J.C.f._._._._.g.^._._._._._._._._._._._._._._._._.",
"_._._._._._._._.D J.I.I.r.I.I.I.J.Y T Y w.J.J.J.J.J.J.J.J.J.J.J.J.J.J.J.J.J.J.J.f.!._._._._.S.~._._._._._._._._._._._._._._._._.",
"_._._._._._._._._.e.I.r.r.I.r.I.q.T Y Y r.J.J.J.J.J.J.J.J.J.J.J.J.J.J.J.J.J.e.>.v ^._._._._.^.F._._._._._._._._._._._._._._._._.",
"_._._._._._._._._.$ I.I.J.J.J.J.| T T T I.I.r.I.J.J.J.J.J.J.J.J.J.J.J.J.J.J.J.l < ~.% _._._.^.V._._._._._._._._._._._._._._._._.",
"_._._._._._._._._._.$.I.J.J.J.I.T ~ T ! I.I.J.I.J.J.J.J.J.J.J.J.J.J.J.J.J.J.J.I.u ~.L _._.# ^.L _._._._._._._._._._._._._._._._.",
"_._._._._._._._._._.. I.J.J.J.r.T ~ T ..r.J.J.J.J.J.J.J.J.J.J.J.J.J.J.J.0.S w b 0 ^.F.m % 2 F.0 _._._._._._._._._._._._._._._._.",
"_._._._._._._._._._._.&.J.J.J.-.T T T :.I.J.J.J.J.J.J.J.J.J.J.J.J.J.a K ~.^.^.^.B.^.^.M.^.^.~.f.% _._._._._._._._._._._._._._._.",
"_._._._._._._._._._._.i J.J.J.( Y Y Y t.J.J.J.J.J.J.J.J.J.J.J.J.a C.^.^.^.^.^.^.D.^.~.L ^.^.^.^.^.^.M.# _._._._._._._._._._._._.",
"_._._._._._._._._._._.@ J.J.J.Y Y Y Y J.J.J.J.J.J.J.J.J.J.J.&.K ^.^.^.^.^.^.^.^.^.~.~.^.^.^.^.^.^.^.^.^.C.. _._._._._._._._._._.",
"_._._._._._._._._._._.o J.J.J.Y Y Y Y J.J.J.J.J.J.J.J.J.J.D S.^.^.^.^.^.^.^.^.^.^.^.^.^.^.^.^.^.^.^.^.^.^.^.0 _._._._._._._._._.",
"_._._._._._._._._._.%.J.J.J.J.Y Y Y Y J.J.J.J.J.J.J.J.J.A ~.^.^.^.^.^.^.^.^.^.^.^.^.^.^.^.^.^.^.^.^.^.^.^.~.^.f._._._._._._._._.",
"_._._._._._._._._._.I.I.J.I.J.Y Y Y Y J.J.J.J.J.J.J.J.{ !.^.^.^.^.^.^.^.^.^.^.^.^.^.^.^.^.^.^.^.^.^.^.^.^.^.^.^.F.9 : _._._._._.",
"_._._._._._._._._._.  m a %.r.~ Y Y Y ;.J.J.J.J.J.J.9.A.^.^.^.^.^.^.^.^.^.^.^.^.^.^.^.^.^.^.^.^.^.^.^.^.^.^.^.^.).W.U.U.i.8 _._.",
"_._._._._._._._._.X A.^.^.^.D.g.C 5 y s [ } [ l p m Z.^.^.^.^.^.^.^.^.^.^.^.^.^.^.^.^.^.^.^.^.^.^.^.^.Q.U.U.Y.Y.Y.U.U.U.U.s.& _.",
"_._._._._._._., 3.U.Y.R.Q.Q.T.R.R.T.E.^.^.^.^.^.~.~.~.^.^.^.^./.E.R.U.s.s.U.U.U.U.U.s.Y.Q.^.^.^.^.).U.U.U.U.s.s.U.u.<.G x g X _.",
"_._._._._.@ U.U.U.U.U.s.4.3.U.U.U.U.U.U.s.Y.W.(.(.(.(.(.W.U.U.U.s.s.U.U.U.U.U.U.U.U.U.U.U.U.U.U.U.U.U.U.U.U.U.<.  _._._._._._._.",
"_._._._._._.8 x 8 .   _._._.  5.U.U.U.U.U.s.U.s.U.U.U.U.s.U.U.U.U.U.U.U.U.U.U.U.U.U.U.U.U.U.U.U.U.U.U.U.U.U.a._._._._._._._._._.",
"_._._._._._._._._._._._._._._._.x U.U.s.u.H g d d f x 2.i.U.s.U.U.U.U.U.U.s.U.U.U.U.U.U.a.H h <.i.U.U.U.U.U.: _._._._._._._._._.",
"_._._._._._._._._._._._._._._._._.  & X _._._._._._._._._.  1.U.U.U.U.U.g . x U.U.U.U.7 _._._._._.. h u.U.H _._._._._._._._._._.",
"_._._._._._._._._._._._._._._._._._._._._._._._._._._._._._._.  . : .   _._._.  d d   _._._._._._._._._._._._._._._._._._._._._.",
"_._._._._._._._._._._._._._._._._._._._._._._._._._._._._._._._._._._._._._._._._._._._._._._._._._._._._._._._._._._._._._._._.",
"_._._._._._._._._._._._._._._._._._._._._._._._._._._._._._._._._._._._._._._._._._._._._._._._._._._._._._._._._._._._._._._._.",
"_._._._._._._._._._._._._._._._._._._._._._._._._._._._._._._._._._._._._._._._._._._._._._._._._._._._._._._._._._._._._._._._."
};
