/* XPM */
static char *result[] = {
/* columns rows colors chars-per-pixel */
"64 67 230 2 ",
"   c #030303",
".  c #0A0D05",
"X  c #070A05",
"o  c #151515",
"O  c #10130A",
"+  c #201C15",
"@  c #1B250B",
"#  c #2D3813",
"$  c #283112",
"%  c #292929",
"&  c #272925",
"*  c #313825",
"=  c #343434",
"-  c #364517",
";  c #334909",
":  c #3D4826",
">  c #455C0E",
",  c #465C16",
"<  c #705A0D",
"1  c #49630B",
"2  c #516E06",
"3  c #5C7D04",
"4  c #587508",
"5  c #556C13",
"6  c #5B7419",
"7  c #4D6518",
"8  c #627F0B",
"9  c #637A1A",
"0  c #7D680E",
"q  c #655F3B",
"w  c #586B30",
"e  c #576A28",
"r  c #707630",
"t  c #434C2B",
"y  c #484847",
"u  c #5A5A5A",
"i  c gray49",
"p  c #766E46",
"a  c #8C710E",
"s  c #9A7C0E",
"d  c #93770E",
"f  c #8D7310",
"g  c #5F8104",
"h  c #628502",
"j  c #668A04",
"k  c #6B8D03",
"l  c #64840B",
"z  c #6A8B0C",
"x  c #688806",
"c  c #6E9403",
"v  c #6E9508",
"b  c #749B03",
"n  c #749908",
"m  c #698714",
"M  c #799B19",
"N  c #708E1B",
"B  c #7AA404",
"V  c #7DAB02",
"C  c #7AA608",
"Z  c #7DA216",
"A  c #7C9A29",
"S  c #768B3A",
"D  c #799237",
"F  c #6E8530",
"G  c #7FA029",
"H  c #969709",
"J  c #8A9108",
"K  c #AA8A0E",
"L  c #B7940F",
"P  c #B89512",
"I  c #82AE07",
"U  c #83B403",
"Y  c #88B907",
"T  c #83A919",
"R  c #89B517",
"E  c #90BC1C",
"W  c #B8A50C",
"Q  c #819C2C",
"!  c #819B35",
"~  c #84A42B",
"^  c #8AAC2A",
"/  c #86AA26",
"(  c #8EB525",
")  c #8EB32B",
"_  c #8EBB26",
"`  c #93BB25",
"'  c #91B729",
"]  c #93BC2B",
"[  c #91B526",
"{  c #89A836",
"}  c #94B639",
"|  c #8FB233",
" . c #C5A00E",
".. c #CCA50F",
"X. c #D3AC0E",
"o. c #CEB00D",
"O. c #DDB60D",
"+. c #CCA611",
"@. c #DCB312",
"#. c #CFB116",
"$. c #E4BB0D",
"%. c #E9BC0E",
"&. c #E3B911",
"*. c #8DC403",
"=. c #8DC20C",
"-. c #88C709",
";. c #92CA04",
":. c #92C709",
">. c #94D001",
",. c #99D602",
"<. c #9DDC05",
"1. c #96D60A",
"2. c #92C313",
"3. c #97CB17",
"4. c #9CD415",
"5. c #A1DD0C",
"6. c #A4DC1A",
"7. c #9EE205",
"8. c #A2E504",
"9. c #A6EA01",
"0. c #ACED0C",
"q. c #A7EA06",
"w. c #ACF303",
"e. c #ADF607",
"r. c #B2FD05",
"t. c #B3F40D",
"y. c #B2FD0A",
"u. c #B5F809",
"i. c #A8E518",
"p. c #B2F415",
"a. c #B2F31A",
"s. c #B4F816",
"d. c #B0F01A",
"f. c #9AC42B",
"g. c #9CCA2D",
"h. c #96C327",
"j. c #9DC738",
"k. c #9ED030",
"l. c #A3D42B",
"z. c #A6DA2A",
"x. c #A9DE2A",
"c. c #A4D825",
"v. c #A2CC38",
"b. c #A4D333",
"n. c #ABDA37",
"m. c #A1CF22",
"M. c #ACE524",
"N. c #AEEC25",
"B. c #ACE42B",
"V. c #AFE92D",
"C. c #A4E020",
"Z. c #B3E92D",
"A. c #BBF528",
"S. c #AEE831",
"D. c #AFE430",
"F. c #B2EA34",
"G. c #B5E738",
"H. c #AFF020",
"J. c #EDC10D",
"K. c #F5C60C",
"L. c #F9C70E",
"P. c #F6C80C",
"I. c #F9C80D",
"U. c #EDC013",
"Y. c #F3C411",
"T. c #F9C910",
"R. c #ECC03F",
"E. c #C2FA36",
"W. c #92AB43",
"Q. c #9BBB46",
"!. c #A9BB73",
"~. c #B7AA5A",
"^. c #DABC59",
"/. c #E5BC51",
"(. c #9EC145",
"). c #A4CD42",
"_. c #AAD545",
"`. c #B3DC49",
"'. c #AACA5B",
"]. c #B9E44D",
"[. c #BCE554",
"{. c #BFE75A",
"}. c #B6D270",
"|. c #BFE36B",
" X c #E1C55C",
".X c #CCFA59",
"XX c #C1EE4E",
"oX c #D0D27C",
"OX c #EBD577",
"+X c #F4D470",
"@X c #C3E969",
"#X c #CEFB68",
"$X c #D3FC69",
"%X c #C8EB7A",
"&X c #D5FA79",
"*X c #CFF47E",
"=X c #989898",
"-X c #B7C788",
";X c #B8C791",
":X c #DDCA87",
">X c #D0D595",
",X c #EDD986",
"<X c #F1D584",
"1X c #EAD699",
"2X c #D7FA85",
"3X c #CEE996",
"4X c #D7F798",
"5X c #D0EB8F",
"6X c #E3FE9A",
"7X c #E5E198",
"8X c #D0D8A8",
"9X c #E1D9BA",
"0X c #D7E7B5",
"qX c #D7EFA8",
"wX c #E4FBAA",
"eX c #E7FEBA",
"rX c #E9E0BC",
"tX c #CBCDCB",
"yX c #DBE3CA",
"uX c #E6E8D4",
"iX c #F5FCDA",
"pX c #E7F4C8",
"aX c #E9E9E5",
"sX c #EBEAEA",
"dX c #E7EBE1",
"fX c #F9FBE9",
"gX c #FCFCF4",
"hX c #FDFDFB",
"jX c #F5F4F4",
"kX c None",
/* pixels */
"kXkXkXkXkXkXkXkXkXkXkXkXkXkXkXkXkXkXkXkXkXkXkXkXkXkXkXkXkXkXkXkXkXkXkXkXkXkXkXkXkXkXkXkXkXkXkXkXkXkXkXkXkXkXkXkXkXkXkXkXkXkXkXkX",
"kXkXkXkXkXkXkXkXkXkXkXkXkXkXkXkXkXkXkXkXkXkXkXkXkXkXkXkXkXkXkXkXkXkXkXkXkXkXkXkXkXkXkXkXkXkXkXkXkXkXkXkXkXkXkXkXkXkXkXkXkXkXkXkX",
"kXkXkXkXkXkXkXkXkXkXkXkXkXkXkXkXkXkXkXkXkXkXkXkXkXkXkXkXkXkXkXkXkXkXkXkXkXkXkXkXkXkXkXkXkXkXkXkXkXkXkXkXkXkXkXkXkXkXkXkXkXkXkXkX",
"kXkXkXkXkXkXkXkXkXkXkXkXkXkXkXkXkXkXkXkXkXkXkXkXkXkXkXkXd s s P @.Y.%.kXkXkXkXkXkXkXkXkXkXkXkXkXkXkXkXkXkXkXkXkXkXkXkXkXkXkXkXkX",
"kXkXkXkXkXkXkXkXkXkXkXkXkXkXkXkXkXkXkXkXkXkXkXkXkXkXU.T.T.K.K.L.K...s  .Y.@.kXkXkXkXkXkXkXkXkXkXkXkXkXkXkXkXkXkXkXkXkXkXkXkXkXkX",
"kXkXkXkXkXkXkXkXkXkXkXkXkXkXkXkXkXkXkXkXkXkXkXkXkX0 s  .@.@.X.L s X.K.K. .K Y.kXkXkXkXkXkXkXkXkXkXkXkXkXkXkXkXkXkXkXkXkXkXkXkXkX",
"kXkXkXkXkXkXkXkXkXkXkXkXkXkXkXkXkXkXkXkXkXkXkX@.Y.T.T.T.L.T.L.I.K.%.L $.I.K.L &.kXkXkXkXkXkXkXkXkXkXkXkXkXkXkXkXkXkXkXkXkXkXkXkX",
"kXkXkXkXkXkXkXkXkXkXkXkXkXkXkXkXkXkXkXkXkXkXU.T.T.T.I.I.I.T.I.I.I.I.I.I.I.P.P.P.J.kXkXkXkXkXkXkXkXkXkXkXkXkXkXkXkXkXkXkXkXkXkXkX",
"kXkXkXkXkXkXkXkXkXkXkXkXkXkXkXkXkXkXkXkXkXkXI.+.d d s &.P.I...a < X.P.P.K.K.L.P.P.K.$.kXkXkXkXkXkXkXkXkXkXkXkXkXkXkXkXkXkXkXkXkX",
"kXkXkXkXkXkXkXkXkXkXkXkXkXkXkXkXkXkXkXkXkXY.T.P.T.T.K.&.a %.L.I.K.L < X.$...X.P.L.P.kXkXkXkXkXkXkXkXkXkXkXkXkXkXkXkXkXkXkXkXkXkX",
"kXkXkXkXkXkXkXkXkXkXkXkXkXkXkXkXkXkXkXkXkXY.kX&.J J O.I.K. .a @.I.I.I.I.K.P.J.K O.kXkXkXkXkXkXkXkXkXkXkXkXkXkXkXkXkXkXkXkXkXkXkX",
"kXkXkXkXkXkXkXkXkXkXkXkXkXkXkXkXkXkXkXkXkXkX .+.P H 3 9 #.K.T.%.K d s s a K O.o.kXK.kXkXkXkXkXkXkXkXkXkXkXkXkXkXkXkXkXkXkXkXkXkX",
"kXkXkXkXkXkXkXkXkXkXkXkXkXkXkXkXkXkXkXkXkX%.K X.J h 5 6 @ , H X.J.J.%.o.W H x h K K.kXkXkXkXkXkXkXkXkXkXkXkXkXkXkXkXkXkXkXkXkXkX",
"kXkXkXkXkXkXkXkXkXkXkXkXkXkXkXkXkXkXkXkXkXP.P.P.W g g h z # # x h g h . 5 h h h kXK.kXkXkXkXkXkXkXkXkXkXkXkXkXkXkXkXkXkXkXkXkXkX",
"kXkXkXkXkXkXkXkXkXkXkXkXkXkXkXkXkXkXkXkXkXI.P.P.J.h j k k k # @ z h 9 X h 2 8 h kXK.kXkXkXkXkXkXkXkXkXkXkXkXkXkXkXkXkXkXkXkXkXkX",
"kXkXkXkXkXkXkXkXkXkXkXkXkXkXkXkXkXkXkXkXkXP.K.K.K.l c c c v v O , k 6 @ x h 4 3 kX%.kXkXkXkXkXkXkXkXkXkXkXkXkXkXkXkXkXkXkXkXkXkX",
"kXkXkXkXkXkXkXkXkXkXkXkXkXkXkXkXkXkXkXkXkX%.U.kXO.j b b b b n n b c v v j x h 3 kXK.kXkXkXkXkXkXkXkXkXkXkXkXkXkXkXkXkXkXkXkXkXkX",
"kXkXkXkXkXkXkXkXkXkXkXkXkXkXkXkXkXkXkXkXkXkXY.kXh m B B n !.-X!.W.v b A fXgX;Xh 4 kXkXkXkX, kXkXkXkXkXkXkXkXkXkXkXkXkXkXkXkXkXkX",
"kXkXkXkXkXkXkXkXkXkXkXkXkXkXkXkXkXkXkXkXkXkXkXkXkXv I ^ gXhXgX+XR.7XM 7X,XiXhXD k 4 kXkX2 2 1 kXkXkXkXkXkXkXkXkXkXkXkXkXkXkXkXkX",
"kXkXkXkXkXkXkXkXkXkXkXkXkXkXkXkXkXkXkXkXkXkXkXkXkXC U pXhXhX,X+Xp r :X~.q OXgX;Xc c 8 4 3 7 - > kXkXkXkXkXkXkXkXkXkXkXkXkXkXkXkX",
"kXkXkXkXkXkXkXkXkXkXkXkXkXkXkXkXkXkXkXkXkXkXkXkXkXY U fXhXgXOX8X    OXo   :XgX0Xv c k h l . 6 1 kXkXkXkXkXkXkXkXkXkXkXkXkXkXkXkX",
"kXkXkXkXkXkXkXkXkXkXkXkXkXkXkXkXkXkXkXkXM Y R kXkXY Y fXhXjXOX9XX . <Xq o ,XgX8Xc b c k - # 3 > kXkXkXkXkXkXkXkXkXkXkXkXkXkXkXkX",
"kXkXkXkXkXkXkXkXkXkXkXkXkXkXkXkXkXkXkXkX/ *., 2.f.*.R 0XsXsX:X1X:X:XrXoX X1XhXW.c b b 6 . m 3 kXkXkXkXkXkXkXkXkXkXkXkXkXkXkXkXkX",
"kXkXkXkXkXkXkXkXkXkXkXm kXkXkXkXkXkXkXkXkX*.] 7 3.h.f.'.sXsXuX^.^.:XyX>XuXuX}.Z C B M X N k 4 kXkXkXkXkXkXkXkXkXkXkXkXkXkXkXkXkX",
"kXkXkXkXkXkXkXkXl kXkXm kXkXkXkXkXkXkXkXkX` 3.w Q.g.g.g.8XdXdXdXaXaX8X} | | { ^ / / . , v k kXkXkXkXkXkXkXkXkXkXkXkXkXkXkXkXkXkX",
"kXkXkXkXkXkXkXkXkXm kXm kXkXA kXkXkXkXkXkXkXj.).- ).l.l.k.>XdXsXaXaX'.f.] G ) ) W.* O Z b z kXkXkXkXkXkX! kXkXkXkXkXkXkXkXkXkXkX",
"kXkXkXkXkXkXkXkXkXm n B kXkXZ kXkXkXkXkXkXkXj.l.D : n.l.l.l.v.`.}.)._ ] h.h.] -XtX% t Z b v kXkXkXkXkXkX}.j.~ kXkXkXkXkXkXkXkXkX",
"kXkXkXkXkXkXkXkXkXkXn V I I kXkXkXkXkXkXkXkXb.z.n.* * (.d.q.1.;.Y Y <.1.3.(.yXsXu % S ^ n b kXkXkXkXkXkX].wXkXkXkXkXkXkXkXkXkXkX",
"kXkXkXkXkXkXkXkXl N kXZ U V kXkXkXkXkXkXkX).z.x.B.j.    $ wX5X@X`.`.|.qXuXgXjXaXy & | { oXb l kXkXkXkXF.y.s.M.R M kXkXkXkXkXkXkX",
"kXkXkXkXkXkXkXkXkXkXkXkXZ Y kXkXkXkXkXkXkXn.#X].t.y.-   = hXhXhXhXhXhXjXhXjXtXhXy : | ^ / / m kXkXkXkXy.y.2XkXkXkXkXkXkXkXkXkXkX",
"kXkXkXkXkXkXkXkXkXkXkXkXkXR ` kXkXkXkXkXkXB.5X].y.y.A.X   sXsXu u sXi X =Xy   jXo S ) / ~ ~ N kXkXf.0.p.s.G.kXkXkXkXkXkXkXkXkXkX",
"kXkXkXkXkXkXkXkXkXkXkXkXkXkX=.kXkXkXkXkXn.M.u.r.y.y.y.| & u tX% = =X% % = X   sX  ] _ ) ^ / A l C Y kXkXkXkX` kXkXkXkXkXkXkXkXkX",
"kXkXkXkXkXkXkXkXkXkXkXkXkXkXE 3.(.kXkXkXB.a.y.y.y.y.H.S.r & =X% % % % % % % o y # *.Y ' ^ ~ ~ h z kXkXkXkXkXkXF kXkXkXkXkXkXkXkX",
"kXkXkXkXkXkXkXkXkXkXkXkXkXkXkXg.l.b._._.N.r.y.r.y.p.S.V.G.w % = % % % % % % & o ` *.m.R ^ ^ Q r kXkXkXkXkXkXkXkXkXkXkXkXkXkXkXkX",
"kXkXkXkXkXkXkXkXkXkXkXkXkXkXkXkXj.l.B.B.d.y.y.r.s.V.V.S.S.F.w % % % & % % % & w 2.:.6XR ^ ^ Q kXkXkXkXkXkXkXkXkXkXkXkXkXkXkXkXkX",
"kXkXkXkXkXkXkXkXkXkXkXkXkXkXkXkXkX).n.B.u.r.r.a.[.].D.S.S.N.s.F     O & % % : j.h.;.*.U R ~ Q kXkXkXkXkXkXkXkXkXkXkXkXkXkXkXkXkX",
"kXkXkXkXkXkXkXkXkXkXkXkXkXkXkXkXkXkXkXD.r.r.s.2XqX3X{.S.H.y.y.e.N.F @ . # S b.] f.2.Y U I / ~ kXkXkXkXkXkXkXkXkXkXkXkXkXkXkXkXkX",
"kXkXkXkXkXkXkXkXkXkXkXkXkXkXkXkXkXkXkXM.r.r.E.qXuX0X|.V.y.y.y.y.7.t.s.u.0.6.f.g.f.h.*.4.x./ ~ kXkXkXkXkXkXkXkXkXkXkXkXkXkXkXkXkX",
"kXkXkXkXkXkXkXkXkXkXkXkXkXkXkXkXkXkXkXi.r.r.s.5X0X3X{.a.r.r.r.y.y.s.1.-.-.=.k.j.f.] 2.2XwX].~ kXkXkXkXkXkXkXkXkXkXkXkXkXkXkXkXkX",
"kXkXkXkXkXkXkXkXkXkXkXkXkXkXkXkXkXkXkXi.r.r.r.].{.[.V.s.y.y.y.y.y.y.e.w.8.p.A.b.h.` h.2XeXXXQ kXkXkXkXkXkXkXkXkXkXkXkXkXkXkXkXkX",
"kXkXkXkXkXkXkXkXkXkXkXkXkXkXkXkXkXkX}.2X0.r.r.N.D.S.F.y.y.y.r.y.V.V.M.9.E.&X4X@Xb.] ( c.G.I ! kXkXkXkXkXkXkXkXkXkXkXkXkXkXkXkXkX",
"kXkXkXkXkXkXkXkXkXkXkXkXkXkXkXkXkXkXoX4Xa.e.r.H.S.N.V.p..X.Xr.s.N.B.x.0.$XeXiX3X].] _ U V Z Q kXkXkXkXkXkXkXkXkXkXkXkXkXkXkXkXkX",
"kXkXkXkXkXkXkXkXkXkXkXkXkXkXkXkXkXkXkXb.w.e.e.t.V.V.S.a..X.Xr.u.B.x.z.i..XwXpX3X`.' ( U V T D kXkXkXkXkXkXkXkXkXkXkXkXkXkXkXkXkX",
"kXkXkXkXkXkXkXkXkXkXkXkXkXkXkXkXkXkXkX).7.w.e.0.5XG.V.V.y.r.w.e.M.z.z.4.a.#X#XXXf.' ( V B / kXkXkXkXkXkXkXkXkXkXkXkXkXkXkXkXkXkX",
"kXkXkXkXkXkXkXkXkXkXkXkXkXkXkXkXkXkXkXkX4.q.9.0.*XG.B.B.M.p.0.i.z.z.c.<.,.,.m.h.' [ R I b Q kXkXkXkXkXkXkXkXkXkXkXkXkXkXkXkXkXkX",
"kXkXkXkXkXkXkXkXkXkXkXkXkXkXkXkXkXkXkXkXv.7.9.9.9.i.z.z.z.z.x.c.l.l.4.,.;.;.` ] ( ) XXG.b Q kXkXkXkXkXkXkXkXkXkXkXkXkXkXkXkXkXkX",
"kXkXkXkXkXkXkXkXkXkXkXkXkXkXkXkXkXkXkXkXkXm.7.7.7.9.5.c.z.n.].b.l.4.,.;.;.:.] ' ) `.eXwX` A kXkXkXkXkXkXkXkXkXkXkXkXkXkXkXkXkXkX",
"kXkXkXkXkXkXkXkXkXkXkXkXkXkXkXkXkXkXkXkXkXQ.4.<.<.7.7.<.N.2XqX.X,.>.;..X:.` ] [ ^ g.2X$X~ D kXkXkXkXkXkXkXkXkXkXkXkXkXkXkXkXkXkX",
"kXkXkXkXkXkXkXkXkXkXkXkXkXkXkXkXkXkXkXkXkXkXoX4X,.,.,.,.A.wXiX&X5.;.:.#Xh.( _ / / C V Z A S kXkXkXkXkXkXkXkXkXkXkXkXkXkXkXkXkXkX",
"kXkXkXkXkXkXkXkXkXkXkXkXkXkXkXkXkXkXkXkXkXkXkXkXh.;.>.>.8.$X2XE.;.;.Y ` ( ) ( }.T B b A S kXkXkXkXkXkXkXkXkXkXkXkXkXkXkXkXkXkXkX",
"kXkXkXkXkXkXkXkXkXkXkXkXkXkXkXkXkXkXkXkXkXkXkXkXkXkX_ 2.=.*.:.*.Y E ` ( ) ^ / / B b m kXkXkXkXkXkXkXkXkXkXkXkXkXkXkXkXkXkXkXkXkX",
"kXkXkXkXkXkXkXkXkXkXkXkXkXkXkXkXkXkXkXkXkXkXkXkXkXkXkXkXQ.` ` ( ) ' | ^ ^ ^ / B v kXkXkXkXkXkXkXkXkXkXkXkXkXkXkXkXkXkXkXkXkXkXkX",
"kXkXkXkXkXkXkXkXkXkXkXkXkXkXkXkXkXkXkXkXkXkXkXkXkXkXkXkXkX| ' { kXkXkXkXkXkX4 z kXkXkXkXkXkXkXkXkXkXkXkXkXkXkXkXkXkXkXkXkXkXkXkX",
"kXkXkXkXkXkXkXkXkXkXkXkXkXkXkXkXkXkXkXkXkXkXkXkXkXkXkXkXkX| { kXkXkXkXkXkXkXkXn kXkXkXkXkXkXkXkXkXkXkXkXkXkXkXkXkXkXkXkXkXkXkXkX",
"kXkXkXkXkXkXkXkXkXkXkXkXkXkXkXkXkXkXkXkXkXkXkXkXkXkXkXkXkX^ ! kXkXkXkXkXkXkXkXC kXkXkXkXkXkXkXkXkXkXkXkXkXkXkXkXkXkXkXkXkXkXkXkX",
"kXkXkXkXkXkXkXkXkXkXkXkXkXkXkXkXkXkXkXkXkXkXkXkXkXkXkXkXkXA kXkXkXkXkXkXkXkXkXY kXkXkXkXkXkXkXkXkXkXkXkXkXkXkXkXkXkXkXkXkXkXkXkX",
"kXkXkXkXkXkXkXkXkXkXkXkXkXkXkXkXkXkXkXkXkXkXkXkXkXkXkXkXkXv kXkXkXkXkXkXkXkXkX;.kXkXkXkXkXkXkXkXkXkXkXkXkXkXkXkXkXkXkXkXkXkXkXkX",
"kXkXkXkXkXkXkXkXkXkXkXkXkXkXkXkXkXkXkXkXkXkXkXkXkXkXkXkXkXz kXkXkXkXkXkXkXkXC ;.i.kXkXkXkXkXkXkXkXkXkXkXkXkXkXkXkXkXkXkXkXkXkXkX",
"kXkXkXkXkXkXkXkXkXkXkXkXkXkXkXkXkXkXkXkXkXkXkXkXkXkXkXkX8 z kXkXkXkXkXkXkXkXI *.7.p.kXkXkXkXkXkXkXkXkXkXkXkXkXkXkXkXkXkXkXkXkXkX",
"kXkXkXkXkXkXkXkXkXkXkXkXkXkXkXkXkXkXkXkXkXkXkXkXkXkXkXkXh h 3 kXkXkXkXkXkXkXM I >.8.0.M.kXkXkXkXkXkXkXkXkXkXkXkXkXkXkXkXkXkXkXkX",
"kXkXkXkXkXkXkXkXkXkXkXkXkXkXkXkXkXkXkXkXkXkXkXkXkX5 4 3 3 3 4 2 7 kXkXkXkXkXkXkX( *._.kXh./ kXkXkXkXkXkXkXkXkXkXkXkXkXkXkXkXkXkX",
"kXkXkXkXkXkXkXkXkXkXkXkXkXkXkXkXkXkXkXkXkX; 1 1 1 1 2 4 2 kXkXkXkXkXkXkXkXkXkXkXkXkXA kXkXkXkXkXkXkXkXkXkXkXkXkXkXkXkXkXkXkXkXkX",
"kXkXkXkXkXkXkXkXkXkXkXkXkXkXkXkXkXkXkXkXkXkXkXkXkXkX1 1 kXkXkXkXkXkXkXkXkXkXkXkXkXkXkXkXkXkXkXkXkXkXkXkXkXkXkXkXkXkXkXkXkXkXkXkX",
"kXkXkXkXkXkXkXkXkXkXkXkXkXkXkXkXkXkXkXkXkXkXkXkXkX; kXkXkXkXkXkXkXkXkXkXkXkXkXkXkXkXkXkXkXkXkXkXkXkXkXkXkXkXkXkXkXkXkXkXkXkXkXkX",
"kXkXkXkXkXkXkXkXkXkXkXkXkXkXkXkXkXkXkXkXkXkXkX@ ; kXkXkXkXkXkXkXkXkXkXkXkXkXkXkXkXkXkXkXkXkXkXkXkXkXkXkXkXkXkXkXkXkXkXkXkXkXkXkX",
"kXkXkXkXkXkXkXkXkXkXkXkXkXkXkXkXkXkXkXkXkXkXkXkXkXkXkXkXkXkXkXkXkXkXkXkXkXkXkXkXkXkXkXkXkXkXkXkXkXkXkXkXkXkXkXkXkXkXkXkXkXkXkXkX",
"kXkXkXkXkXkXkXkXkXkXkXkXkXkXkXkXkXkXkXkXkXkXkXkXkXkXkXkXkXkXkXkXkXkXkXkXkXkXkXkXkXkXkXkXkXkXkXkXkXkXkXkXkXkXkXkXkXkXkXkXkXkXkXkX"
};
