/* XPM */
static char *result[] = {
/* columns rows colors chars-per-pixel */
"64 64 77 1 ",
"  c #020101",
". c #0A0203",
"X c #0B0B0B",
"o c #130203",
"O c #1C0303",
"+ c #141414",
"@ c #1A1A1A",
"# c #230303",
"$ c #2A0303",
"% c #340304",
"& c #3E0405",
"* c #242424",
"= c #2C2B2C",
"- c #343434",
"; c #3F3F3F",
": c #430405",
"> c #4C0405",
", c #530405",
"< c #5B0405",
"1 c #6D0406",
"2 c #750506",
"3 c #7C0405",
"4 c #464646",
"5 c #4B4B4B",
"6 c #545454",
"7 c #5C5C5C",
"8 c #676767",
"9 c #6C6C6C",
"0 c gray45",
"q c #7B7B7B",
"w c #820406",
"e c #8C0406",
"r c #930406",
"t c #9B0506",
"y c #A40506",
"u c #AD0505",
"i c #B40406",
"p c #BD0405",
"a c #BB0909",
"s c #C40405",
"d c #CC0405",
"f c #D30304",
"g c #DB0304",
"h c #D01B1C",
"j c #E60103",
"k c #E80003",
"l c #E40709",
"z c #E40B0B",
"x c #E41414",
"c c #E41A1A",
"v c #E42222",
"b c #E52C2D",
"n c #E42F32",
"m c #E53332",
"M c #E33937",
"N c #E53738",
"B c #DE4343",
"V c #E64342",
"C c #E44C4C",
"Z c #E55353",
"A c #E65658",
"S c #E45C5C",
"D c #E85959",
"F c #E66564",
"G c #E66A67",
"H c #E66B6A",
"J c #E76F70",
"K c #E67372",
"L c #E67876",
"P c #E67E7D",
"I c #E8807F",
"U c #E68382",
"Y c #E68B8A",
"T c #E88E8E",
"R c #E6908F",
"E c #E59594",
"W c None",
/* pixels */
"WWWWWWWWWWWWWWWWWWWWWWWWWWWWWWWWWWWWWWWWWWWWWWWWWWWWWWWWWWWWWWWW",
"WWWWWWWWWWWWWWWWWWWWWWWWWWWWWWWWWWWWWWWWWWWWWWWWWWWWWWWWWWWWWWWW",
"WWWWWWWWWWWWWWWWWWWWWWWWWWWWWWWWWWWWWWWWWWWWWWWWWWWWWWWWWWWWWWWW",
"WWWWWWWWWWWWW9=+X XX*9WWWWWWWWWWWWWWWWWWWW6@X. X+;WWWWWWWWWWWWWW",
"WWWWWWWWWWW+           X6WWWWWWWWWWWWWW4            *WWWWWWWWWWW",
"WWWWWWWWWX     #:,>#.    .WWWWWWWWWWW5     .%>,:O     @WWWWWWWWW",
"WWWWWWW-   .wjkklzzjjje.   =WWWWWWWWX   #ijjjkkkkjf<    7WWWWWWW",
"WWWWWW+   tjzSREEEEEEIbji.  XWWWWWW   Ofjjkkkjkkkkkkj1   -WWWWWW",
"WWWWWX  %jzUEEEEEEEEEEEEVj>  .WWWW   wjkkkkkkkkkkkkkkjg.  -WWWWW",
"WWWW*  <jCEEEEEEEEEEEEYFVbj2  +WW   pkkkkkkkkkkkkkkkkkkjO .5WWWW",
"WWW5  >kKEEEEEEEEEERmjjkkkkk1  -+  ikkkkkkkkkkkkkkkkkkkkko  WWWW",
"WWW  ojHEEEEEEEEEEMjkkkkkkkkk$    3kkkkkkkkkkkkkkkkkkkkkkj  XWWW",
"WW*  gVEEEEEEEEETlkkkkkkkkkkkl   ojkkkkkkkkkkkkkkkkkkkkkkky  7WW",
"WW  <lEEEEEEEEEYjkkjkkkkkkkkkkw  dkjkkkkkkkkkkkkkkkkkkkkkkko  WW",
"W4  lKEEEEEEEERjjkkkkkkkkkkkkkk Okkkkkkkkkkkkkkkkkkkkkkkkkki  WW",
"W. #jEEEEEEEEExjkkkkkkkkkkkkkkk2skkkkkkkkkkkkkkkkkkkkkkkkkkj  -W",
"W  tVEEEEEEEEGkkkkkkkkkkkkkkkkkkkkkkkkkkkkkkkjkkkkkkkkkkjkkk% XW",
"W  gUEEEEEEEEjkkkkkkkkkkkkkkkkkkkkkkkkkkkkjkkkkkkkkkkjkjkkkjr  W",
"6  kEEEEEEEELkkkkkkjlkkkkkkkkkkkkkkkkkkkkjkjkkkjkkkkkkkkkkjks  W",
"5  kEEEEEEEEvkkkkkkkkkkkkkkkkkkkkkkkkkkkkkjkkkkkkkkkkkkkkkkjg  W",
"4  lEEEEEEEEjkkkkkkkkkkkkkkkkkkkkkkkkkkkkkkkkkkkkkkkkkkkkkkkg  W",
"7  jEEEEEEEEkkkkkkkkkkkkkkkkkkkkkkkkkkkkkkkkkkkkkkkkkkkkkkkjd  W",
"8  jEEEEEEERkkkkkkkkkkkkkkkkkkkkkkkkkkkkkkkkkjkkkkkkkkkkkkkkp  W",
"W  gEEEEEEEEkkkkkkkkkkkkkkkkkkkkkkkkjkkjkkjkkkkkkkkkkkkjkkkje  W",
"W  uUEEEEEEEkkkkkkkkkkkkkkkkkkkkkkkkkkkkkkkkkjkkkjkkkjkkkkkj% .W",
"W  >ZEEEEEEEjkkkkkkkkkkkkkkkkkkkkkkkkkkkjjkkkkjkjkkjkkkjkjjk. *W",
"W@ .zEEEEEEElkkkkkkkkkkkkkkkkkkkkkkkkkkkkkkkkkkjkkkkkkkkkkkg  WW",
"W9  fREEEEEEmkkkkkkkkkkkkkkkkkkkkkkkkkkkjkjkjkkkkkjkkjkjjjk,  WW",
"WW  >CEEEEEEIjjkkkkkkkkkkkkkkkkkkkkkkkjkkkkkkkkkkkkkkkkkkkj  *WW",
"WW=  gEEEEEEEjkkkkkkkkkkkkkkkkkkkkkkkkkkkkkjkkjkkjjkjkkkkk2  WWW",
"WWW  ,VEEEEEEmjjkkkkkkkkkkkkkkkkkkkkkkkkkjkkkkkjkkkkkkjjkj  @WWW",
"WWW=  dYEEEEERjjkkkkkkkkkkkkkkkkkkkkkkkkkkkkjkkkjjkkjkjjj%  WWWW",
"WWWW  .zEEEEEExkkkkkkkkkkkkkkkkkkkkkkkkkkkjjkkkkkjkkjkjkt  -WWWW",
"WWWW6  ,mEEEEEUjkkkkkkkkkkkkkkkkkkkkkkkkkjkkkjjkkkkjjkkf  .WWWWW",
"WWWWW@  tZEEEEExkkkkkkkkkkkkkkkkkkkkkkkkkjkjjkjjjkjkkjj   WWWWWW",
"WWWWWW.  pGEEEEYkkkkkkkkkkkkkkkkkkkkkkkkjjjkjkjkjjkjkko  7WWWWWW",
"WWWWWWW   dHEEEEbkkkkkkkkkkkkkkkkkkkkkkkkkkkkkkkkkjjjO  5WWWWWWW",
"WWWWWWWW  .fGEEEEjjkkkkkkkkkkkkkkkkkkkkjjkkkkkkkkkjj#  =WWWWWWWW",
"WWWWWWWWW   dAEEEGjjkkkjkkkkkkkkkkkjkkkkkkkkkkkkkjjO  =WWWWWWWWW",
"WWWWWWWWWW   aVEEEckkkkkkkkkkkjkkkkkkkkjkkkkkkkjkjo  -WWWWWWWWWW",
"WWWWWWWWWWW   ybEEEjjkkkkjkkkkjkkkkjjkkkkkkkkkkkg. .=WWWWWWWWWWW",
"WWWWWWWWWWWW   wcEEJkkkkkkkkkkkkkkkkkkkkkkkkjkjf   5WWWWWWWWWWWW",
"WWWWWWWWWWWWW.  <zEEbkjkkjkkjjkjkkkkkkkkkkkkjjp   6WWWWWWWWWWWWW",
"WWWWWWWWWWWWWWX  %jYElkkkkkkjkkkjjkkkkkkkkkkjt   0WWWWWWWWWWWWWW",
"WWWWWWWWWWWWWWW@  OjIYjjkkkkkkkkkjkkkkkkkkjj2   WWWWWWWWWWWWWWWW",
"WWWWWWWWWWWWWWWW=  .gKGkkkkkkkkkkkkkkkkkjkj,  .WWWWWWWWWWWWWWWWW",
"WWWWWWWWWWWWWWWWW-   fHMkkkkkkkkkkkkkkkkkj&  XWWWWWWWWWWWWWWWWWW",
"WWWWWWWWWWWWWWWWWW5   dGxkkkkkkkkkkkkkkkj$  @WWWWWWWWWWWWWWWWWWW",
"WWWWWWWWWWWWWWWWWWWq   iGjkkkkkkkkkkkkjjO  *WWWWWWWWWWWWWWWWWWWW",
"WWWWWWWWWWWWWWWWWWWWW   uFkkkkkkkkjkkkjO  *WWWWWWWWWWWWWWWWWWWWW",
"WWWWWWWWWWWWWWWWWWWWWW   yDkkkkkkkjkkjO  -WWWWWWWWWWWWWWWWWWWWWW",
"WWWWWWWWWWWWWWWWWWWWWWW   iVkkkjkkkkj#  =WWWWWWWWWWWWWWWWWWWWWWW",
"WWWWWWWWWWWWWWWWWWWWWWWW   avkkkkkkk%  =WWWWWWWWWWWWWWWWWWWWWWWW",
"WWWWWWWWWWWWWWWWWWWWWWWWW   hlkkkkj<  *WWWWWWWWWWWWWWWWWWWWWWWWW",
"WWWWWWWWWWWWWWWWWWWWWWWWWW  .Vjjjke  +WWWWWWWWWWWWWWWWWWWWWWWWWW",
"WWWWWWWWWWWWWWWWWWWWWWWWWWW  .zjjs  XWWWWWWWWWWWWWWWWWWWWWWWWWWW",
"WWWWWWWWWWWWWWWWWWWWWWWWWWW7  %kj   WWWWWWWWWWWWWWWWWWWWWWWWWWWW",
"WWWWWWWWWWWWWWWWWWWWWWWWWWWW=  3#  WWWWWWWWWWWWWWWWWWWWWWWWWWWWW",
"WWWWWWWWWWWWWWWWWWWWWWWWWWWWWX    4WWWWWWWWWWWWWWWWWWWWWWWWWWWWW",
"WWWWWWWWWWWWWWWWWWWWWWWWWWWWWW   +WWWWWWWWWWWWWWWWWWWWWWWWWWWWWW",
"WWWWWWWWWWWWWWWWWWWWWWWWWWWWWW9  WWWWWWWWWWWWWWWWWWWWWWWWWWWWWWW",
"WWWWWWWWWWWWWWWWWWWWWWWWWWWWWWW*6WWWWWWWWWWWWWWWWWWWWWWWWWWWWWWW",
"WWWWWWWWWWWWWWWWWWWWWWWWWWWWWWWWWWWWWWWWWWWWWWWWWWWWWWWWWWWWWWWW",
"WWWWWWWWWWWWWWWWWWWWWWWWWWWWWWWWWWWWWWWWWWWWWWWWWWWWWWWWWWWWWWWW"
};
