/* XPM */
static char *result[] = {
/* columns rows colors chars-per-pixel */
"64 64 232 2 ",
"   c #0A0908",
".  c #141212",
"X  c #1A1919",
"o  c #11100F",
"O  c #221F1F",
"+  c #1B1F21",
"@  c #1C2329",
"#  c #272829",
"$  c #342E28",
"%  c #282E32",
"&  c #2A3134",
"*  c #28333B",
"=  c #383636",
"-  c #3D362C",
";  c #572A17",
":  c #5D3319",
">  c #652D18",
",  c #69361A",
"<  c #75381A",
"1  c #443C38",
"2  c #4F3D2C",
"3  c #783922",
"4  c #6F3622",
"5  c #48423B",
"6  c #564A37",
"7  c #5D523C",
"8  c #53422F",
"9  c #67492E",
"0  c #674C31",
"q  c #68553B",
"w  c #7A5534",
"e  c #724F2E",
"r  c #72411B",
"t  c #2D3941",
"y  c #364751",
"u  c #464341",
"i  c #4C4544",
"p  c #4B4C4C",
"a  c #4B4846",
"s  c #544B47",
"d  c #5A514B",
"f  c #575649",
"g  c #494D57",
"h  c #525556",
"j  c #5A5453",
"k  c #555A5B",
"l  c #5A5B5A",
"z  c #485357",
"x  c #675B45",
"c  c #655C58",
"v  c #7C5C42",
"b  c #776948",
"n  c #6B635A",
"m  c #726853",
"M  c #4E5462",
"N  c #555C6D",
"B  c #565B65",
"V  c #575E70",
"C  c #635F60",
"Z  c #5B6466",
"A  c #5A6476",
"S  c #6B6564",
"D  c #6A6A69",
"F  c #736D6C",
"G  c #736B67",
"H  c #74716D",
"J  c #7B756B",
"K  c #736F71",
"L  c #7A7473",
"P  c #78787A",
"I  c #6A7374",
"U  c #843D1B",
"Y  c #87481C",
"T  c #9B561E",
"R  c #8F4F1D",
"E  c #AD5A1B",
"W  c #B9641E",
"Q  c #A2601F",
"!  c #994826",
"~  c #815633",
"^  c #835834",
"/  c #935839",
"(  c #8F4F2A",
")  c #B25C36",
"_  c #A7542A",
"`  c #A2643C",
"'  c #CF701A",
"]  c #CA5C2A",
"[  c #E76B35",
"{  c #ED7D0D",
"}  c #9D6846",
"|  c #8C7A4E",
" . c #84734C",
".. c #8B7452",
"X. c #A26B47",
"o. c #A97752",
"O. c #AF774F",
"+. c #857A67",
"@. c #837C7B",
"#. c #827976",
"$. c #895C40",
"%. c #C8784E",
"&. c #BB811C",
"*. c #E98B16",
"=. c #F38815",
"-. c #F18009",
";. c #F5A517",
":. c #F7AC0C",
">. c #F79D20",
",. c #E49925",
"<. c #FCC11F",
"1. c #9A8754",
"2. c #A28E57",
"3. c #B8845A",
"4. c #A99459",
"5. c #A5915A",
"6. c #978C73",
"7. c #918D73",
"8. c #BC8661",
"9. c #AB9C79",
"0. c #B29470",
"q. c #BEAA74",
"w. c #C2895B",
"e. c #D28C5D",
"r. c #F28854",
"t. c #C48E63",
"y. c #CF9A72",
"u. c #EA9464",
"i. c #F49767",
"p. c #D9A77E",
"a. c #F0C07D",
"s. c #557092",
"d. c #6A7D8E",
"f. c #507BAD",
"g. c #837E81",
"h. c #2F87B9",
"j. c #798785",
"k. c #7A8E94",
"l. c #5E9CBA",
"z. c #7494BB",
"x. c #2D97D3",
"c. c #3499D3",
"v. c #399AD3",
"b. c #479ED6",
"n. c #58A4D8",
"m. c #68AADB",
"M. c #78B1DF",
"N. c #7CA8D8",
"B. c #8B8482",
"V. c #878688",
"C. c #958C86",
"Z. c #928C8C",
"A. c #988E88",
"S. c #9C958C",
"D. c #889797",
"F. c #9C9594",
"G. c #989898",
"H. c #868D98",
"J. c #A69985",
"K. c #A49B97",
"L. c #B2A78C",
"P. c #8393A1",
"I. c #98A7A5",
"U. c #9BA8B8",
"Y. c #ACA5A2",
"T. c #ABABA5",
"R. c #B3AAA5",
"E. c #B3ADAA",
"W. c #B8AFA6",
"Q. c #B9B2AE",
"!. c #A6ACB1",
"~. c #A7B6B8",
"^. c #B5B4B3",
"/. c #BDB6B3",
"(. c #BAB7B9",
"). c #AFB2AE",
"_. c #91A29F",
"`. c #D2B78B",
"'. c #D0B288",
"]. c #ECB385",
"[. c #E8BC94",
"{. c #F1B084",
"}. c #C3BAB5",
"|. c #C3BDBB",
" X c #C0B7AF",
".X c #DCC797",
"XX c #DECB8E",
"oX c #EACA9A",
"OX c #D5C7A7",
"+X c #CAC2BC",
"@X c #C7C1BD",
"#X c #DBD6B4",
"$X c #E6D2A4",
"%X c #FCD9B8",
"&X c #ECD1AF",
"*X c #FDEDBC",
"=X c #F4E3B4",
"-X c #B3BAC6",
";X c #86B7E3",
":X c #83A2CE",
">X c #BECBC8",
",X c #9BC2E7",
"<X c #B6D1EE",
"1X c #C9C7C6",
"2X c #D3CDC8",
"3X c #D9D2CE",
"4X c #CCCED3",
"5X c #DBD6D2",
"6X c #DAD8D8",
"7X c #CFD0D7",
"8X c #E3DCD7",
"9X c #D9E0DC",
"0X c #FEE2C4",
"qX c #FEF4C3",
"wX c #FFF8C7",
"eX c #E9E3DC",
"rX c #E6E4D8",
"tX c #E9E6D2",
"yX c #C6DBF2",
"uX c #D8DDE6",
"iX c #D6E4F4",
"pX c #D4E5E4",
"aX c #EBE9E7",
"sX c #F4EDE5",
"dX c #F8F4EC",
"fX c #E1ECF9",
"gX c #EDF1F5",
"hX c #F4F4F4",
"jX c #F8F7F6",
"kX c #FEFEFE",
"lX c #F9F9F8",
"zX c None",
/* pixels */
"zXzXzXzXzXzXzXzXzXzXzXzXzXzXzXzXzXzXzXzXzXzXzXzXzXzXzXzXzXzXzXzXzXzXzXzXzXzXzXzXzXzXzXzXzXzXzXzXzXzXzXzXzXzXzXzXzXzXzXzXzXzXzXzX",
"zXzXzXzXzXzXzXzXzXzXzXzXzXzXzXzXzXzXzXzXzXzXzXzXzXzXzXzXzXzXzXzXzXzXzXzXzXx.v.c.zXzXzXzXzXzXzXzXzXzXzXzXzXzXzXzXzXzXzXzXzXzXzXzX",
"zXzXzXzXzXzXzXzXzXzXzXzXzXzXzXzXzXzXzXzXzXzXzXzXzXzXzXzXzXzXzXzXzXzXzXzXzXn.iX<Xv.zXzXzXzXzXzXzXzXzXzXzXzXzXzXzXzXzXzXzXzXzXzXzX",
"zXzXzXzXzXzXzXzXzXzXzXzXzXzXzXzXzXzXzXzXzXzXzXzXzXzXzXzXzXzXzXzXzXzXzXzXc.<XkXkXn.zXzXzXzXzXzXzXzXzXzXzXzXzXzXzXzXzXzXzXzXzXzXzX",
"zXzXzXzXzXzXzXzXzXzXzXzXzXzXzXzXzXzXzXzXzXzXzXzXzXzXzXzXzXzXzXzXzXzXzXzXm.lXkX<Xv.zXzXzXzXzXzXzXzXzXzXzXzXzXzXzXzXzXzXzXzXzXzXzX",
"zXzXzXzXzXzXzXzXzXzXzXzXzXzXzXzXzXzXzXzXzXzXzXzXzXzXzXzXzXzXzXzXzXzXzXv.yXkXlXm.x.zXzXzXzXzXzXzXzXzXzXzXzXzXzXzXzXzXzXzXzXzXzXzX",
"zXzXzXzXzXzXzXzXzXzXzXzXzXzXzXzXzXzXzXzXzXzXzXzXzXzXzXzXzXzXzXzXzXzXx.M.kXkX<Xx.zXzXzXzXzXzXzXzXzXzXzXzXzXzXzXzXzXzXzXzXzXzXzXzX",
"zXzXzXzXzXzXzXzXzXzXzXzXzXzXzXzXzXzXzXzXzXzXzXzXzXzXzXzXzXzXzXzXzXzXv.iXkXfXn.zXzXzXzXzXzXzXzXzXzXzXzXzXzXzXzXzXzXzXzXzXzXzXzXzX",
"zXzXzXzXzXzXzXzXzXzXzXzXzXzXzXzXzXzXzXzXzXzXzXzXzXzXzXzXzXzXzXzXzXc.;XkXkX,Xx.zXzXzXzXzXzXzXzXzXzXzXzXzXzXzXzXzXzXzXzXzXzXzXzXzX",
"zXzXzXzXzXzXzXzXzXzXzXzXzXzXzXzXzXzXzXzXzXzXzXzXzXzXzXzXzXzXzXzXzXb.fXkXfXb.zXzXzXzXzXzXzXzXzXzXzXzXzXzXzXzXzXzXzXzXzXzXzXzXzXzX",
"zXzXzXzXzXzXzXzXzXzXzXzXzXzXzXzXzXzXzXzXzXzXzXzXzXzXzXzXzXzXzXzXx.,XkXkX;Xx.zXzXzXzXzXzXzXzXzXzXzXzXzXzXzXzXzXzXzXzXzXzXzXzXzXzX",
"zXzXzXzXzXzXzXzXzXzXzXzXzXzXzXzXzXzXzXzXzXzXzXzXzXzXzXzXzXzXzXzXn.gXlXiXv.zXzXzXzXzXzXzXzXzXzXzXzXzXzXzXzXzXzXzXzXzXzXzXzXzXzXzX",
"zXzXzXzXzXzXzXzXzXzXzXzXzXzXzXzXzXzXzXzXzXzXzXzXzXzXzXzXzXzX;.*.&.' Q Q T &.zXzXzXzXzXzXzXzXzXzXzXzXzXzXzXzXzXzXzXzXzXzXzXzXzXzX",
"zXzXzXzXzXzXzXzXzXzXzXzXzXzXzXzXzXzXzXzXzXzXzXzXzXzXzXzX<.=.' ' W ' E Q R , : zXzXzXzXzXzXzXzXzXzXzXzXzXzXzXzXzXzXzXzXzXzXzXzXzX",
"zXzXzXzXzXzXzXzXzXzXzXzXzXzXzXzXzXzXzXzXzXzXzXzXzXzXzX;.-.-.' ] E T Y < : : : : zXzXzXzXzXzXzXzXzXzXzXzXzXzXzXzXzXzXzXzXzXzXzXzX",
"zXzXzXzXzXzXzXzXzXzXzXzXzXzXzXzXzXzXzXzXzXzXzXzXzXzX:.>.;.=.' W T Y U < , , : : R zXzXzXzXzXzXzXzXzXzXzXzXzXzXzXzXzXzXzXzXzXzXzX",
"zXzXzXzXzXzXzXzXzXzXzXzXzXzXzXzXzXzXzXzXzXzXzXzXzXzX=.>.>.( ; > < < < , > ; < : ; r zXzXzXzXzXzXzXzXzXzXzXzXzXzXzXzXzXzXzXzXzXzX",
"zXzXzXzXzXzXzXzXzXzXzXzXzXzXzXzXzXzXzXzXzXzXzXzXzX;.=.' , r ! Y / X.X.( 3 > > , ; < zXzXzXzXzXzXzXzXzXzXzXzXzXzXzXzXzXzXzXzXzXzX",
"zXzXzXzXzXzXzXzXzXzXzXzXzXzXzXzXzXzXzXzXzXzXzXzXzX:.E U ! _ e.{.%Xi.] %.3.O.( 4 < zXzXzXzXzXzXzXzXzXzXzXzXzXzXzXzXzXzXzXzXzXzXzX",
"zXzXzXzXzXzXzXzXzXzXzXzXzXzXzXzXzXzXzXzXzXzXzXzXzX:.< ` p.&X0.X.0X%X$ o 3.w.X.} ; zXzXzXzXzXzXzXzXzXzXzXzXzXzXzXzXzXzXzXzXzXzXzX",
"zXzXzXzXzXzXzXzXzXzXzXzXzXzXzXzXzXzXzXzXzXzXzXzXzXzXT [.oX&X$ i 0X%X0.  t.%.$.} e zXzXzXzXzXzXzXzXzXzXzXzXzXzXzXzXzXzXzXzXzXzXzX",
"zXzXzXzXzXzXzXzXzXzXzXzXzXzXzXzXzXzXzXzXzXzXzXzXzXzX7.oX{.%X0X#X0X&Xy.y.t.t./ X.} zXzXzXzXzXzXzXzXzXzXzXzXzXzXzXzXzXzXzXzXzXzXzX",
"zXzXzXzXzXzXzXzXzXzXzXzXzXzXzXzXzXzXzXzXzXzXzXzXzXzXm.].r.0X%X{.] ) %.) ) t.4 o.8.zXzXzXzXzXzXzXzXzXzXzXzXzXzXzXzXzXzXzXzXzXzXzX",
"zXzXzXzXzXzXzXzXzXzXzXzXzXzXzXzXzXzXzXzXzXzXzXzXzXc.<Xa.%.%Xi.r.+.n G.$.! _ 3 o.t.zXzXzXzXzXzXzXzXzXzXzXzXzXzXzXzXzXzXzXzXzXzXzX",
"zXzXzXzXzXzXzXzXzXzXzXzXzXzXzXzXzXzXzXzXzXzXzXzXzXM.lXsXu.[ [ u.&X'.y./ U g.P.P.j.y * * zXzXzXzXzXzXzXzXzXzXzXzXzXzXzXzXzXzXzXzX",
"zXzXzXzXzXzXzXzXzXzXzXzXzXzXzXzXzXzXzXzXzXzXzXzXv.yXkXdX].[ [ ! _ ! ! ! 3 ~ = @ + + @ @ zXzXzXzXzXzXzXzXzXzXzXzXzXzXzXzXzXzXzXzX",
"zXzXzXzXzXzXzXzXzXzXzXzXzXzXzXzXzXzXzXzXzXzXzXl.M.kXkX,X[.].u.8.t.y.'.y.8.X.} % # % # y t zXzXzXzXzXzXzXzXzXzXzXzXzXzXzXzXzXzXzX",
"zXzXzXzXzXzXzXzXzXzXzXzXzXzXzXzXzXzXzXzXzXzX6.).G jXfXb.zX].8.o.O.o.} / +.J.$.H.j.j.j.D.@ gXN.zXzXzXzXzXzXzXzXzXzXzXzXzXzXzXzXzX",
"zXzXzXzXzXzXzXzXzXzXzXzXzXzXzXzXzXzXzXzXzX+.^.G }.kX1Xh.zXzX[.'..X#XaX>X(.1X_.k.P.I.I.~.@ k z.f.:XzXzXzXzXzXzXzXzXzXzXzXzXzXzXzX",
"zXzXzXzXzXzXzXzXzXzXzXzXzXzXzXzXzXzXzXzXm J.P +.kXhXI # zXtX9X1XkXkXgXI.g z B I t * y y @ h j.s.f.z.zXzXzXzXzXzXzXzXzXzXzXzXzXzX",
"zXzXzXzXzXzXzXzXzXzXzXzXzXzXzXzXzXzXzXzXs = o |.kXaXl zXtXpXhX4XkXkXlXD.y & % % t * @ * % P B A A s.zXzXzXzXzXzXzXzXzXzXzXzXzXzX",
"zXzXzXzXzXzXzXzXzXzXzXzXzXzXzXzXzXzXzXzXD i X F.# G.$ zXpXlXkX6XkXkXlX9.XX9.m 5 I !.!.g.P Z B k B M H.zXzXzXzXzXzXzXzXzXzXzXzXzX",
"zXzXzXzXzXzXzXzXzXzXzXzXzXzXzXzXzXzXzXzX1 $ E.gX  1 # zX$XOXeXD.Z t J..X.X'.1.b z _.G.V.V.D B l h p zXzXzXzXzXzXzXzXzXzXzXzXzXzX",
"zXzXzXzXzXzXzXzXzXzXzXzXzXzXzXzXzXzXzX+.T.j lX1 # s 1 zX*X*XqXH & L.=X'..X.X2.| 5 5 k k h k k p p I zXzXzXzXzXzXzXzXzXzXzXzXzXzX",
"zXzXzXzXzXzXzXzXzXzXzXzXzXzXzXzXzXzX= 1 1 B 9XX 1 zXzX$X*XqXwX#X& *X=X'..X.X4.1.x 6 5 5 6 zXzXzXzXzXzXzXzXzXzXzXzXzXzXzXzXzXzXzX",
"zXzXzXzXzXzXzXzXzXzXzXzXzXzXzXzXzXj.. 5 1 kXg O zXzXzX.X*X*XwXwX& *X=X$X$XXX4.2.1.q 6 8 6 zXzXzXzXzXzXzXzXzXzXzXzXzXzXzXzXzXzXzX",
"zXzXzXzXzXzXzXzXzXzXzXzXzXzXzXzXzX= X p 1Xj.  X zXzX-X'.qX=XwX*X7.qX$X=X6.m 4.4.1.b q q f zXzXzXzXzXzXzXzXzXzXzXzXzXzXzXzXzXzXzX",
"zXzXzXzXzXzXzXzXzXzXzXzXzXzXzXzXk . 5 s hXX   $ P.U.!.'.*XqXqX#X7.m 7 0 q 7 4.4.1.| b x q zXzXzXzXzXzXzXzXzXzXzXzXzXzXzXzXzXzXzX",
"zXzXzXzXzXzXzXzXzXzXzXzXzXzXzXzXX # u 8XG.    h I j.S.0 1 0 w ~ w w w ^ w 6 4.4.2.| b b b zXzXzXzXzXzXzXzXzXzXzXzXzXzXzXzXzXzXzX",
"zXzXzXzXzXzXzXzXzXzXzXzXzXzXzXzXP d d kXB   $ p B n +.0 9 w ~ >XpXw ^ ^ 2 0 4.4.2.1.|  .b zXzXzXzXzXzXzXzXzXzXzXzXzXzXzXzXzXzXzX",
"zXzXzXzXzXzXzXzXzXzXzXzXzXzX5 (.^.c u Z.% o I p l p x e e e e $.w w w w m L.5.5.5.1.1.| b zXzXzXzXzXzXzXzXzXzXzXzXzXzXzXzXzXzXzX",
"zXzXzXzXzXzXzXzXzXzXzXzXzXzXzXL.G W.1XhX# g ).D n j 2 2 0 e  .9.#XlXkXkXkXlXJ L I Z Z m 1.zXzXzXzXzXzXzXzXzXzXzXzXzXzXzXzXzXzXzX",
"zXzXzXzXzXzXzXzXzXzXzXzXzXzX7.T.c kXhXF = zXzXzXzXzXdXlXkXkXkXkXkXkXkXkXkXlX7.L D f f k h zXzXzXzXzXzXzXzXzXzXzXzXzXzXzXzXzXzXzX",
"zXzXzXzXzXzXzXzXzXzXzXzXzXzXo o 5 jX1X= G.zXzXzXzXzXkXkXkXkXkXkXkXkXkXdX#X9.m x 8 5 5 5 h zXzXzXzXzXzXzXzXzXzXzXzXzXzXzXzXzXzXzX",
"zXzXzXzXzXzXzXzXzXzXzXzXzXzXzX= # = F & zXzXzXzXzXzXkXkXlXtXOX9.1. .6 - $ - i S V.Z g y s zXzXzXzXzXzXzXzXzXzXzXzXzXzXzXzXzXzXzX",
"zXzXzXzXzXzXzXzXzXzXzXzXzXzXzXzXG S.I zXzXzXzXzXzXzX6.+.c d s c XXL.d i u s F G.(.y g z zXzXzXzXzXzXzXzXzXzXzXzXzXzXzXzXzXzXzXzX",
"zXzXzXzXzXzXzXzXzXzXzXzXzXzXzXzXzXzXzXzXzXzXzXzXzXzXQ.F.@.F S L kX6.j i i j L R.>XM M M M zXzXzXzXzXzXzXzXzXzXzXzXzXzXzXzXzXzXzX",
"zXzXzXzXzXzXzXzXzXzXzXzXzXzXzXzXzXzXzXzXzXzXzXzXzXzX|.Y.C.#.G #.kX6.F j j S B.(.(.Z N M N zXzXzXzXzXzXzXzXzXzXzXzXzXzXzXzXzXzXzX",
"zXzXzXzXzXzXzXzXzXzXzXzXzXzXzXzXzXzXzXzXzXzXzXzXzXzX2XR.Z.#.K L qXL.S.#.J @.K.}.^.N N N N zXzXzXzXzXzXzXzXzXzXzXzXzXzXzXzXzXzXzX",
"zXzXzXzXzXzXzXzXzXzXzXzXzXzXzXzXzXzXzXzXzXzXzXzXzXzX|.K.Z.@.L G XX'.R.K.A.K.K.W.^.N N N N zXzXzXzXzXzXzXzXzXzXzXzXzXzXzXzXzXzXzX",
"zXzXzXzXzXzXzXzXzXzXzXzXzXzXzXzXzXzXzXzXzXzXzXzXzXzXR.S.6.#.F G m y.W.Y.K.K.K.K.K.B V N N zXzXzXzXzXzXzXzXzXzXzXzXzXzXzXzXzXzXzX",
"zXzXzXzXzXzXzXzXzXzXzXzXzXzXzXzXzXzXzXzXzXzXzXzXzXzXC.7.#.J G n p 5.J.A.C.C.A.A.C.L N N N zXzXzXzXzXzXzXzXzXzXzXzXzXzXzXzXzXzXzX",
"zXzXzXzXzXzXzXzXzXzXzXzXzXzXzXzXzXzXzXzXzXzXzXzXzXzXdX8X+X X X Xn 5 J.sXeX8X8X8X5X1XN V V zXzXzXzXzXzXzXzXzXzXzXzXzXzXzXzXzXzXzX",
"zXzXzXzXzXzXzXzXzXzXzXzXzXzXzXzXzXzXzXzXzXzXzXzXzXzXlXaX5X+X}. XS s 1XlXdXsXsX8X8X5XV N N zXzXzXzXzXzXzXzXzXzXzXzXzXzXzXzXzXzXzX",
"zXzXzXzXzXzXzXzXzXzXzXzXzXzXzXzXzXzXzXzXzXzXzXzXzXzXjXsX5X+X}.W.c d ).aXaXeX8X8X6X5XN N V N zXzXzXzXzXzXzXzXzXzXzXzXzXzXzXzXzXzX",
"zXzXzXzXzXzXzXzXzXzXzXzXzXzXzXzXzXzXzXzXzXzXzXzXzXjXjXaX2X|. XY.j s Z.3X2X3X5X5X6X6XN V N N zXzXzXzXzXzXzXzXzXzXzXzXzXzXzXzXzXzX",
"zXzXzXzXzXzXzXzXzXzXzXzXzXzXzXzXzXzXzXzXzXzXzXzXzXjXhXeX2X|.Q.K.s u P Q.E.Q.|.2X5X5XV V V N zXzXzXzXzXzXzXzXzXzXzXzXzXzXzXzXzXzX",
"zXzXzXzXzXzXzXzXzXzXzXzXzXzXzXzXzXzXzXzXzXzXzXzXzXjXgXeX3X|.Q.K.s u C F.Z.F.R.1X5X6XV V V N zXzXzXzXzXzXzXzXzXzXzXzXzXzXzXzXzXzX",
"zXzXzXzXzXzXzXzXzXzXzXzXzXzXzXzXzXzXzXzXzXzXzXzXfXuXuX4X2X|.!.P a 1 K g.L g.K.-X7XuXA V N N zXzXzXzXzXzXzXzXzXzXzXzXzXzXzXzXzXzX",
"zXzXzXzXzXzXzXzXzXzXzXzXzXzXzXzXzXzXzXzXzXzXzXkXlXeX2X1X|.^.g.s a L G.Z.g.Z.K.^.7XA N N N N zXzXzXzXzXzXzXzXzXzXzXzXzXzXzXzXzXzX",
"zXzXzXzXzXzXzXzXzXzXzXzXzXzXzXzXzXzXzXzXzXzXzXdXsX3X2X|.(.E.P a i F.g.@.@.L g.Q.+XV V V V N zXzXzXzXzXzXzXzXzXzXzXzXzXzXzXzXzXzX",
"zXzXzXzXzXzXzXzXzXzXzXzXzXzXzXzXzXzXzXzXzXzXzXeX5X2X@X|.(.E.K a u C.B.@.L K g.Y.|.V B V V B zXzXzXzXzXzXzXzXzXzXzXzXzXzXzXzXzXzX",
"zXzXzXzXzXzXzXzXzXzXzXzXzXzXzXzXzXzXzXzXzXzXzX+X|.Q.Q.E.R.K.S a zXR.B.@.#.#.g.R./.A N B zXzXzXzXzXzXzXzXzXzXzXzXzXzXzXzXzXzXzXzX",
"zXzXzXzXzXzXzXzXzXzXzXzXzXzXzXzXzXzXzXzXzXzXzXzXzXzXzXzXzXzXzXzXzXzXzXzXzXzXzXzXzXzXzXzXzXzXzXzXzXzXzXzXzXzXzXzXzXzXzXzXzXzXzXzX"
};
