/* XPM */
static char *result[] = {
/* columns rows colors chars-per-pixel */
"64 64 200 2 ",
"   c #070603",
".  c #150F09",
"X  c #120D07",
"o  c #1D140D",
"O  c #2D0101",
"+  c #330101",
"@  c #3B0101",
"#  c #3C0C08",
"$  c #3C130B",
"%  c #231A12",
"&  c #271B13",
"*  c #381D1D",
"=  c #2E2418",
"-  c #332E1D",
";  c #302318",
":  c #38321F",
">  c #3C3622",
",  c #3F2626",
"<  c #440101",
"1  c #4B0101",
"2  c #410F0A",
"3  c #540101",
"4  c #5C0101",
"5  c #4A1E16",
"6  c #521A15",
"7  c #630101",
"8  c #6C0101",
"9  c #730000",
"0  c #7B0000",
"q  c #77090A",
"w  c #6D1313",
"e  c #54331C",
"r  c #473929",
"t  c #5A3A21",
"y  c #543E3E",
"u  c #6C2021",
"i  c #4E4226",
"p  c #4E462C",
"a  c #52452A",
"s  c #5C4D2C",
"d  c #50462A",
"f  c #4C4033",
"g  c #574A36",
"h  c #64492A",
"j  c #6A552E",
"k  c #665531",
"l  c #6C5B34",
"z  c #6E5B35",
"x  c #755D33",
"c  c #71572F",
"v  c #756136",
"b  c #7A6436",
"n  c #746239",
"m  c #7A6639",
"M  c #7D6A3C",
"N  c #594040",
"B  c #685B46",
"V  c #7B6B45",
"C  c #796E5F",
"Z  c #830000",
"A  c #8C0000",
"S  c #940000",
"D  c #9B0000",
"F  c #9E1F1F",
"G  c #A30000",
"H  c #AC0001",
"J  c #B40000",
"K  c #BB0000",
"L  c #AB1515",
"P  c #BB1515",
"I  c #992727",
"U  c #9D3131",
"Y  c #AA3232",
"T  c #A13333",
"R  c #B33A3A",
"E  c #B83839",
"W  c #B12929",
"Q  c #C30000",
"!  c #CB0001",
"~  c #C30A0A",
"^  c #CC0808",
"/  c #D30101",
"(  c #DC0000",
")  c #D40B0C",
"_  c #DD0E0F",
"`  c #C81414",
"'  c #D91717",
"]  c #E30001",
"[  c #C72525",
"{  c #D62829",
"}  c #CF3030",
"|  c #DA3A3A",
" . c #E52727",
".. c #E0393A",
"X. c #836D3C",
"o. c #87713F",
"O. c #A85858",
"+. c #816D42",
"@. c #857243",
"#. c #8A7543",
"$. c #8E7945",
"%. c #8E7B4A",
"&. c #867248",
"*. c #917C46",
"=. c #937E4A",
"-. c #827450",
";. c #B06F6F",
":. c #DA4848",
">. c #C95859",
",. c #DA5050",
"<. c #E15757",
"1. c #E84B4C",
"2. c #C47E7E",
"3. c #D57E7E",
"4. c #EC6C6D",
"5. c #96814C",
"6. c #99844D",
"7. c #9F884F",
"8. c #9D8751",
"9. c #9E8951",
"0. c #9E8A58",
"q. c #A38D53",
"w. c #A48E59",
"e. c #A79056",
"r. c #A99257",
"t. c #AC945A",
"y. c #AC965A",
"u. c #B49B5E",
"i. c #B1975C",
"p. c #8D8061",
"a. c #8E8171",
"s. c #998861",
"d. c #B69D60",
"f. c #B89F61",
"g. c #A3937F",
"h. c #BCA363",
"j. c #C1A665",
"k. c #C4A967",
"l. c #C5AA69",
"z. c #C9AE6B",
"x. c #CDB16D",
"c. c #D2B56F",
"v. c #D4B671",
"b. c #D5B973",
"n. c #DABC74",
"m. c #DBBF7A",
"M. c #CDB370",
"N. c #DEC17A",
"B. c #DEC177",
"V. c #E0C177",
"C. c #E4C57A",
"Z. c #E6C97D",
"A. c #ECCC7D",
"S. c #F0CF7E",
"D. c #F2D07F",
"F. c #E9D07F",
"G. c #9A9A9A",
"H. c #8D8D8D",
"J. c #AC8989",
"K. c #ACA08F",
"L. c #ADAAAA",
"P. c #A9A5A5",
"I. c #B5B4B4",
"U. c #B9B5B6",
"Y. c #BCBBBB",
"T. c #CB9392",
"R. c #E69596",
"E. c #C0BEBE",
"W. c #C7B8B8",
"Q. c #D5B6B7",
"!. c #CCA5A5",
"~. c #F1BBBB",
"^. c #E8B4B5",
"/. c #F5D380",
"(. c #F9D682",
"). c #FDDA84",
"_. c #C4C3C4",
"`. c #CCCBCB",
"'. c #C9C7C7",
"]. c #D1CCCD",
"[. c #D1CFD0",
"{. c #D4D3D3",
"}. c #D8D5D6",
"|. c #DCDBDB",
" X c #E9C6C5",
".X c #F3C8C9",
"XX c #E1DEDE",
"oX c #EADCDA",
"OX c #E1E0DF",
"+X c #E1DFE0",
"@X c #E4E3E3",
"#X c #E9E6E7",
"$X c #EBE7E8",
"%X c #EDEBEB",
"&X c #EBE9E5",
"*X c #F1EEEE",
"=X c #F1EFF0",
"-X c #F6F4F5",
";X c #F8F5F6",
":X c None",
/* pixels */
":X:X:X:X:X:X:X:X:X:X:X:X:X:X:X:X:X:X:X:X:X:X:X:X:X:X:X:X:X:X:X:X:X:X:X:X:X:X:X:X:X:X:X:X:X:X:X:X:X:X:X:X:X:X:X:X:X:X:X:X:X:X:X:X",
":X:X:X:X:X:X:X:X:X:X:X:X:X:X:X:X:X:X:X:X:X:X:X:X:X:X:X:X:X:X:X:X:X:X:X:X:X:X:X:X:X:X:X:X:X:X:X:X:X:X:X:X:X:X:X:X:X:X:X:X:X:X:X:X",
":X:X:X:X:X:X:X:X:X:X:X:X:X:X:X:X:X:X:X:X:X:X:X:X:X:X:X:X:X:X:X:X:X:X:X:X:X:X:X:X:X:X:X:X:X:X:X:X:X:X:X:X:X:X:X:X:X:X:X:X:X:X:X:X",
":X:X:X:X:X:X:X:X:X:X:X:X:X:X:X:X:X:X:X:X:X:X:X:X:X:X:X:X:X:X:X:X:X:X:X:X:X:X:X:X:X:X:X:X:X:X:X:X:X:X:X:X:X:X:X:X:X:X:X:X:X:X:X:X",
":X:X:X:X:X:X:X:X:X:X:X:X:X:X:X:X:X:X:X:X:X:X:X:X:X:X:X:X{ { ) ) ) ) ' ` } :X:X:X:X:X:X:X:X:X:X:X:X:X:X:X:X:X:X:X:X:X:X:X:X:X:X:X",
":X:X:X:X:X:X:X:X:X:X:X:X:X:X:X:X:X:X:X:X:X:X:X:X' ( ( ] ] ] | <.<.:.' ! ! ! ! ~ [ :X:X:X:X:X:X:X:X:X:X:X:X:X:X:X:X:X:X:X:X:X:X:X",
":X:X:X:X:X:X:X:X:X:X:X:X:X:X:X:X:X:X:X:X:X' ] ] ] ]  ..X;X;X;X-X;X-X%X%XoX,./ / ! Q ` :X:X:X:X:X:X:X:X:X:X:X:X:X:X:X:X:X:X:X:X:X",
":X:X:X:X:X:X:X:X:X:X:X:X:X:X:X:X:X:X:X_ ] ] ] ]  .*X;X;X;X;X;X;X-X-X-X=X#X%X%X,./ ! ! Q ~ :X:X:X:X:X:X:X:X:X:X:X:X:X:X:X:X:X:X:X",
":X:X:X:X:X:X:X:X:X:X:X:X:X:X:X:X:X{ ( ] ] ] ] R.-X-X;X-X;X;X;X;X-X;X-X-X-X-X%X%X]./ / ! ! Q P :X:X:X:X:X:X:X:X:X:X:X:X:X:X:X:X:X",
":X:X:X:X:X:X:X:X:X:X:X:X:X:X:X:X_ ] ] ] ] ] .X;X-X;X-X;X;X;X;X-X;X-X-X-X-X-X-X-X=X&X/ / ! ! Q K :X:X:X:X:X:X:X:X:X:X:X:X:X:X:X:X",
":X:X:X:X:X:X:X:X:X:X:X:X:X:X:X( ] ] ] ] ] ~.;X;X;X-X;X-X;X;X-X-X;X-X-X-X-X-X-X-X-X*X$X/ / ! ! Q K E :X:X:X:X:X:X:X:X:X:X:X:X:X:X",
":X:X:X:X:X:X:X:X:X:X:X:X:X:X/ ( ] ] ] ] 4.;X;X;X-X;X-X;X;X;X-X-X-X-X;X-X-X-X-X-X-X-X*X X/ ! ! ! Q K Y :X:X:X:X:X:X:X:X:X:X:X:X:X",
":X:X:X:X:X:X:X:X:X:X:X:X:X/ ( ] ] ] ] ] -X;X-X;X;X-X;X-X-X;X-X;X;X-X;X-X;X-X;X-X-X=X*X*X| / ! ! Q Q K R :X:X:X:X:X:X:X:X:X:X:X:X",
":X:X:X:X:X:X:X:X:X:X:X:X/ ( ( ] ] ] ] ~.-X-X;X-X-X;X-X;X;X;X;X-X;X-X-X;X-X;X;X;X-X-X-X=X$X/ / ! ! Q K J Y :X:X:X:X:X:X:X:X:X:X:X",
":X:X:X:X:X:X:X:X:X:X:X/ ( ( ] ] ] ] _ -X;X-X-X;X-X;X-X;X;X;X;X;X;X;X;X;X;X-X;X;X-X-X=X=X*X{ / ! ! ! Q K J :X:X:X:X:X:X:X:X:X:X:X",
":X:X:X:X:X:X:X:X:X:X^ / ( ( ( ] ( ( 1.-X-X;X;X-X;X-X;X-X;X;X;X;X;X;X;X;X-X-X;X-X-X-X-X*X*X^./ / ! Q Q K J H :X:X:X:X:X:X:X:X:X:X",
":X:X:X:X:X:X:X:X:X[ / ( ( ( ] ] ] ( ~.;X;X;X;X;X-X;X;X;X-X;X-X-X;X;X;X;X-X-X-X-X-X-X-X=X-X$X/ ! ! ! Q Q K J G :X:X:X:X:X:X:X:X:X",
":X:X:X:X:X:X:X:X:X} / / ( ( ( ( ( ] *X;X;X;X;X;X-X-X-X-X-X-X-X-X-X-X-X-X-X-X-X-X-X-X=X-X%X%X/ / ! ! Q Q K K H `.:X:X:X:X:X:X:X:X",
":X:X:X:X:X:X:X:X@XR./ ( ( ( ( ( ( ( ;X;X-X;X;X;X-X-X-X-X-X-X-X-X-X-X;X-X-X-X-X-X*X*X*X%X%X%X) ! ! ! Q Q Q J Y `.:X:X:X:X:X:X:X:X",
":X:X:X:X:X:X:X|.&XOX/ / / ( / ( ( ( ;X-X-X-X-X-X=X-X=X=X=X-X*X=X=X-X=X-X=X=X=X=X-X%X-X%X%X#X) ! ! ! Q Q Q K 2.{._.:X:X:X:X:X:X:X",
":X:X:X:X:X:X:X@X#X%X! / / ( / ( / ( *X-X-X-X=X=X=X*X*X%X*X=X*X=X=X=X=X=X=X=X=X=X%X*X%X%X$X#X^ ! ! Q Q Q K K Q.}.`.:X:X:X:X:X:X:X",
":X:X:X:X:X:X}.@X#X%X! / / / / / / / oX-X%X*X*X%X%X%X$X%X%X%X%X*X=X%X%X=X%X*X*X%X%X$X%X#X#X@X! ! ! Q Q Q K J {.{.`.E.:X:X:X:X:X:X",
":X:X:X:X:X:X|.@X@X%X! / / / / / / / R.%X%X%X#X#X@X#X@X#X$X#X$X#X#X%X%X%X%X#X%X%X#X#X#X#X@XXX! ! ! Q Q Q K K |.}.[.'.:X:X:X:X:X:X",
":X:X:X:X:X:X|.@X#X#X^ ! / ! ! ! / ! [ #X@X@X@X@X@X@X@X@X@X#X#X@X#X#X#X#X#X#X@X@X#X@X@X+X@X3.Q Q Q Q K K K K |.{.`.'.Y.:X:X:X:X:X",
":X:X:X:X:X{.@X@X@X@X~ Q ! ! ! ! ! ! ! @XXXOXXXXX|.XX|.@X+X+X@X@X@X@X+XOXOX+XOXOX@XXX|.+X|.~ Q Q Q Q K K K J |.}.{.`.Y.:X:X:X:X:X",
":X:X:X:X:X{.|.@X@X@X^ Q Q ! ! ! ! Q Q >.|.|.|.|.}.}.}.|.|.|.|.|.|.|.|.OXOX|.|.|.|.|.|.}.Q.Q Q Q K K K K J J }.{.`.`.E.:X:X:X:X:X",
":X:X:X:X:X{.|.OXOXOXQ Q Q Q Q Q Q Q Q Q {.}.{.{.{.{.{.{.}.}.}.}.}.{.{.|.}.}.}.}.{.{.{.{.~ K Q K K K K K K J ].{.[.'._.I.:X:X:X:X",
":X:X:X:X'.{.|.|.OXOXQ Q Q Q Q K Q K K K P ].`.`.`.`.{.].[.[.[.{.{.{.{.{.{.{.[.{.[.{.].>.K K K K K K J J J J !.{.[.`._.I.:X:X:X:X",
":X:X:X:X'.{.{.OX|.{.K Q K K K K K K K J J E _.'.`.'.'.`.'.].`.`.`.`.[.`.`.`.`.`.`.`.T.K K J K J J J J J J H ;.[.`.'._.U.:X:X:X:X",
":X:X:X:X'.[.{.{.}.!.K K K K J K J J J J J J R _._._._._._._._._._._.'.'.'.'.'._._.2.J J J J J J J H H J J H P ].`.'.E.I.:X:X:X:X",
":X:X:X:X'.`.{.{.{.E K J J J J J H H H H H G H L U.W.Y.Y.W.Y.E.E.E.E.E.E.E.E.E.E.R H J H J H H H J H H H H H G [.`._.Y.U._.:X:X:X",
":X:X:X:XE.`.`.[.[.J J H H H H H H H G G G G G G G O.I.I.I.U.U.U.U.U.U.U.U.Y.;.G H G H H H H H H H G H H G G G Y.'._.Y.Y._.:X:X:X",
":X:X:X:XY._.`.`.W.H H H H G G G G D G D D D D D D D D F ;.P.P.L.L.L.L.J.T D D D D G G G G G G G G G G G G G D Y _._.I.Y._.:X:X:X",
":X:X:X:XY.Y._._.Y H G G G G G D D D D S D S S S S A A A Z A A A A A A S A S S S S D D D D G G D G D G G D D D D _.Y.Y.Y._.:X:X:X",
":X:X:X:XI.U.Y.Y.G G D D D D D S S A A A Z Z Z Z 0 0 0 0 0 q 9 0 0 0 Z 0 Z Z Z Z A A A S D S D D D D D D D D S D O.U.Y.Y._.:X:X:X",
":X:X:X:XL.L.I.U D D S D S A A A Z Z Z 0 0 9 9 9 9 8 8 8 8 8 8 8 8 8 8 9 9 9 9 0 0 0 Z Z Z A A A A A S A S S A A Z Y.Y._.'.:X:X:X",
":X:X:X:XP.P.G.A A A A A Z Z Z 0 0 9 9 8 7 7 7 4 4 4 7 4 4 7 4 7 4 7 7 7 7 8 8 8 9 9 9 9 0 0 Z Z Z Z Z A A A A A A I Y._.:X:X:X:X",
":X:X:X:XG.G.Z Z Z Z Z 0 0 0 9 9 8 7 7 7 4 4 3 4 3 3 3 3 3 3 4 3 4 4 4 4 4 7 7 7 7 8 8 8 9 9 9 9 0 0 0 Z Z Z A A A D ;.'.:X:X:X:X",
":X:X:X:XH.q 0 0 9 0 9 9 8 8 7 4 4 4 3 3 3 1 1 1 1 1 1 1 1 3 1 3 1 3 4 3 4 4 4 4 4 4 7 7 7 8 8 9 9 9 0 0 Z Z A A S D D J.:X:X:X:X",
":X:X:X:Xu 8 9 8 8 8 8 8 7 4 4 3 1 1 1 < < 1 < < 1 1 1 1 1 1 1 < 1 1 1 1 1 3 3 3 4 4 4 7 4 7 7 8 8 9 9 0 0 Z A A A D D G :X:X:X:X",
":X:X:X:X:X3 7 7 4 4 4 4 3 1 1 < 1 < < 1 1 < 1 < < @ @ @ @ + @ # # @ + @ @ < < < 1 1 3 4 4 7 7 7 8 8 9 9 0 Z A A S D D W :X:X:X:X",
":X:X:X:X:X< 1 1 3 1 1 < < @ < @ < < < < < < @ @ $ t c x b b b b m m m m b v h 5 @ < < 1 1 3 4 4 7 7 8 9 9 Z Z A S D G :X:X:X:X:X",
":X:X:X:X:X5 @ < @ @ @ + + @ @ < < < < < @ 5 j n m M X.o.#.$.*.*.5.*.*.*.5.o.o.X.X.b t @ @ < 1 3 4 4 7 9 9 0 Z S D D L :X:X:X:X:X",
":X:X:X:X:X:X+ + + O O + + @ @ @ @ @ @ t n b X.#.$.5.n 9.q.q.e.e.e.y.r.r.r.7.o.7.6.*.o.m x 2 @ < 1 3 4 7 9 0 Z A S D :X:X:X:X:X:X",
":X:X:X:X:X:X:X+ O O O O + @ @ @ @ e v b o.*.6.e.r.% K.#.d.u.u.h.f.h.h.h.h.f C r.i.r.q.6.o.o.v @ # @ 1 4 7 9 Z A D Y :X:X:X:X:X:X",
":X:X:X:X:X:X:XN + O O O + @ + @ k m o.5.7.r.y.f.h.B OXs x.x.c.b.b.b.b.B.c.a.OXn j.h.f.i.q.7.o.b 5 @ < 3 4 8 0 A F :X:X:X:X:X:X:X",
":X:X:X:X:X:X:X:XN O O + + + + j M 5.q.i.d.j.z.c.b.d g.r D.D.D.).D.).).).F.g g.p A.V.v.k.f.r.7.$.m # @ < 3 8 0 I :X:X:X:X:X:X:X:X",
":X:X:X:X:X:X:X:X:X:XO O + + $ n $.e.f.k.c.B.C.S.F.= r r D.D.).).).).).).F.= r > D.D.S.V.v.j.r.5.+.t @ 1 4 9 :X:X:X:X:X:X:X:X:X:X",
":X:X:X:X:X:X:X:X:X:X:X* O + $ &.8.f.b.C.A.S.S.D.C.& ; - D.D.).).).).).).F.o = - /./././.N.b.h.9.#.h @ 3 w :X:X:X:X:X:X:X:X:X:X:X",
":X:X:X:X:X:X:X:X:X:X:X:X:X, $ &.d.v.V.Z.A.S.S.S.C.o & r D.D.D.).(.(.).).F.o = : /./.m./.Z.B.h.y.=.h 6 :X:X:X:X:X:X:X:X:X:X:X:X:X",
":X:X:X:X:X:X:X:X:X:X:X:X:X:X:X5.f.v.m.V.V.C.A.A.C.. o d S.S.S.D.D.D./.D.A.. % p N././.N.N.B.h.r.5.&.:X:X:X:X:X:X:X:X:X:X:X:X:X:X",
":X:X:X:X:X:X:X:X:X:X:X:X:X:X:X%.t.k.x.v.n.n.V.V.n.  . @.C.A.S.S.D.D.S.S.S.  X V N.m./.N.N.M.h.r.5.:X:X:X:X:X:X:X:X:X:X:X:X:X:X:X",
":X:X:X:X:X:X:X:X:X:X:X:X:X:X:X&.8.d.h.l.x.c.c.b.b.-   c.n.V.V.C.C.C.A.V.B.-   B.N./.m.m.b.h.h.w.=.:X:X:X:X:X:X:X:X:X:X:X:X:X:X:X",
":X:X:X:X:X:X:X:X:X:X:X:X:X:X:X-.%.8.t.d.h.j.k.k.z.x.c.c.c.c.n.n.n.n.n.n.B.B.c.B.N.N./.M.l.h.y.6.=.:X:X:X:X:X:X:X:X:X:X:X:X:X:X:X",
":X:X:X:X:X:X:X:X:X:X:X:X:X:X:X:XV =.q.w.t.i.u.f.u.h.j.j.l.z.z.z.z.c.x.c.c.c.B.C.h./.h.h.h.e.0.6.:X:X:X:X:X:X:X:X:X:X:X:X:X:X:X:X",
":X:X:X:X:X:X:X:X:X:X:X:X:X:X:X:XV M #.5.8.q.w.t.t.t.i.i.u.h.u.j.h.h.h.j.k.z.z.K.h.h.h.s.e.9.7.5.:X:X:X:X:X:X:X:X:X:X:X:X:X:X:X:X",
":X:X:X:X:X:X:X:X:X:X:X:X:X:X:X:X:Xs z M &.%.=.5.5.6.8.q.w.r.r.t.t.t.i.i.u.u.d.d.i.t.w.9.9.6.6.:X:X:X:X:X:X:X:X:X:X:X:X:X:X:X:X:X",
":X:X:X:X:X:X:X:X:X:X:X:X:X:X:X:X:X:Xg i s l n m V @.&.%.=.=.=.5.6.6.6.5.5.6.5.q.9.q.7.6.6.6.:X:X:X:X:X:X:X:X:X:X:X:X:X:X:X:X:X:X",
":X:X:X:X:X:X:X:X:X:X:X:X:X:X:X:X:X:X:X:Xi i i i a s k k x x n M X.m +.#.$.*.=.6.6.5.6.5.0.:X:X:X:X:X:X:X:X:X:X:X:X:X:X:X:X:X:X:X",
":X:X:X:X:X:X:X:X:X:X:X:X:X:X:X:X:X:X:X:X:X:XB s s k k k l z v n b X.X.o.#.*.*.=.=.w.:X:X:X:X:X:X:X:X:X:X:X:X:X:X:X:X:X:X:X:X:X:X",
":X:X:X:X:X:X:X:X:X:X:X:X:X:X:X:X:X:X:X:X:X:X:X:X:X:X:Xp.c +.v m +.X.&.%.s.:X:X:X:X:X:X:X:X:X:X:X:X:X:X:X:X:X:X:X:X:X:X:X:X:X:X:X",
":X:X:X:X:X:X:X:X:X:X:X:X:X:X:X:X:X:X:X:X:X:X:X:X:X:X:X:X:X:X:X:X:X:X:X:X:X:X:X:X:X:X:X:X:X:X:X:X:X:X:X:X:X:X:X:X:X:X:X:X:X:X:X:X",
":X:X:X:X:X:X:X:X:X:X:X:X:X:X:X:X:X:X:X:X:X:X:X:X:X:X:X:X:X:X:X:X:X:X:X:X:X:X:X:X:X:X:X:X:X:X:X:X:X:X:X:X:X:X:X:X:X:X:X:X:X:X:X:X",
":X:X:X:X:X:X:X:X:X:X:X:X:X:X:X:X:X:X:X:X:X:X:X:X:X:X:X:X:X:X:X:X:X:X:X:X:X:X:X:X:X:X:X:X:X:X:X:X:X:X:X:X:X:X:X:X:X:X:X:X:X:X:X:X"
};
