/* XPM */
static char *result[] = {
/* columns rows colors chars-per-pixel */
"64 64 127 2 ",
"   c #121212",
".  c #191612",
"X  c #1B1814",
"o  c #201A11",
"O  c #291F11",
"+  c #201E1B",
"@  c #30210F",
"#  c #2C2110",
"$  c #312410",
"%  c #342F28",
"&  c #363129",
"*  c #4C300D",
"=  c #50360E",
"-  c #5E3E0D",
";  c #5B2E2B",
":  c #443E33",
">  c #67440C",
",  c #744C0C",
"<  c #794E0B",
"1  c #4C4437",
"2  c #494846",
"3  c #584F40",
"4  c #595040",
"5  c #52514F",
"6  c #645A48",
"7  c #685D4A",
"8  c #756853",
"9  c #8C5A0B",
"0  c #945E09",
"q  c #A35B06",
"w  c #9F6308",
"e  c #A36608",
"r  c #AA6B09",
"t  c #B46404",
"y  c #B67208",
"u  c #C76D02",
"i  c #CD7102",
"p  c #C27907",
"a  c #CF7D0C",
"s  c #D27302",
"d  c #DC7700",
"f  c #DD7800",
"g  c #E17D00",
"h  c #A94945",
"j  c #8D7D62",
"k  c #907F64",
"l  c #CC5553",
"z  c #FF6862",
"x  c #DC8804",
"c  c #DF800E",
"v  c #E58200",
"b  c #E98601",
"n  c #E78F04",
"m  c #ED8B01",
"M  c #F08E01",
"N  c #EC9203",
"B  c #F59402",
"V  c #F89702",
"C  c #FC9C02",
"Z  c #F2940B",
"A  c #FC9F0A",
"S  c #E28514",
"D  c #E18618",
"F  c #FD9313",
"G  c #F49B18",
"H  c #FDA00F",
"J  c #FDA214",
"K  c #FDA51D",
"L  c #E4912B",
"P  c #E69530",
"I  c #FDA622",
"U  c #FDA825",
"Y  c #FDAA2D",
"T  c #FEAC34",
"R  c #FEAE3A",
"E  c #FDB03C",
"W  c #948367",
"Q  c #A39071",
"!  c #B29D7A",
"~  c #B8A27E",
"^  c #EAA44A",
"/  c #FDB242",
"(  c #FEB34B",
")  c #EEB15F",
"_  c #FFB654",
"`  c #F7B95D",
"'  c #FEB95D",
"]  c #FEBC61",
"[  c #F1BA6F",
"{  c #F1BC74",
"}  c #FBC062",
"|  c #FAC46C",
" . c #FBC574",
".. c #F2C07A",
"X. c #FAC979",
"o. c #9F9E9C",
"O. c #BEA882",
"+. c #C7AF88",
"@. c #C8B189",
"#. c #D8BE93",
"$. c #E9BD87",
"%. c #DAC094",
"&. c #F3C482",
"*. c #F6C884",
"=. c #FACC83",
"-. c #F6CB88",
";. c #FBCE89",
":. c #F9D18E",
">. c #E2C79A",
",. c #E7CB9D",
"<. c #FAD394",
"1. c #F9D69A",
"2. c #F3D5A5",
"3. c #F8D6A1",
"4. c #F6D8A7",
"5. c #F9D9A4",
"6. c #F7DAA8",
"7. c #F9DBA9",
"8. c #DAD9D8",
"9. c #E2E1E0",
"0. c #F0EDE8",
"q. c #F7F1E7",
"w. c #F5F2EF",
"e. c #F4F3F0",
"r. c #F9F8F7",
"t. c #FDFDFD",
"y. c None",
/* pixels */
"y.y.y.y.y.y.y.y.y.y.y.y.y.y.y.y.y.y.y.y.y.y.y.y.y.y.y.y.y.y.y.y.y.y.y.y.y.y.y.y.y.y.y.y.y.y.y.y.y.y.y.y.y.y.y.y.y.y.y.y.y.y.y.y.",
"y.y.y.y.y.y.y.y.y.y.y.y.y.y.y.y.y.y.y.y.y.y.y.y.y.y.y.y.y.y.y.y.y.y.y.y.y.y.y.y.y.y.y.y.y.y.y.y.y.y.y.y.y.y.y.y.y.y.y.y.y.y.y.y.",
"y.y.y.y.y.y.y.y.y.y.y.y.y.y.y.y.y.y.y.y.y.y.y.y.y.y.y.y.y.y.y.y.y.y.y.y.y.y.y.y.y.y.y.y.y.y.y.y.y.y.y.y.y.y.y.y.y.y.y.y.y.y.y.y.",
"y.y.y.y.y.y.y.y.y.y.y.y.y.y.y.y.y.y.y.y.y.y.y.y.y.y.y.y.y.y.y.C C y.y.y.y.y.y.y.y.y.y.y.y.y.y.y.y.y.y.y.y.y.y.y.y.y.y.y.y.y.y.y.",
"y.y.y.y.y.y.y.y.y.y.y.y.y.y.y.y.y.y.y.y.y.y.y.y.y.C C C C C C C C C C C C C C y.y.y.y.y.y.y.y.y.y.y.y.y.y.y.y.y.y.y.y.y.y.y.y.y.",
"y.y.y.y.y.y.y.y.y.y.y.y.y.y.y.y.y.y.y.y.y.y.C C C C M g f m V C C C C C C C C C C y.y.y.y.y.y.y.y.y.y.y.y.y.y.y.y.y.y.y.y.y.y.y.",
"y.y.y.y.y.y.y.y.y.y.y.y.y.y.y.y.y.y.y.y.C C C m f f v V C C C C C C C C C C C C C C C y.y.y.y.y.y.y.y.y.y.y.y.y.y.y.y.y.y.y.y.y.",
"y.y.y.y.y.y.y.y.y.y.y.y.y.y.y.y.y.y.y.C C m f f g C C C C C C C C C C C H C C C C T J C C y.y.y.y.y.y.y.y.y.y.y.y.y.y.y.y.y.y.y.",
"y.y.y.y.y.y.y.y.y.y.y.y.y.y.y.y.y.y.C C g f f B C C C C C C C C C C C C C C C H C C E R C C y.y.y.y.y.y.y.y.y.y.y.y.y.y.y.y.y.y.",
"y.y.y.y.y.y.y.y.y.y.y.y.y.y.y.y.y.C C g f f M m b v v v v v v m V C C C C C C C C C C _ / C C y.y.y.y.y.y.y.y.y.y.y.y.y.y.y.y.y.",
"y.y.y.y.y.y.y.y.y.y.y.y.y.y.y.y.C C g f f f f f f f v N V C C C C C C C C C C C C C C C ' T C y.y.y.y.y.y.y.y.y.y.y.y.y.y.y.y.y.",
"y.y.y.y.y.y.y.y.y.y.y.y.y.y.y.y.C b f f f f g m V C C C C C C C H C C C C C C C C C C C T ' A C y.y.y.y.y.y.y.y.y.y.y.y.y.y.y.y.",
"y.y.y.y.y.y.y.y.y.y.y.y.y.y.y.C C f f f m C C C C C C C C C C C C C C C C C C C C C C C H ' _ C y.y.y.y.y.y.y.y.y.y.y.y.y.y.y.y.",
"y.y.y.y.y.y.y.y.y.y.y.y.y.y.y.C m f f f g B B M m b b m B C C C C C C C C C C H C C U ( / ' ] C C y.y.y.y.y.y.y.y.y.y.y.y.y.y.y.",
"y.y.y.y.y.y.y.y.y.y.y.y.y.y.y.C f f d f f f f f b V V C C C C C C H C C C H H H C C C C I ' ' Y C y.y.y.y.y.y.y.y.y.y.y.y.y.y.y.",
"y.y.y.y.y.y.y.y.y.y.y.y.y.y.y.C f f f f f f f f D P ^ ) [ ..&.*.=.X.X.| ' / K J H H K Y Y Y ] _ C y.y.y.y.y.y.y.y.y.y.y.y.y.y.y.",
"y.y.y.y.y.y.y.y.y.y.y.y.y.y.C C f f f f { 7.7.7.7.7.7.7.7.7.7.7.7.7.7.7.7.7.7.7.7.7.3.;.] ' ' ' C y.y.y.y.y.y.y.y.y.y.y.y.y.y.y.",
"y.y.y.y.y.y.y.y.y.y.y.y.y.y.C V f f L 7.7.7.7.7.7.6.7.7.7.7.7.7.7.7.7.7.7.7.7.7.7.7.7.7.4.] ' ' C y.y.y.y.y.y.y.y.y.y.y.y.y.y.y.",
"y.y.y.y.y.y.y.y.y.y.y.y.y.y.C V f f 7.7.7.7.O.7 6 O.7.7.7.7.7.7.7.7.7.7.7.4.k 3 8 #.7.7.7.<.] ' C y.y.y.y.y.y.y.y.y.y.y.y.y.y.y.",
"y.y.y.y.y.y.y.y.y.y.y.y.y.y.C V f S 7.7.#.X           %.7.7.7.7.7.7.7.7.k     .     & 4.7.7.' ' C y.y.y.y.y.y.y.y.y.y.y.y.y.y.y.",
"y.y.y.y.y.y.y.y.y.y.y.y.y.y.C V f G 7.7.! 4 >.7.6.+.+   >.7.7.7.7.7.7.k   : ,.7.7.@.% 2.7.7./ ' C y.y.y.y.y.y.y.y.y.y.y.y.y.y.y.",
"y.y.y.y.y.y.y.y.y.y.y.y.y.y.C C f C 7.7.7.7.7.7.7.7.7.1 1 7.7.7.7.7.6.. Q 7.7.7.7.7.7.7.7.<.I ' C y.y.y.y.y.y.y.y.y.y.y.y.y.y.y.",
"y.y.y.y.y.y.y.y.y.y.y.y.y.y.y.C f ` 7.7.7.7.7.7.7.7.7.7.6.6.7.7.7.7.7.7.7.7.7.7.7.7.7.7.7.<.] ( C y.y.y.y.y.y.y.y.y.y.y.y.y.y.y.",
"y.y.y.y.y.y.y.y.y.y.y.y.y.y.y.C f f Z ` 1.7.7.7.7.7.7.7.7.7.7.7.7.7.7.7.7.7.7.7.7.7.7.1. .' ' Y C y.y.y.y.y.y.y.y.y.y.y.y.y.y.y.",
"y.y.y.y.y.y.y.y.y.y.y.y.y.y.y.C m f f g V V H I / } X.;.<.1.1.1.3.1.1.<.=. ._ E E / / E Y K ' A C y.y.y.y.y.y.y.y.y.y.y.y.y.y.y.",
"y.y.y.y.y.y.y.y.y.y.y.y.y.y.y.C C f f f f v m C H C C C C C C C C C C C C C C C C C C C C C _ C y.y.y.y.y.y.y.y.y.y.y.y.y.y.y.y.",
"y.y.y.y.y.y.y.y.y.y.y.y.y.y.y.y.C v f f f f b V C C C C C C C C C C C C C C C A C C C C C C K C y.y.y.y.y.y.y.y.y.y.y.y.y.y.y.y.",
"y.y.y.y.y.y.y.y.y.y.y.y.y.y.y.y.C V f f V V V B B V C H C C C V C C C A Y -.q.0.C C C C C K C y.y.y.y.y.y.y.y.y.y.y.y.y.y.y.y.y.",
"y.y.y.y.y.y.y.y.y.y.y.y.y.y.y.y.y.C B f f V C C V C C C C b &.e.w.r.t.t.t.9.5   b C C C C C C y.y.y.y.y.y.y.y.y.y.y.y.y.y.y.y.y.",
"y.y.y.y.y.y.y.y.y.V C y.y.y.y.y.y.y.V B f d m C C C C C C C C r.e.8.o.2   ; h c C C C C C C y.y.y.y.y.y.y.C m y.y.y.y.y.y.y.y.y.",
"y.y.y.y.y.y.y.y.C V C C C y.y.y.y.y.y.C V f f f B C C C C C C n .       l z G V C C C C C y.y.y.y.y.y.C C C C C y.y.y.y.y.y.y.y.",
"y.y.y.y.y.y.y.C V V B C y.y.y.y.y.y.y.y.C C V g d d b V C C C C H y < 9 F C C V C C C C y.y.y.y.y.y.y.y.C m C C C y.y.y.y.y.y.y.",
"y.y.y.y.y.y.y.V V V C C y.y.y.y.y.y.y.y.y.y.C C C V B b v b B V C C C C C C C C C C y.y.y.y.y.y.y.y.y.y.C C V V V y.y.y.y.y.y.y.",
"y.y.y.y.y.y.y.y.y.b C C C y.y.y.y.y.y.y.y.y.f f m V V C C C V C C C C C C C B b g y.y.y.y.y.y.y.y.y.C C V V v y.y.y.y.y.y.y.y.y.",
"y.y.y.y.y.y.y.y.y.y.f C C C C y.y.y.y.y.y.C C C m f f f f f f f g f f f f f f f V C C y.y.y.y.y.y.C C C C f y.y.y.y.y.y.y.y.y.y.",
"y.y.y.y.y.y.y.y.y.y.y.f C C C C C C C C C C C C C C m f f f f f f f f f d f f f C C C C C C C C C C C C g y.y.y.y.y.y.y.y.y.y.y.",
"y.y.y.y.y.y.y.y.y.y.y.y.g V C C C C C C C C C C v g C C C m v f f f f f f f f g C C C C C C C C C C V f y.y.y.y.y.y.y.y.y.y.y.y.",
"y.y.y.y.y.y.y.y.y.y.y.y.y.f B V C C C H C C C b f V C C C C C C V V M v f f f f g V C C C C C C C b f y.y.y.y.y.y.y.y.y.y.y.y.y.",
"y.y.y.y.y.y.y.y.y.y.y.y.y.y.f f m V C V B v f f f C C C C C C C C C B m f f f f f f f m V V M g f f y.y.y.y.y.y.y.y.y.y.y.y.y.y.",
"y.y.y.y.y.y.y.y.y.y.y.y.y.y.y.y.f f f f f f y.y.f C C C H C C C C C C m f f f d y.y.f f d f f f y.y.y.y.y.y.y.y.y.y.y.y.y.y.y.y.",
"y.y.y.y.y.y.y.y.y.y.y.y.y.y.y.y.y.y.y.y.y.y.y.y.g C C C C C C C C C C C M f f f y.y.y.y.y.y.y.y.y.y.y.y.y.y.y.y.y.y.y.y.y.y.y.y.",
"y.y.y.y.y.y.y.y.y.y.y.y.y.y.y.y.y.y.y.y.y.y.y.y.B C C C C C C C C C C C V f f f y.y.y.y.y.y.y.y.y.y.y.y.y.y.y.y.y.y.y.y.y.y.y.y.",
"y.y.y.y.y.y.y.y.y.y.y.y.y.y.y.y.y.y.y.y.y.y.y.y.C C C C C C C C C C C C m f f f y.y.y.y.y.y.y.y.y.y.y.y.y.y.y.y.y.y.y.y.y.y.y.y.",
"y.y.y.y.y.y.y.y.y.y.y.y.y.y.y.y.y.y.y.y.y.y.y.y.C C C C C C C C C C C C g f f f y.y.y.y.y.y.y.y.y.y.y.y.y.y.y.y.y.y.y.y.y.y.y.y.",
"y.y.y.y.y.y.y.y.y.y.y.y.y.y.y.y.y.y.y.y.y.y.y.    o 0   * w e r r e 9 , * @ .   y.y.y.y.y.y.y.y.y.y.y.y.y.y.y.y.y.y.y.y.y.y.y.y.",
"y.y.y.y.y.y.y.y.y.y.y.y.y.y.y.y.y.y.y.y.y.y.y.@ .         .   .                 y.y.y.y.y.y.y.y.y.y.y.y.y.y.y.y.y.y.y.y.y.y.y.y.",
"y.y.y.y.y.y.y.y.y.y.y.y.y.y.y.y.y.y.y.y.y.y.y.V H > . y   # r e e w q t u s f f y.y.y.y.y.y.y.y.y.y.y.y.y.y.y.y.y.y.y.y.y.y.y.y.",
"y.y.y.y.y.y.y.y.y.y.y.y.y.y.y.y.y.y.y.y.y.y.y.C x   , C X # y C C C V f f f f f g y.y.y.y.y.y.y.y.y.y.y.y.y.y.y.y.y.y.y.y.y.y.y.",
"y.y.y.y.y.y.y.y.y.y.y.y.y.y.y.y.y.y.y.y.y.y.C C $   V C - N C C C C C C f f f f f y.y.y.y.y.y.y.y.y.y.y.y.y.y.y.y.y.y.y.y.y.y.y.",
"y.y.y.y.y.y.y.y.y.y.y.y.y.y.y.y.y.y.y.y.y.y.C C # $ C C V V V V C C C C M f f f f m y.y.y.y.y.y.y.y.y.y.y.y.y.y.y.y.y.y.y.y.y.y.",
"y.y.y.y.y.y.y.y.y.y.y.y.y.y.y.y.y.y.y.y.y.C C C V r C C b f y.y.y.b V V C f f f f f y.y.y.y.y.y.y.y.y.y.y.y.y.y.y.y.y.y.y.y.y.y.",
"y.y.y.y.y.y.y.y.y.y.y.y.y.y.y.y.y.y.y.y.y.C C C C C V d f y.y.y.y.y.y.f m V f f f f C y.y.y.y.y.y.y.y.y.y.y.y.y.y.y.y.y.y.y.y.y.",
"y.y.y.y.y.y.y.y.y.y.y.y.y.y.y.y.y.y.y.y.y.C C C C V f f y.y.y.y.y.y.y.y.f f f f f f m y.y.y.y.y.y.y.y.y.y.y.y.y.y.y.y.y.y.y.y.y.",
"y.y.y.y.y.y.y.y.y.y.y.y.y.y.y.y.y.y.y.y.C C C C C f f y.y.y.y.y.y.y.y.y.y.f f f f f f C y.y.y.y.y.y.y.y.y.y.y.y.y.y.y.y.y.y.y.y.",
"y.y.y.y.y.y.y.y.y.y.y.y.y.y.y.y.y.y.y.y.C H C C b f y.y.y.y.y.y.y.y.y.y.y.y.f f f f f C y.y.y.y.y.y.y.y.y.y.y.y.y.y.y.y.y.y.y.y.",
"y.y.y.y.y.y.y.y.y.y.y.y.y.y.y.y.y.y.y.y.C C C V f y.y.y.y.y.y.y.y.y.y.y.y.y.y.d f f f V y.y.y.y.y.y.y.y.y.y.y.y.y.y.y.y.y.y.y.y.",
"y.y.y.y.y.y.y.y.y.y.y.y.y.y.y.y.y.y.y.C C C V v s y.y.y.y.y.y.y.y.y.y.y.y.y.y.f f f f f V y.y.y.y.y.y.y.y.y.y.y.y.y.y.y.y.y.y.y.",
"y.y.y.y.y.y.y.y.y.y.y.y.y.y.y.y.y.i M C C C V f y.y.y.y.y.y.y.y.y.y.y.y.y.y.y.y.f f f f v C y.y.y.y.y.y.y.y.y.y.y.y.y.y.y.y.y.y.",
"y.y.y.y.y.y.y.y.y.y.y.y.y.y.y.y.y.s f g g f d y.y.y.y.y.y.y.y.y.y.y.y.y.y.y.y.y.i d v m C V y.y.y.y.y.y.y.y.y.y.y.y.y.y.y.y.y.y.",
"y.y.y.y.y.y.y.y.y.y.y.y.y.y.y.y.y.y.y.y.y.y.y.y.y.y.y.y.y.y.y.y.y.y.y.y.y.y.y.y.y.y.y.y.y.y.y.y.y.y.y.y.y.y.y.y.y.y.y.y.y.y.y.y.",
"y.y.y.y.y.y.y.y.y.y.y.y.y.y.y.y.y.y.y.y.y.y.y.y.y.y.y.y.y.y.y.y.y.y.y.y.y.y.y.y.y.y.y.y.y.y.y.y.y.y.y.y.y.y.y.y.y.y.y.y.y.y.y.y.",
"y.y.y.y.y.y.y.y.y.y.y.y.y.y.y.y.y.y.y.y.y.y.y.y.y.y.y.y.y.y.y.y.y.y.y.y.y.y.y.y.y.y.y.y.y.y.y.y.y.y.y.y.y.y.y.y.y.y.y.y.y.y.y.y.",
"y.y.y.y.y.y.y.y.y.y.y.y.y.y.y.y.y.y.y.y.y.y.y.y.y.y.y.y.y.y.y.y.y.y.y.y.y.y.y.y.y.y.y.y.y.y.y.y.y.y.y.y.y.y.y.y.y.y.y.y.y.y.y.y.",
"y.y.y.y.y.y.y.y.y.y.y.y.y.y.y.y.y.y.y.y.y.y.y.y.y.y.y.y.y.y.y.y.y.y.y.y.y.y.y.y.y.y.y.y.y.y.y.y.y.y.y.y.y.y.y.y.y.y.y.y.y.y.y.y."
};
