/* XPM */
static char *result[] = {
/* columns rows colors chars-per-pixel */
"64 72 232 2 ",
"   c #1A171B",
".  c #1D191A",
"X  c #3B1E0C",
"o  c #221C19",
"O  c #2A1E16",
"+  c #341F12",
"@  c #2B2316",
"#  c #272016",
"$  c #352A13",
"%  c #3A2E11",
"&  c #332513",
"*  c #3E3112",
"=  c #462309",
"-  c #552A07",
";  c #582C09",
":  c #47370E",
">  c #55390B",
",  c #492A14",
"<  c #443511",
"1  c #4B3A12",
"2  c #553218",
"3  c #62320A",
"4  c #6C370B",
"5  c #743B0B",
"6  c #7B3E0B",
"7  c #6A3817",
"8  c #743B1B",
"9  c #5A3C31",
"0  c #4C352D",
"q  c #6D3A2A",
"w  c #58440C",
"e  c #574012",
"r  c #644C0D",
"t  c #684F08",
"y  c #6C530C",
"u  c #73590A",
"i  c #765809",
"p  c #774412",
"a  c #56463B",
"s  c #4E443B",
"d  c #694B3C",
"f  c #774836",
"g  c #765137",
"h  c #7C600C",
"j  c #775745",
"k  c #6B5B4D",
"l  c #756253",
"z  c #646362",
"x  c #72716F",
"c  c #5D5046",
"v  c #873620",
"b  c #84430D",
"n  c #8C4914",
"m  c #944D16",
"M  c #8A6706",
"N  c #9B7505",
"B  c #9A7307",
"V  c #956E07",
"C  c #A37B04",
"Z  c #AA7C04",
"A  c #A8661B",
"S  c #B77B13",
"D  c #855439",
"F  c #8C513A",
"G  c #B85437",
"H  c #B45B30",
"J  c #B46D2E",
"K  c #C27D0B",
"L  c #C95E31",
"P  c #CA673A",
"I  c #EA6238",
"U  c #875943",
"Y  c #9F5C42",
"T  c #88624A",
"R  c #856B57",
"E  c #946D52",
"W  c #976B51",
"Q  c #A7684B",
"!  c #B86747",
"~  c #A57658",
"^  c #B57357",
"/  c #BB714F",
"(  c #A87963",
")  c #857F7C",
"_  c #C86844",
"`  c #D86C44",
"'  c #D6734B",
"]  c #C97954",
"[  c #D87C53",
"{  c #CA724A",
"}  c #EA6D43",
"|  c #E57146",
" . c #EC7549",
".. c #ED7A4D",
"X. c #E97549",
"o. c #ED7E51",
"O. c #C87570",
"+. c #AC8304",
"@. c #B58B04",
"#. c #BC8C03",
"$. c #B98405",
"%. c #BB8B0C",
"&. c #B9872F",
"*. c #C38A03",
"=. c #C88708",
"-. c #C49302",
";. c #CB9402",
":. c #CC9C01",
">. c #C69409",
",. c #D59502",
"<. c #D39C01",
"1. c #DB9D01",
"2. c #CB8D0A",
"3. c #DDA400",
"4. c #DEAA00",
"5. c #D4A201",
"6. c #E1A500",
"7. c #E5AD00",
"8. c #E8AF00",
"9. c #EBB300",
"0. c #EFBA00",
"q. c #E7B100",
"w. c #F2BE00",
"e. c #C9932D",
"r. c #BA8643",
"t. c #AE815F",
"y. c #B8815D",
"u. c #9B836A",
"i. c #AA8567",
"p. c #B88765",
"a. c #A78C77",
"s. c #B8997B",
"d. c #A8907F",
"f. c #C6825D",
"g. c #CE825B",
"h. c #DA855B",
"j. c #CC9355",
"k. c #C99448",
"l. c #EE8254",
"z. c #EC8A5C",
"x. c #E5875B",
"c. c #F08C5D",
"v. c #F08657",
"b. c #C38B66",
"n. c #C98D66",
"m. c #D38A62",
"M. c #DC8C64",
"N. c #C4906A",
"B. c #CB946B",
"V. c #D3996F",
"C. c #D99568",
"Z. c #C69B77",
"A. c #D69C71",
"S. c #D79D73",
"D. c #E48D61",
"F. c #F18F60",
"G. c #E89668",
"H. c #F29465",
"J. c #F39B6B",
"K. c #F19868",
"L. c #E09E71",
"P. c #DCA074",
"I. c #DDA06F",
"U. c #E2A476",
"Y. c #ECAB7B",
"T. c #E7A677",
"R. c #F4A473",
"E. c #F5A877",
"W. c #F3AD7B",
"Q. c #F6B27F",
"!. c #F1A672",
"~. c #7D949E",
"^. c #7B8E97",
"/. c #7C94A0",
"(. c #84959D",
"). c #89979B",
"_. c #8C989C",
"`. c #889396",
"'. c #9D9C96",
"]. c #949A9A",
"[. c #9B9C98",
"{. c #939795",
"}. c #918F8B",
"|. c #A6988A",
" X c #B59E89",
".X c #A49D95",
"XX c #AA9F93",
"oX c #BCA38E",
"OX c #B6A18F",
"+X c #AAA196",
"@X c #B4A292",
"#X c #B8A492",
"$X c #8498A2",
"%X c #9EA4A3",
"&X c #C2A58C",
"*X c #CBA98C",
"=X c #CAA689",
"-X c #DCAC86",
";X c #D3AB89",
":X c #D9AB86",
">X c #DDB18A",
",X c #C8AA90",
"<X c #D8B899",
"1X c #E9AF82",
"2X c #E3AE85",
"3X c #EDB182",
"4X c #ECBA8C",
"5X c #E6B58A",
"6X c #F6B582",
"7X c #F7B886",
"8X c #F5BB8B",
"9X c #F8BD8C",
"0X c #E5BC93",
"qX c #EBBE92",
"wX c #CAB9A3",
"eX c #ECC399",
"rX c #F4C294",
"tX c #F9C393",
"yX c #F5CA9D",
"uX c #FAC99B",
"iX c #F6C699",
"pX c #F9C08F",
"aX c #F5CCA0",
"sX c #FBD1A3",
"dX c #F9D0A7",
"fX c #F6DBBC",
"gX c #DDDDDD",
"hX c #F6EAD0",
"jX c #FEF9E7",
"kX c #FDF2F2",
"lX c #E2DBC3",
"zX c None",
/* pixels */
"zXzXzXzXzXzXzXzXzXzXzXzXzXzXzXzXzXzXzXzXzXzXzXzXzXzXzXzXzXzXzXzXzXzXzXzXzXzXzXzXzXzXzXzXzXzXzXzXzXzXzXzXzXzXzXzXzXzXzXzXzXzXzXzX",
"zXzXzXzXzXzXzXzXzXzXzXzXzXzXzXzXzXzXzXzXzXzXzXzXzXzXzXzXzXzXzXzXzXzXzXzXzXzXzXzXzXzXzXzXzXzXzXzXzXzXzXzXzXzXzXzXzXzXzXzXzXzXzXzX",
"zXzXzXzXzXzXzXzXzXzXzXzXzXzXzXzXzXzXzXzXzXzXzXzXzXzXzXzXzXzXzXzXzXzXzXzXzXzXzXzXzXzXzXzXzXzXzXzXzXzXzXzXzXzXzXzXzXzXzXzXzXzXzXzX",
"zXzXzXzXzXzXzXzXzXzXzXzXzXzXzXzXzXzXzXzXzXzXzXzXzXzXzX, p 8 , + + i.iXiX~ zXzXzXzXzXzXzXzXzXzXzXzXzXzXzXzXzXzXzXzXzXzXzXzXzXzXzX",
"zXzXzXzXzXzXzXzXzXzXzXzXzXzXzXzXzXzXzXzXzXzXzXzXzXzX3 6 b b b m n Q.pXuXsX8Xj zXzXzXzXzXzXzXzXzXzXzXzXzXzXzXzXzXzXzXzXzXzXzXzXzX",
"zXzXzXzXzXzXzXzXzXzXzXzXzXzXzXzXzXzXzXzXzXzXzXzXzXzX+ 5 5 6 6 6 b D D 7X9XpXrX~ zXzXzXzXzXzXzXzXzXzXzXzXzXzXzXzXzXzXzXzXzXzXzXzX",
"zXzXzXzXzXzXzXzXzXzXzXzXzXzXzXzXzXzXzXzXzXzXzXzXzXzX3 8 8 3 5 5 p 5 4 Q.Q.Q.7X8X~ zXzXzXzXzXzXzXzXzXzXzXzXzXzXzXzXzXzXzXzXzXzXzX",
"zXzXzXzXzXzXzXzXzXzXzXzXzXzXzXzXzXzXzXzXzXzXzXzXzXzX0  .} _ - 3 4 4 3 U.y.g b m m 2 zXzXzXzXzXzXzXzXzXzXzXzXzXzXzXzXzXzXzXzXzXzX",
"zXzXzXzXzXzXzXzXzXzXzXzXzXzXzXzXzXzXzXzXzXzXzXzXzXzXf v.v...7 = ; 3 ; 4 4 5 5 6 6 n m ; & zXzXzXzXzXzXzXzXzXzXzXzXzXzXzXzXzXzXzX",
"zXzXzXzXzXzXzXzXzXzXzXzXzXzXzXzXzXzXzXi.tXfXoXzXzXzXzXR.H.H.] = - - 3 3 3 3 ; 3 4 5 5 b b zXzXzXzXzXzXzXzXzXzXzXzXzXzXzXzXzXzXzX",
"zXzXzXzXzXzXzXzXzXzXzXzXzXzXzXzXzXzXS.6XW.6XpXZ.zXzX^ 6XE.M.kX+ = - - - - - - - - - 4 5 6 zXzXzXzXzXzXzXzXzXzXzXzXzXzXzXzXzXzXzX",
"zXzXzXzXzXzXzXzXzXzXzXzXzXzXzXzXzXzXQ.D.G o.W.6XzXN.R.E.6XS.) O X X X = X .XO.o. ._ ; 3 3 zXzXzXzXzXzXzXzXzXzXzXzXzXzXzXzXzXzXzX",
"zXzXzXzXzXzXzXzXzXzXzXzXzXzXzXzXzXzXE G.H.| [ p.6XE.} c.Q.G.! Q f.1 X X z gXkXx.F.v.o.7 + zXzXzXzXzXzXzXzXzXzXzXzXzXzXzXzXzXzXzX",
"zXzXzXzXzXzXzXzXzXzXzXzXzXzXzXzXzXzXzXj E.J.V.Y.W.E.c.E.V.1X7XiXfXdXQ.| ! <XO.C.C.G.K.x.zXzXzXzXzXzXzXzXzXzXzXzXzXzXzXzXzXzXzXzX",
"zXzXzXzXzXzXzXzXzXzXzXzXzXzXzXzXzXzXzXzXzXP.W.fXhXZ.6XV.W.Q.6X7X9XtXtXv.o.g.P.6X6X6X6Xb.zXzXl R zXzXzXzXzXzXzXzXzXzXzXzXzXzXzXzX",
"zXzXzXzXzXzXzXzXzXzXzXzXzXzXzXzXzXzXzX! F.z.[ p.4XM.E.m.| [ R.Q.Q.Q.6X6X1XH.W.6XR.J.R.W.6XQ.Q.9XdXE zXzXzXzXzXzXzXzXzXzXzXzXzXzX",
"zXzXzXzXzXzXzXzXzXzXzXzXzXzXzXzXzXzXzX1X2X3X3X6XE.D.] E.] v o.J.W.6X6X3XQ.tXT.Q.o. .H.6X6XW.E.W.8X9XzXzXzXzXzXzXzXzXzXzXzXzXzXzX",
"zXzXzXzXzXzXzXzXzXzXzXzXzXzXzXzXzXzXzX:X-X2X-X-X2X1X3XR.h.M.F z. .| ' o.o.W.b.E. . .H.W.X.G G _ H.6XzXzXzXzXzXzXzXzXzXzXzXzXzXzX",
"zXzXzXzXzXzXzXzXzXzXzXzXzXzXzXzXzXzXk ;X;X;X:X-X:X2X-X2X1XE.h.G.K.F.' v 8  .m.6XJ.H.W.J.D.K.J.c.h.B.zXzXzXzXzXzXzXzXzXzXzXzXzXzX",
"zXzXzXzXzXzXzXzXzXzXzXzXzXzXzXzXzXzX&X=X,X=X=X*X*X*X*X;X;X:X1XR.b.W.R.J.G.J.K.6XQ.Q.E.6Xj b.S.U.p.zXzXzXzXzXzXzXzXzXzXzXzXzXzXzX",
"zXzXzXzXzXzXzXzXzXzXzXzXzXzXzXzXzXx OX X&XoX&XoX,X=X,X,X*X=X;X:XW.F.A.6XQ.T.K.6XQ.Q.Q.6Xp.zXzXzXzXzXzXzXzXzXzXzXzXzXzXzXzXzXzXzX",
"zXzXzXzXzXzXzXzXzXzXzXzXzXzXzXzXzX+X#X@XwX@XOXOXOXoX&X&X&X&X&X,X=X1XJ.b.0XjXwXP.Q.Q.W.2X:XzXzXzXzXzXzXzXzXzXzXzXzXzXzXzXzXzXzXzX",
"zXzXzXzXzXzXzXzXzXzXzXzXzXzXzXzXzXXXXXXXXX|.XX@X@X@X@X#X#XOXoXoX#X&X:XR.b.hXjXlX6XW.6X:X;XzXzXzXzXzXzXzXzXzXzXzXzXzXzXzXzXzXzXzX",
"zXzXzXzXzXzXzXzXzXzXzXzXzXzXzXzXzX'.{.'.'.}..X+X.X.XXXXXXXXX|.@X@X X@X&XW.m.2Xx.W.6X3X&X&Xl zXzXzXzXzXzXzXzXzXzXzXzXzXzXzXzXzXzX",
"zXzXzXzXzXzXzXzXzXzXzXzXzXzXzXzXzXz ]._.].].[.{.'.'.'..X.X.X|..X|.XXXX@X@X6X' J.Q.Q.&XoX Xd.zXzXzXzXzXzXzXzXzXzXzXzXzXzXzXzXzXzX",
"zXzXzXzXzXzXzXzXzXzXzXzXzXzXzXzXzXzXz )._._.`._.].].].%X[.'.[.[.[..X.X.X.XXX6X3XQ.&X@X@X@X@XzXzXzXzXzXzXzXzXzXzXzXzXzXzXzXzXzXzX",
"zXzXzXzXzXzXzXzXzXzXzXzXzXzXzXzXzXy ,.S _.$X).).).`.`.'._._.].].].'.'.{..X'..X.X.X.X.XXXXX+XzXzXzXzXzXzXzXzXzXzXzXzXzXzXzXzXzXzX",
"zXzXzXzXzXzXzXs c zXzXzXzXzXzXzXu.0X0X&.M 0 |.{.~./.~.).}.'.$X(.).$Xx $X_.].].].[.'.{.'.'.+XzXzXzXzXzXzXzXzXzXzXzXzXzXzXzXzXzXzX",
"zXzXzXzXzXzXzXs.sX9XQ.6X7X9X9X9X9X6XQ.Q.' ,.r =.{ ^ ~ ( p.^ @X(.(.(.(.(.(.$X`.).`._.`.].].@XrXsXeXzXzXzXzXzXzXzXzXzXzXzXzXzXzXzX",
"zXzXzXzXzXzXzX<X6XQ.x.[ z.c.J.J.R.E.Q.6X6XA % t 2.x.z.l.o.o.' OX(./././.(.^.^.(.`.(.$X_.@XN.Q.Q.6XsXiXqX5X0XsXyXzXzXzXzXzXzXzXzX",
"zXzXzXzXzXzXk eXQ.H.zXzXzXzXzXzXzXQ [ h.W.o.=.,.*.=.F.z.c.v.v.' |..X/./././././.~.{.@Xd.{ E.Q.Q.Q.6XQ.E.J.J.W.9Xs.zXzXzXzXzXzXzX",
"zXzXzXzXzXzXeXT.Q.c.zXzXzXzXzXzXzX! c.[ h.R.A ,.  M =.6X6XW.6X6XF.^ a. X@X@X@X X|.^ `  .} j y.G.R.J.z.f zXzXc.Q.tXl zXzXzXzXzXzX",
"zXzXzXzXzXl 3XQ.E./ zXzXzXzXzXzXzXU H.h.z.Y.L 1.Z *.1.&.Q.Q.Q.Q.6XF.H.F.F.c.v.v.v.o.....v.d zXzXzXzXzXzXzXzX[ 6XW.eXzXzXzXzXzXzX",
"zXzXzXzXzX>XQ.W.H.zXzXzXzXzXzXzXzXzXH.K.Q.W.` ,.1.1.& ;.&.Q.Q.Q.6XW.R.J.H.H.H.F.F.c.v.v.Q.Z.zXzXzXzXzXzXzXzX9 J.Y.3XR zXzXzXzXzX",
"zXzXzXzXzXiX6XR.9 zXzXzXzXzXzXzXzXzXJ.W.6XQ.| =.< 1.1.1 C r.Q.Q.W.6XW.L.R.J.J.J.J.H.J.Q.Q.N.aXzXzXzXzXzXzXzXzX9 J.Q.Z.zXzXzXzXzX",
"zXzXzXzXzX9X6XD zXzXzXzXzXzXzXzXzXzXR.Q.Q.Q. .=.,.i . *.@ 3.r.6X3XL.V.T.S.Y.L.6XW.Q.Q.T.Y.W.6Xs.zXzXzXzXzXzXzXzXf.6Xs.zXzXzXzXzX",
"zXzXzXzXzX6XQ.zXzXzXzXzXzXzXzXzXzXd Q.Q.Q.6X| K 3.<   i 1.1.1.J Q.Y.6XT.6XW.6X6XQ.6XQ.] W.Q.6XuXzXzXzXzXzXzXzXzXT 6XR zXzXzXzXzX",
"zXzXzXzX7XQ.6XzXzXzXzXzXzXzXzXzXzXB.Q.Q.Q.Q.` ,.<.#.M ;.6.6.6.;.A Y.Q.Y.U.6X6XW.Q.Q.Q.Q.Q.Q.Q.6Xa.zXzXzXzXzXzXzXY Q.i.zXzXzXzXzX",
"zXzXY.7X9X9X6Xp.T zXzXzXzXzXzXzXzXQ.Q.Q.Q.E.P 1.Z   > M r < #.% :.S W.W.6XW.W.6XQ.Q.Q.Q.Q.Q.Q.Q.yXzXzXzXzXzXzXzXn.Q.6X0 zXzXzXzX",
"zXE 6XiXqXrXuXiX6X6XzXzXzXzXzXzXa Q.Q.Q.6Xc.A 6.6.N 3.1.-.B 3.O 6.3.K L.W.6X6XW.Q.Q.Q.Q.Q.Q.Q.Q.uXzXzXzXzXzXV.Q.Y.6XtX9X7XN.zXzX",
"zXQ.eXiXrXqXrXyXtXQ.j zXzXzXzXzXa.Q.Q.Q.Q.l.K 6.6.;.6.> 6.6.B 6.6.C B ,.k.3X6X6X6XW.6XW.6X6XW.Q.tXzXzXzXzXzXQ.Q.tXuXuXuXuXtX~ zX",
"d 9X4X8XqX5X4XiXtX6Xj zXzXzXzXzX>XQ.Q.Q.W.J =.6.r w 7.#.1 i 6.7.N <.$ +.2.S W.W.W.6XQ.6XW.6X6XQ.9Xa zXzXzXj Q.6XuXuXiXiXeX4XpXzX",
"V.9X9X9X7X3X9X9X9Xa zXzXzXzXzXzX5XQ.Q.Q.D.=.6.7.7.7.7.C . #.7.w     +.7.7.6.=.j.Q.Q.Q.Q.6XW.6X6X7Xs zXzXzXj Q.7XrX8X5X2X5X5XpXT ",
"W W.6X6X7X6X6X9XQ.zXzXzXzXzXr 7.Y.Q.Q.I.K ,.8.,.6.7.7.7.5.7.7.#.o . C 7.7.7.7.1.K G.Q.Q.W.6XW.6X7XzXzXzXzXzXT W.9X7X3X7X7X3XQ.] ",
"zXb.J.R.W.W.W.E.E.zXzXzXzXzX7.3.e.j.&.;.;.7.8.< u 7.7.7.7.7.7.< $ 7.7.7.8.7.< 7.7.1.=.j.6X6X6X3X6Xy zXzXzXzXzXQ Q.Q.Q.Q.Q.Q.J.h.",
"zXQ d Q H.K.J.J.G.zXzXzXzXzX:.7.9.7.<.    #.9.w q.q.7.+.-.q.7.7.8.8.8.9.;.C 7.9.i u q.6.:.=.e.k.e.7.zXzXzXzXzXh.H.W.Q.6XE.J.K.f.",
"zXzXzXzXD zXzXQ zXzXzXzXzXzXzX@.q.9.7.i M q.i 9.q.q.<   +.3.q.9.8.8.8.w .   1 7.q.5.q.u # B 4.q.9.9.zXzXzXzXzXD.H.J.J.J.U C.zXzX",
"zXzXzXzXzXzXzXzXzXzXzXzXzXzXzXzX3.9.7.9.9.3.  t q.: e V @   :.+.< r 9.i       4.< <.. * 4.@.@ M 8.+.zXzXzXzXzXd J.J.zXzXzXzXzXzX",
"zXzXzXzXzXzXzXzXzXzXzXzXzXzXzXzX8.9.% > 9.9.:.:.9.w o V & #.4.      +.9.B . * 4.% B   . ;.9.9.9.9.zXzXzXzXzXzXzXzXzXzXzXzXzXzXzX",
"zXzXzXzXzXzXzXzXzXzXzXzXzXzXzXzXi =.,.<.C 9.9.0.9.r M :.9.0.9.#     N 4.9.9.+.% w 0.4.4.7.9.9.9.zXzXzXzXzXzXzXzXzXzXzXzXzXzXzXzX",
"zXzXzXzXzXzXzXzXzXzXzXzXzXzXzXzXzXzXG P A ;.,.3.9.i   :.0.5.q.9.@.+.@ r 9.9.q.4.u t 9.9.1 +.9.H zXzXzXzXzXzXzXzXzXzXzXzXzXzXzXzX",
"zXzXzXzXzXzXzXzXzXzXzXzXzXzXzXzXzXzXG  ...l.P 2.,.1.9.0.0.w 4.0.u V u 0.+.o q.h     3.0.0.6.L I zXzXzXzXzXzXzXzXzXzXzXzXzXzXzXzX",
"zXzXzXzXzXzXzXzXzXzXzXzXzXzXzXzXzXzXf z.c.c.c.c.e ;.,.w.0.0.-.0.0.w.0.0.0.N 0.0.#.h 0.0.6.L I G zXzXzXzXzXzXzXzXzXzXzXzXzXzXzXzX",
"zXzXzXzXzXzXzXzXzXzXzXzXzXzXzXzXzXzXzXE.Q.Q.6XQ.zXzX$.6.0.y   $ 0.@.5.w N . -.w.w.0.9.<.L } P zXzXzXzXzXzXzXzXzXzXzXzXzXzXzXzXzX",
"zXzXzXzXzXzXzXzXzXzXzXzXzXzXzXzXzXzXzXQ.Q.Q.6XE.zXzXzXB 1.@.@ $ w.$ @ @.@ :.o 5.0.1.$.| ..l.zXzXzXzXzXzXzXzXzXzXzXzXzXzXzXzXzXzX",
"zXzXzXzXzXzXzXzXzXzXzXzXzXzXzXzXzXzXV.Q.6XQ.J._ zXzXzXzXy 1.9.w.w.w.w.w . < w.9.,.J v.W.Q.p.zXzXzXzXzXzXzXzXzXzXzXzXzXzXzXzXzXzX",
"zXzXzXzXzXzXzXzXzXzXzXzXzXzXzXzXzXU.Q.Q.9XW.F zXzXzXzXzXzXzXZ 1.5.4.6.9.9.6.,.u zXM.Q.Q.W.zXzXzXzXzXzXzXzXzXzXzXzXzXzXzXzXzXzXzX",
"zXzXzXzXzXzXzXzXzXzXzXzXzXzXzXzXY.Q.G.H.H.H.zXzXzXzXzXzXzXzXzXzXr M C M r zXzXzXzXj Q.Q.P.zXzXzXzXzXzXzXzXzXzXzXzXzXzXzXzXzXzXzX",
"zXzXzXzXzXzXzXzXzXzXzXzXzXzXzXzXQ.Q.Q.G.f.C.zXzXzXzXzXzXzXzXzXzXzXzXzXzXzXzXzXzXzXp.E.Q.i.zXzXzXzXzXzXzXzXzXzXzXzXzXzXzXzXzXzXzX",
"zXzXzXzXzXzXzXzXzXzXzXzXzXzXzXzXQ.Q.Q.Q.Q.d zXzXzXzXzXzXzXzXzXzXzXzXzXzXzXzXzXzXzXW.D.6XsXeXu.a zXzXzXzXzXzXzXzXzXzXzXzXzXzXzXzX",
"zXzXzXzXzXzXzXzXzXzXzXzXzXzXzXzXY.Q.Q.Q.! zXzXzXzXzXzXzXzXzXzXzXzXzXzXzXzXzXzXzXW.Q.Q.Q.9XyXeXqXqX0 zXzXzXzXzXzXzXzXzXzXzXzXzXzX",
"zXzXzXzXzXzXzXzXzXzXzXzXzXzXzXzX^ Q.Q.Q.E.zXzXzXzXzXzXzXzXzXzXzXzXzXzXzXzXzXzXU E.6XQ.Q.6XQ.9XtXtX9Xi.P.( 9 zXzXzXzXzXzXzXzXzXzX",
"zXzXzXzXzXzXzXzXzXzXzXzXzXzXzXzXV.Q.Q.Q.W.zXzXzXzXzXzXzXzXzXzXzXzXzXzXzXzXzXzXf { o.l.F.Q.Q.Q.Q.6XY.A.A.B.U.U zXzXzXzXzXzXzXzXzX",
"zXzXzXzXzXzXzXzXzXzXzXzXzXzXzXzXQ.iXyXyX6XzXzXzXzXzXzXzXzXzXzXzXzXzXzXzXzXzXzXzXzXzXzXzXc.W.W.J.H.R.W.6Xg.n.U zXzXzXzXzXzXzXzXzX",
"zXzXzXzXzXzXzXzXzXzXzXzXzXzXzXE tXaXyXeXsXV.zXzXzXzXzXzXzXzXzXzXzXzXzXzXzXzXzXzXzXzXzXzXzXf F 0 zXzXF Y zXzXzXzXzXzXzXzXzXzXzXzX",
"zXzXzXzXzXzXzXzXzXzXzXzXzXzXzX6XiXeXeXyXiX0X~ zXzXzXzXzXzXzXzXzXzXzXzXzXzXzXzXzXzXzXzXzXzXzXzXzXzXzXzXzXzXzXzXzXzXzXzXzXzXzXzXzX",
"zXzXzXzXzXzXzXzXzXzXzXzXzXzXN.7X8X5X>X>X4XiX6XV.zXzXzXzXzXzXzXzXzXzXzXzXzXzXzXzXzXzXzXzXzXzXzXzXzXzXzXzXzXzXzXzXzXzXzXzXzXzXzXzX",
"zXzXzXzXzXzXzXzXzXzXzXzXzXzXY.Q.7X7X7X9X9X9X6XQ.A.zXzXzXzXzXzXzXzXzXzXzXzXzXzXzXzXzXzXzXzXzXzXzXzXzXzXzXzXzXzXzXzXzXzXzXzXzXzXzX",
"zXzXzXzXzXzXzXzXzXzXzXzXzXE Y.W.Q.Q.1XQ.Q.W.6XQ.p.zXzXzXzXzXzXzXzXzXzXzXzXzXzXzXzXzXzXzXzXzXzXzXzXzXzXzXzXzXzXzXzXzXzXzXzXzXzXzX",
"zXzXzXzXzXzXzXzXzXzXzXzXzXf ] U.U.Q.A.6X[ ] W.P.B.zXzXzXzXzXzXzXzXzXzXzXzXzXzXzXzXzXzXzXzXzXzXzXzXzXzXzXzXzXzXzXzXzXzXzXzXzXzXzX",
"zXzXzXzXzXzXzXzXzXzXzXzXzXzXzXH.m.T.n.Y.f zXE.6XW.h.zXzXzXzXzXzXzXzXzXzXzXzXzXzXzXzXzXzXzXzXzXzXzXzXzXzXzXzXzXzXzXzXzXzXzXzXzXzX",
"zXzXzXzXzXzXzXzXzXzXzXzXzXzXzXzXzXg zXY zXzXQ G.m.zXzXzXzXzXzXzXzXzXzXzXzXzXzXzXzXzXzXzXzXzXzXzXzXzXzXzXzXzXzXzXzXzXzXzXzXzXzXzX"
};
