/* XPM */
static char *result[] = {
/* columns rows colors chars-per-pixel */
"64 62 156 2 ",
"   c #040000",
".  c #0B0304",
"X  c #04090D",
"o  c #04070C",
"O  c #130006",
"+  c #1B0009",
"@  c #130A0B",
"#  c #1A0A0D",
"$  c #120709",
"%  c #1F0D11",
"&  c #1C1213",
"*  c #1A1616",
"=  c #26000E",
"-  c #2A000F",
";  c #220E13",
":  c #310012",
">  c #3C0017",
",  c #2D1319",
"<  c #271919",
"1  c #2D1D1E",
"2  c #231516",
"3  c #32151C",
"4  c #3A1921",
"5  c #2A2727",
"6  c #3D2729",
"7  c #3E2829",
"8  c #352223",
"9  c #3A3838",
"0  c #46001C",
"q  c #4A001D",
"w  c #500020",
"e  c #5B0024",
"r  c #411C26",
"t  c #610027",
"y  c #640028",
"u  c #6C002B",
"i  c #77002F",
"p  c #79002F",
"a  c #7F0032",
"s  c #4C222D",
"d  c #422B2C",
"f  c #4C3234",
"g  c #513537",
"h  c #55393A",
"j  c #56393B",
"k  c #682F3E",
"l  c #69303F",
"z  c #032944",
"x  c #023455",
"c  c #6C3141",
"v  c #703242",
"b  c #024672",
"n  c #514F4F",
"m  c #575455",
"M  c #644345",
"N  c #6A4649",
"B  c #6D494B",
"V  c #775052",
"C  c #7B5255",
"Z  c #636060",
"A  c #716F6F",
"S  c #7B7A7A",
"D  c #830034",
"F  c #8B0036",
"G  c #8B0038",
"H  c #93003B",
"J  c #9B003D",
"K  c #9E0040",
"L  c #A20041",
"P  c #AB0045",
"I  c #B00047",
"U  c #BB004C",
"Y  c #813A4D",
"T  c #8B3F53",
"R  c #C1004E",
"E  c #C60051",
"W  c #CC0053",
"Q  c #D40056",
"!  c #DD005A",
"~  c #E0005B",
"^  c #E10A61",
"/  c #E3216F",
"(  c #E63A7F",
")  c #E6367D",
"_  c #914157",
"`  c #95445A",
"'  c #9C475E",
"]  c #84585B",
"[  c #8C5E61",
"{  c #A44A63",
"}  c #AA4D66",
"|  c #AE4F69",
" . c #B3516C",
".. c #BF5773",
"X. c #8F6063",
"o. c #966568",
"O. c #9A686B",
"+. c #A36E72",
"@. c #AA7276",
"#. c #AE7579",
"$. c #A67073",
"%. c #C85B79",
"&. c #C25875",
"*. c #015083",
"=. c #015388",
"-. c #015D97",
";. c #0067A8",
":. c #0165A4",
">. c #0075BF",
",. c #0076C0",
"<. c #B77C80",
"1. c #BB7E82",
"2. c #E74385",
"3. c #E8538F",
"4. c #E95B94",
"5. c #D56180",
"6. c #DD6586",
"7. c #E26788",
"8. c #E6698B",
"9. c #EB6B8E",
"0. c #EB6995",
"q. c #EC6E98",
"w. c #EC7392",
"e. c #ED7995",
"r. c #EE7F98",
"t. c #ED739A",
"y. c #EB6DA0",
"u. c #EC72A3",
"i. c #8A8888",
"p. c #BE8184",
"a. c #BEBDBD",
"s. c #CC8A8E",
"d. c #C5868A",
"f. c #CE8C90",
"g. c #D08D91",
"h. c #D79296",
"j. c #DB9599",
"k. c #D89397",
"l. c #EF839D",
"z. c #EF889C",
"x. c #F08E9F",
"c. c #E2999E",
"v. c #EF87A0",
"b. c #F08DA2",
"n. c #E69CA1",
"m. c #EA9FA4",
"M. c #F092A3",
"N. c #F29CA6",
"B. c #EE8BB3",
"V. c #EDA1A6",
"C. c #F3A5AA",
"Z. c #CFCECE",
"A. c #EBEAEA",
"S. c #FFFFFF",
"D. c #F3F3F3",
"F. c None",
/* pixels */
"F.F.F.F.F.F.F.F.F.F.F.F.F.F.F.F.F.F.F.F.F.F.F.F.F.F.F.F.F.F.F.F.F.F.F.F.F.F.F.F.F.F.F.F.F.F.F.F.F.F.F.F.F.F.F.F.F.F.F.F.F.F.F.F.",
"F.F.F.F.F.F.F.F.F.F.F.F.F.F.F.F.F.F.F.F.F.F.F.F.F.F.F.F.F.F.F.F.F.F.F.F.F.F.F.F.F.F.F.F.F.F.F.F.F.F.F.F.F.F.F.F.F.F.F.F.F.F.F.F.",
"F.F.F.F.F.F.F.F.F.F.F.F.F.F.F.F.F.F.F.F.F.F.F.F.F.F.F.F.F.F.F.F.F.F.F.F.F.F.F.F.F.F.F.F.F.F.F.F.F.F.F.F.F.F.F.F.F.F.F.F.F.F.F.F.",
"F.F.F.F.F.F.F.F.F.F.F.F.F.F.F.F.F.F.F.F.F.F.F.F.F.F.F.F.F.F.F.F.F.F.F.F.F.F.F.F.F.F.F.F.F.F.F.F.F.F.F.F.F.F.F.F.F.F.F.F.F.F.F.F.",
"F.F.F.F.F.F.F.F.F.F.F.F.F.F.F.F.F.F.F.F.F.F.F.F.F.F.F.F.F.F.F.F.F.F.F.F.F.F.F.F.F.F.F.F.F.F.F.F.F.F.F.F.F.F.F.F.F.F.F.F.F.F.F.F.",
"F.F.F.F.F.F.F.F.F.F.F.F.F.F.F.F.F.F.F.F.F.F.F.F.F.F.F.F.F.F.F.F.F.F.F.F.F.F.F.F.F.F.F.F.F.F.F.F.F.F.F.F.F.F.F.F.F.F.F.F.F.F.F.F.",
"F.F.F.F.F.F.F.F.F.F.F.F.F.F.F.F.F.F.F.F.F.F.F.F.F.F.F.F.F.F.F.F.F.F.F.F.F.F.F.F.F.F.F.F.F.F.F.F.F.F.F.F.F.F.F.F.F.F.F.F.F.F.F.F.",
"F.F.F.F.F.F.F.F.F.F.F.F.F.F.F.F.F.F.F.F.F.F.F.F.F.F.F.F.F.            F.F.F.F.F.F.F.F.F.F.F.F.F.F.F.F.F.F.F.F.F.F.F.F.F.F.F.F.F.",
"F.F.F.F.F.F.F.F.F.F.F.F.F.F.F.F.F.F.F.F.F.F.F.F.F.    2 B #.g.j.j.f.@.N 2     F.F.F.F.F.F.F.F.F.F.F.F.F.F.F.F.F.F.F.F.F.F.F.F.F.",
"F.F.F.F.F.F.F.F.F.F.F.F.F.F.F.F.F.F.F.F.F.F.F.  8 d.C.C.C.C.C.C.C.C.C.C.C.C.p.1   F.F.F.F.F.F.F.F.F.F.F.F.F.F.F.F.F.F.F.F.F.F.F.",
"F.F.F.F.F.F.F.F.F.F.F.F.F.F.F.F.F.F.F.F.F.  f V.C.C.C.C.C.C.C.C.C.C.C.C.C.C.C.C.n.7   F.F.F.F.F.F.F.F.F.F.F.F.F.F.F.F.F.F.F.F.F.",
"F.F.F.F.F.F.F.F.F.F.F.F.F.F.F.F.F.F.F.  $ k.C.C.C.C.C.C.C.C.C.C.C.C.C.C.C.C.C.C.C.C.f..   F.F.F.F.F.F.F.F.F.F.F.F.F.F.F.F.F.F.F.",
"F.F.F.F.F.F.F.F.F.F.F.F.F.F.F.F.F.F.  f C.C.C.C.C.C.C.C.C.C.C.C.C.C.C.C.C.C.C.C.C.C.C.C.7   F.F.F.F.F.F.F.F.F.F.F.F.F.F.F.F.F.F.",
"F.F.F.F.F.F.F.F.F.F.F.F.F.F.F.F.F.  C C.C.C.C.C.C.C.C.C.C.C.C.C.C.C.C.C.C.C.C.C.C.C.C.C.C.M   F.F.F.F.F.F.F.F.F.F.F.F.F.F.F.F.F.",
"F.F.F.F.F.F.F.F.F.F.F.F.F.F.F.F.  C C.C.C.C.C.C.C.C.C.C.C.C.C.C.C.C.C.C.C.C.C.C.C.C.C.C.C.C.M   F.F.F.F.F.F.F.F.F.F.F.F.F.F.F.F.",
"F.F.F.F.F.F.F.F.F.F.F.F.F.F.F.  g C.C.C.C.C.C.C.C.C.f & j.C.C.C.C.C.C.g.& j C.C.C.C.C.C.C.C.C.7   F.F.F.F.F.F.F.F.F.F.F.F.F.F.F.",
"F.F.F.F.F.F.F.F.F.F.F.F.F.F.F.@ C.C.C.C.C.C.C.C.C.o.Z.S.* C.C.C.C.C.C.* S.a.@.C.C.C.C.C.C.C.C.C.$ F.F.F.F.F.F.F.F.F.F.F.F.F.F.F.",
"F.F.F.F.F.F.F.F.F.F.F.F.F.F.  j.C.C.C.C.C.C.C.C.C.& S.S.Z c.C.C.C.C.j.S S.S.< C.C.C.C.C.C.C.C.C.f.  F.F.F.F.F.F.F.F.F.F.F.F.F.F.",
"F.F.F.F.F.F.F.F.F.F.F.F.F.F.j C.C.C.C.C.C.C.C.C.C.  S.S.A #.C.C.C.C.o.i.S.S.  C.C.C.C.C.C.C.C.C.C.7 F.F.F.F.F.F.F.F.F.F.F.F.F.F.",
"F.F.F.F.F.F.F.F.F.F.F.F.F.  V.C.C.C.C.C.C.C.C.C.V.  D.S.5 C C.C.C.C.M 9 S.A.  C.C.C.C.C.C.C.C.C.C.n.  F.F.F.F.F.F.F.F.F.F.F.F.F.",
"F.F.F.F.F.F.F.F.F.F.F.F.F.d C.C.C.C.C.C.C.C.C.C.V.  * n   M C.C.C.C.g   m @   C.C.C.C.C.C.C.C.C.C.C.1 F.F.F.F.F.F.F.F.F.F.F.F.F.",
"F.F.F.F.F.F.F.F.F.F.F.    f.C.C.C.C.C.C.C.C.C.C.V.        M C.C.C.C.f         C.C.C.C.C.C.C.C.C.C.C.p.    F.F.F.F.F.F.F.F.F.F.F.",
"F.F.F.F.F.F.F.F.F.F.  p.  C.C.C.C.C.C.C.C.C.C.C.C.      X C C.C.C.C.M o     o C.C.C.C.C.C.C.C.C.C.C.C.. #.  F.F.F.F.F.F.F.F.F.F.",
"F.F.F.F.F.F.F.F.F.@ V.m.M C.C.C.C.C.C.C.C.C.C.C.C.X :.*.=.+.C.C.C.C.[ -.*.;.o C.C.C.C.C.C.C.C.C.C.C.C.7 C.n.$ F.F.F.F.F.F.F.F.F.",
"F.F.F.F.F.F.F.F.$ C.C.C.C.C.C.C.C.C.C.b.u.M.C.C.C.# ,.,.z k.C.C.C.C.f.x ,.,.& C.C.C.b.v.b.N.N.C.C.C.C.m.C.C.V.. F.F.F.F.F.F.F.F.",
"F.F.F.F.F.F.F.  c.C.C.C.C.C.C.C.C.l.0.0.0.0.0.N.C.C *.,.o C.C.C.C.C.C.  ,.b X.C.M.0.0.0.0.0.b.C.C.C.C.C.C.C.C.j.  F.F.F.F.F.F.F.",
"F.F.F.F.F.F.  ] C.C.C.C.C.C.C.C.C.0.0.0.0.0.0.y.C.C.& . <.C.C.C.C.C.C.@.  < C.C.q.0.0.0.0.0.0.C.C.C.C.C.C.C.C.C.B   F.F.F.F.F.F.",
"F.F.F.F.F.F.  C.C.C.C.N.C.C.C.C.C.r.0.0.0.0.0.N.C.C.C.C.C.C.C.C.C.C.C.C.C.C.C.C.M.0.0.0.y.0.v.N.C.C.C.C.C.C.C.C.C.  F.F.F.F.F.F.",
"F.F.F.F.F.F.j C.C.C.C.N.C.C.C.C.C.C.C.b.v.b.C.C.C.C.C.C.C.h n.C.C.j.N C.C.C.C.C.C.C.b.l.x.C.C.C.C.C.C.N.C.C.C.C.C.7 F.F.F.F.F.F.",
"F.F.F.F.F.  1.C.C.C.C.N.x.C.C.C.C.C.C.C.C.C.C.C.C.C.C.C.C.C.O.6 7 @.C.C.C.C.C.C.C.C.C.C.C.C.C.C.C.C.C.l.C.C.C.C.C.+.  F.F.F.F.F.",
"F.F.F.F.F.  j.C.C.C.C.C.w.C.C.C.C.C.C.C.C.C.C.C.C.C.C.C.C.C.C.C.C.C.C.C.C.C.C.C.C.C.C.C.C.C.C.C.C.C.C.w.C.C.C.C.C.s.  F.F.F.F.F.",
"F.F.F.F.F.  s.C.C.C.C.C.9.C.C.C.C.C.C.C.C.C.C.C.C.C.C.C.C.C.C.C.C.C.C.C.C.C.C.C.C.C.C.C.C.C.C.C.C.C.C.9.C.C.C.C.C.#.  F.F.F.F.F.",
"F.F.F.F.F.F.l N.C.C.C.C.9.z.C.C.C.C.C.C.C.C.C.C.C.C.C.C.C.C.C.C.C.C.C.C.C.C.C.C.C.C.C.C.C.C.C.C.C.C.r.w.C.C.C.C.N.s F.F.F.F.F.F.",
"F.F.F.F.F.F.  8.9.e.w.9.%.9.C.C.C.C.C.C.C.C.C.C.C.C.C.C.C.C.C.C.C.C.C.C.C.C.C.C.C.C.C.C.C.C.C.C.C.C.9.7.9.w.e.9.7.  F.F.F.F.F.F.",
"F.F.F.F.F.F.F.@ 7.9.9.9.` %.l.C.C.C.C.C.C.C.C.C.C.C.C.C.C.C.C.C.C.C.C.C.C.C.C.C.C.C.C.C.C.C.C.C.C.e.%.v 9.9.9.6.. F.F.F.F.F.F.F.",
"F.F.F.F.F.F.F.F.  r } %. ., 9.N.C.C.C.C.C.C.C.C.C.C.C.C.C.C.C.C.C.C.C.C.C.C.C.C.C.C.C.C.C.C.C.C.N.9.r } %.{ 4   F.F.F.F.F.F.F.F.",
"F.F.F.F.F.F.F.F.F.F.        6.9.C.C.C.C.C.C.C.C.C.C.C.C.C.C.C.C.C.C.C.C.C.C.C.C.C.C.C.C.C.C.C.C.9.7.        F.F.F.F.F.F.F.F.F.F.",
"F.F.F.F.F.F.F.F.F.F.F.F.F.F.4 9.e.C.C.C.C.C.C.C.C.C.C.C.C.C.C.C.C.C.C.C.C.C.C.C.C.C.C.C.C.C.C.w.9., F.F.F.F.F.F.F.F.F.F.F.F.F.F.",
"F.F.F.F.F.F.F.F.F.F.F.F.F.F.  &.9.r.C.C.C.C.C.C.C.C.C.C.C.C.C.C.C.C.C.C.C.C.C.C.C.C.C.C.C.C.w.9.|   F.F.F.F.F.F.F.F.F.F.F.F.F.F.",
"F.F.F.F.F.F.F.F.F.F.F.F.F.F.    9.9.w.C.C.C.C.C.C.C.C.C.C.C.C.C.C.C.C.C.C.C.C.C.C.C.C.C.C.w.9.8.    F.F.F.F.F.F.F.F.F.F.F.F.F.F.",
"F.F.F.F.F.F.F.F.F.F.F.F.F.O Q a , 9.9.9.N.C.C.C.C.C.C.C.C.C.C.C.C.C.C.C.C.C.C.C.C.C.C.N.9.9.9.; H D   F.F.F.F.F.F.F.F.F.F.F.F.F.",
"F.F.F.F.F.F.F.F.F.F.F.F.+ ! ~ ~ q s 9.9.9.l.C.C.C.C.C.C.C.C.C.C.C.C.C.C.C.C.C.C.C.C.l.9.9.9.4 e ~ ~ P   F.F.F.F.F.F.F.F.F.F.F.F.",
"F.F.F.F.F.F.F.F.F.F.F.. ! ~ ~ ~ ~ > s 9.9.9.9.x.C.C.C.C.C.C.C.C.C.C.C.C.C.C.C.C.l.9.9.9.9.4 q ~ ~ ~ ~ L   F.F.F.F.F.F.F.F.F.F.F.",
"F.F.F.F.F.F.F.F.F.F.  W ~ ~ ~ ~ ~ ~ q ; 8.9.9.9.9.w.x.C.C.C.C.C.C.C.C.C.C.z.w.9.9.9.9.7.# t ~ ~ ~ ~ ~ ~ e   F.F.F.F.F.F.F.F.F.F.",
"F.F.F.F.F.F.F.F.F.  i ~ ~ ~ ~ ~ ~ ~ ~ H   | 9.9.9.9.9.9.9.9.w.w.r.w.9.9.9.9.9.9.9.9.'   L ~ ~ ~ ~ ~ ~ ~ ~ . F.F.F.F.F.F.F.F.F.F.",
"F.F.F.F.F.F.F.F.F.  ! ! ~ ~ ~ ~ ~ ~ ~ ~ Q - # %.9.9.9.9.9.9.9.9.9.9.9.9.9.9.9.9...# : Q ~ ~ ~ ~ ~ ~ ~ ~ ~ J   F.F.F.F.F.F.F.F.F.",
"F.F.F.F.F.F.F.F.F.t 2.( ~ ~ ~ ~ ~ ~ ~ ~ ~ ~ U + $ T 8.9.9.9.9.9.9.9.9.9.9.7.Y $ = R ~ ~ ~ ~ ~ ~ ~ ~ ~ ~ u.^   F.F.F.F.F.F.F.F.F.",
"F.F.F.F.F.F.F.F.  E B.3.~ ~ ~ ~ ~ ~ ~ ~ ~ ~ ~ ~ Q y . . 3 c ` | } ` k , . . u Q ! ~ ~ ~ ~ ~ ~ ~ ~ ~ ~ ~ B.y.> F.F.F.F.F.F.F.F.F.",
"F.F.F.F.F.F.F.F.  ~ 4.~ ~ ~ ~ ~ ~ ~ ~ ~ ~ ~ ~ ~ ~ ~ R F p -         e p F ~ ~ ~ ~ ~ ~ ~ ~ ~ ~ ~ ~ ~ ~ ~ / ) G   F.F.F.F.F.F.F.F.",
"F.F.F.F.F.F.F.F.  ~ ~ ~ ~ ~ ~ ~ ~ ~ ~ ~ ~ ~ ~ ~ ~ Q F F t   F.F.F.F.. D F J ~ ~ ~ ~ ~ ~ ~ ~ ~ ~ ~ ~ ~ ~ ~ ~ L   F.F.F.F.F.F.F.F.",
"F.F.F.F.F.F.F.F.  ! ~ ~ ~ ~ ~ ~ ~ ~ ~ ~ ~ ~ ~ ~ Q F F :   F.F.F.F.F.F.  u F J ~ ~ ~ ~ ~ ~ ~ ~ ~ ~ ~ ~ ~ ~ ~ u F.F.F.F.F.F.F.F.F.",
"F.F.F.F.F.F.F.F.  0 ~ ~ ~ ~ ~ ~ ~ ~ ~ ~ ~ ~ ~ E F t     F.F.F.F.F.F.F.F.  + a J ~ ~ ~ ~ ~ ~ ~ ~ ~ ~ ~ ~ ~ Q   F.F.F.F.F.F.F.F.F.",
"F.F.F.F.F.F.F.F.F.  + R ~ ~ ~ ~ ~ ~ ~ ! ~ ~ J 0     F.F.F.F.F.F.F.F.F.F.F.F.  O u R ~ ~ ~ ~ ~ ~ ~ ~ ~ ~ D   F.F.F.F.F.F.F.F.F.F.",
"F.F.F.F.F.F.F.F.F.F.F.    q H U W W U J q       F.F.F.F.F.F.F.F.F.F.F.F.F.F.F.F.    + u P E W E I i =     F.F.F.F.F.F.F.F.F.F.F.",
"F.F.F.F.F.F.F.F.F.F.F.F.F.F.            F.F.F.F.F.F.F.F.F.F.F.F.F.F.F.F.F.F.F.F.F.F.F.F.          F.F.F.F.F.F.F.F.F.F.F.F.F.F.F.",
"F.F.F.F.F.F.F.F.F.F.F.F.F.F.F.F.F.F.F.F.F.F.F.F.F.F.F.F.F.F.F.F.F.F.F.F.F.F.F.F.F.F.F.F.F.F.F.F.F.F.F.F.F.F.F.F.F.F.F.F.F.F.F.F.",
"F.F.F.F.F.F.F.F.F.F.F.F.F.F.F.F.F.F.F.F.F.F.F.F.F.F.F.F.F.F.F.F.F.F.F.F.F.F.F.F.F.F.F.F.F.F.F.F.F.F.F.F.F.F.F.F.F.F.F.F.F.F.F.F.",
"F.F.F.F.F.F.F.F.F.F.F.F.F.F.F.F.F.F.F.F.F.F.F.F.F.F.F.F.F.F.F.F.F.F.F.F.F.F.F.F.F.F.F.F.F.F.F.F.F.F.F.F.F.F.F.F.F.F.F.F.F.F.F.F.",
"F.F.F.F.F.F.F.F.F.F.F.F.F.F.F.F.F.F.F.F.F.F.F.F.F.F.F.F.F.F.F.F.F.F.F.F.F.F.F.F.F.F.F.F.F.F.F.F.F.F.F.F.F.F.F.F.F.F.F.F.F.F.F.F.",
"F.F.F.F.F.F.F.F.F.F.F.F.F.F.F.F.F.F.F.F.F.F.F.F.F.F.F.F.F.F.F.F.F.F.F.F.F.F.F.F.F.F.F.F.F.F.F.F.F.F.F.F.F.F.F.F.F.F.F.F.F.F.F.F.",
"F.F.F.F.F.F.F.F.F.F.F.F.F.F.F.F.F.F.F.F.F.F.F.F.F.F.F.F.F.F.F.F.F.F.F.F.F.F.F.F.F.F.F.F.F.F.F.F.F.F.F.F.F.F.F.F.F.F.F.F.F.F.F.F.",
"F.F.F.F.F.F.F.F.F.F.F.F.F.F.F.F.F.F.F.F.F.F.F.F.F.F.F.F.F.F.F.F.F.F.F.F.F.F.F.F.F.F.F.F.F.F.F.F.F.F.F.F.F.F.F.F.F.F.F.F.F.F.F.F."
};
