/* XPM */
static char *result[] = {
/* columns rows colors chars-per-pixel */
"64 60 189 2 ",
"   c #000001",
".  c #05040A",
"X  c #0A060A",
"o  c #150A0F",
"O  c #070A14",
"+  c #190E15",
"@  c #221118",
"#  c #0F1423",
"$  c #141829",
"%  c #000B3B",
"&  c #351B25",
"*  c #381B26",
"=  c #362339",
"-  c #232037",
";  c #64030D",
":  c #670913",
">  c #690712",
",  c #750A16",
"<  c #482633",
"1  c #43222F",
"2  c #000E46",
"3  c #04155A",
"4  c #1E2949",
"5  c #222A4A",
"6  c #26345B",
"7  c #001361",
"8  c #10246F",
"9  c #2D3C68",
"0  c #68374C",
"q  c #703755",
"w  c #36487A",
"e  c #87041C",
"r  c #9C0D17",
"t  c #B10E15",
"y  c #BD1118",
"u  c #870121",
"i  c #8D0122",
"p  c #8F0D2C",
"a  c #930024",
"s  c #9A0026",
"d  c #9E022A",
"f  c #950A2C",
"g  c #941334",
"h  c #9C1235",
"j  c #9D1D3F",
"k  c #8B1A32",
"l  c #A40029",
"z  c #AC002C",
"x  c #A00027",
"c  c #B3002E",
"v  c #B9012F",
"b  c #A90C34",
"n  c #B70030",
"m  c #BC0031",
"M  c #B20B36",
"N  c #A5153A",
"B  c #B7113C",
"V  c #C6111A",
"C  c #D91722",
"Z  c #C30033",
"A  c #CB0036",
"S  c #CF0038",
"D  c #D40039",
"F  c #DC003B",
"G  c #D00037",
"H  c #E71B26",
"J  c #F31C29",
"K  c #E4003E",
"L  c #E8003F",
"P  c #A21F43",
"I  c #B81B43",
"U  c #A32848",
"Y  c #B53558",
"T  c #AF3051",
"R  c #B53D64",
"E  c #AE3B62",
"W  c #C31945",
"Q  c #EA0040",
"!  c #DF3D54",
"~  c #994B72",
"^  c #945372",
"/  c #BA456D",
"(  c #B7416A",
")  c #BE4C74",
"_  c #A5597D",
"`  c #BF5076",
"'  c #BF517A",
"]  c #C14D76",
"[  c #C24E78",
"{  c #C05077",
"}  c #C3557D",
"|  c #C8567C",
" . c #C7587F",
".. c #C9597E",
"X. c #E64F6C",
"o. c #001B8D",
"O. c #001C90",
"+. c #0A2796",
"@. c #142F92",
"#. c #0A2BAA",
"$. c #0929A5",
"%. c #3B4D82",
"&. c #485A92",
"*. c #43558B",
"=. c #51629A",
"-. c #5568A4",
";. c #6B7BB5",
":. c #1B3FC0",
">. c #1C40C4",
",. c #294ED3",
"<. c #294DCF",
"1. c #B55D89",
"2. c #B76E8D",
"3. c #CC5C82",
"4. c #D15E85",
"5. c #D75F89",
"6. c #FF4E92",
"7. c #FF5295",
"8. c #FF539C",
"9. c #FF5A9C",
"0. c #D36186",
"q. c #D5628A",
"w. c #DA668D",
"e. c #DD698D",
"r. c #DC6790",
"t. c #DE6991",
"y. c #D07C9F",
"u. c #E16B8F",
"i. c #E36C94",
"p. c #E76E98",
"a. c #EA6E9B",
"s. c #FB659A",
"d. c #E67193",
"f. c #E97196",
"g. c #EC729B",
"h. c #F1769E",
"j. c #F3789E",
"k. c #FF56A2",
"l. c #FF5CA3",
"z. c #FF5FAA",
"x. c #D378A7",
"c. c #FF64A5",
"v. c #FF65AA",
"b. c #FF69A6",
"n. c #EF74A0",
"m. c #F276A1",
"M. c #FD76A6",
"N. c #F679A3",
"B. c #FA7CA6",
"V. c #FC7EAA",
"C. c #FF72A9",
"Z. c #FF79B5",
"A. c #DB83A8",
"S. c #FF82AD",
"D. c #FB80A6",
"F. c #FF85B3",
"G. c #FF89B5",
"H. c #FE84B9",
"J. c #FF8CBB",
"K. c #FF91BE",
"L. c #EF94BE",
"P. c #B1BDEB",
"I. c #FF8DC2",
"U. c #F08EC6",
"Y. c #FF94C3",
"T. c #FF98C7",
"R. c #FF95C9",
"E. c #FF9BCC",
"W. c #FF9DD2",
"Q. c #EA8EC2",
"!. c #FFA2D4",
"~. c #FFA6D9",
"^. c #FFA9DD",
"/. c #FFADE2",
"(. c #FDA8E4",
"). c #FFB1E6",
"_. c #FFB4EB",
"`. c #FFB8EF",
"'. c #FFB5F1",
"]. c #FFBBF4",
"[. c #FFBFF8",
"{. c #C6CEF1",
"}. c #D5DBF8",
"|. c #CAD2F4",
" X c #FFC1FB",
".X c #DFE3FB",
"XX c #F2F4FD",
"oX c #FEFEFF",
"OX c None",
/* pixels */
"OXOXOXOXOXOXOXS.S.S.OXOXOXOXOXOXOXOXOXOXOXOXOXOXOXOXK.K.T.T.T.K.T.K.K.OXOXOXOXOXOXOXOXOXOXOXOXOXOXOXOXOXOXOXOXOXOXOXOXOXOXOXOXOX",
"OXOXOXOXD.F.K.K.K.K.J.F.OXOXOXOXOXOXOXOXOXOXK.Y.E.!.!.~.!.!.!.!.!.E.E.E.T.K.OXOXOXOXOXOXOXOXOXOXOXOXOXOXOXOXOXOXOXOXOXOXOXOXOXOX",
"OXOXOXB.F.K.T.R.E.T.T.Y.G.OXOXOXOXOXOXJ.Y.E.!.!.~.^.^./.^./.^.^.^.^.!.!.!.E.E.K.G.OXOXOXOXOXOXOXOXOXOXOXOXOXOXOXOXOXOXOXOXOXOXOX",
"OXOXN.S.J.Y.T.E.E.!.E.T.Y.G.OXOXOXOXK.T.E.~.^.^./.).).)._._._.^.).)./.^.~.~.!.E.T.K.G.OXOXOXOXOXOXOXOXOXOXOXOXOXOXOXOXOXOXOXOXOX",
"OXd.B.F.K.Y.E.E.W.W.W.W.Y.I.V.OXJ.Y.E.!.^././.).).`.)._. X)._. X).).).)./.^.^.!.E.T.T.G.OXOXOXOXOXOXOXOXOXOXOXOXOXOXOXOXOXOXOXOX",
"OXg.S.G.K.T.E.E.W.W.W.W.R.I.F.J.E.E.~.^./.)._._._. X X). X X_. X X X).)._./.^.^.!.!.T.K.K.G.OXOXOXOXOXOXOXOXOXOXOXOXOXOXOXOXOXOX",
"OXh.S.G.K.T.E.W.W.W.W.W.R.F.J.E.!.!.^.).)._._.]. X_. X X X_. X_. X). X).).^.).^.^.!.!.T.K.K.D.OXOXOXOXOXOXOXOXOXOXOXOXOXOXOXOXOX",
"0.g.D.G.K.Y.E.E.W.W.W.W.F.J.T.E.!.^./.)._._.].]. X X X X X X X X X X X). X X).^.^.!.!.E.T.K.G.D.OXOXOXOXOXOXOXOXOXOXOXOXOXOXOXOX",
"0.f.S.F.J.Y.R.W.W.W.W.F.G.Y.E.!.~./.)._._.].].[.]. X X X X X X X X X`.).'._.).)./.^.!.!.E.T.K.G.D.OXOXOXOXOXOXOXOXOXOXOXOXOXOXOX",
"0.f.N.F.J.I.R.R.W.W.H.G.Y.T.W.~././.)._.`.].'.~ + ~  X X X X X X X`. .+ q )._.)./.^.~.!.E.T.K.K.F.D.OXOXOXOXOXOXOXOXOXOXOXOXOXOX",
"3.i.N.S.G.I.R.R.W.I.Z.J.T.E.!.~.^./._._.`.].x.*.|.%.Q. X X X X X XW.6 |.-._ _.).).^.~.!.!.T.T.K.G.D.j.OXOXOXOXOXOXOXOXOXOXOXOXOX",
"OXe.m.V.G.I.R.R.R.Z.F.K.T.W.!.^./.)._._.]._.= XXoX}.0  X X X X X X^ P.oXoX5 /.).)./.~.~.!.T.T.K.J.S.D.OXOXOXOXOXOXOXOXOXOXOXOXOX",
"OXw.f.V.F.G.I.I.N.S.K.K.T.W.~.^././._.].].(.w oXoXXX- [. X X X X].= XXoXoX=.Q.).).^.^.~.!.E.T.T.K.S.D.j.OXOXOXOXOXOXOXOXOXOXOXOX",
"OX3.p.N.V.H.J.H.D.S.K.T.E.!.!.^./.).)._.].x.&.oXoXoX$ ]. X X[.].`.# XXoXoX;.1.).).^.~.~.!.E.T.K.K.G.D.D.d.OXOXOXOXOXOXOXOXOXOXOX",
"OX .e.g.V.H.G.g.D.J.K.T.E.W.~.^./.).)._._._ 9 oXoX.XO '. X X].]._.. {.oXoX*.0 /./.^.~.!.!.E.T.K.K.G.D.D.d.OXOXOXOXOXOXOXOXOXOXOX",
"OXOXq.a.N.V.V.j.S.J.K.T.E.!.!.^.(.).).)._.0 O {.oX-.  (.].[.].]._.  %.oX.X# & /./.~.~.~.!.T.T.T.K.G.S.D.D.d.OXOXOXOXOXOXOXOXOXOX",
"OXOX..e.g.M.p.N.S.J.K.T.E.W.!.~././.).)._.<   # 5 .   (.].].].].).    4 $   @ /.^.~.~.!.E.E.T.Y.K.G.S.D.j.d.OXOXOXOXOXOXOXOXOXOX",
"OXOX} 4.i.n.g.B.S.J.K.T.E.E.!.~.^.^././.).&           (.].].`.]._.          o /.^.~.~.!.!.T.T.Y.K.G.G.D.j.d.OXOXOXOXOXOXOXOXOXOX",
"OXOXOX} q.i.g.V.F.G.J.Y.E.E.!.~.^.^./.(.).* .         )._.`._._.).          o ^.^.~.!.E.E.E.T.K.K.K.S.D.j.g.e.OXOXOXOXOXOXOXOXOX",
"OXOXOXOX} e.h.B.F.G.K.Y.E.E.E.!.!.^.^././.1 7 2 % 3 . )._._._._.).. 3 % 2 7 + ^.~.!.!.E.E.T.Y.K.G.G.S.D.j.h.u.OXOXOXOXOXOXOXOXOX",
"OXOXOXOX{ u.g.V.F.G.J.Y.T.R.W.!.!.!.~.(./.0 o.o.O.O.. ).)._.)./.).o o.o.o.o.& ~.~.!.E.E.R.T.Y.K.G.G.S.D.j.g.u.OXOXOXOXOXOXOXOXOX",
"OXOXOXOXOXi.g.B.S.F.J.K.Y.Y.R.R.W.!.~.^.^._ +.#.#.#.@ ).(./././.(.< $.#.#.+.0 !.!.E.E.E.Y.I.G.J.K.S.D.B.j.g.u.h.S.OXOXOXOXOXOXOX",
"OXOXOXOXOXu.h.B.S.F.G.I.Z.v.z.v.Z.I.W.~.~.L.3 >.>.$.^ /./.(./././.2.@.#.:.8 y.!.W.W.Y.Z.c.l.s.C.D.S.S.B.j.g.u.u.K.S.OXOXOXOXOXOX",
"OXOXOXOXOXi.g.N.V.F.G.V.8.7.8.k.k.z.H.!.!.~.o <.,.O W.^.^.^.^.^.^.~.+ ,.<.. !.W.E.H.l.8.8.8.6.7.j.S.D.B.j.f.u.0.K.K.F.OXOXOXOXOX",
"OXOXOXOX3.t.g.m.D.S.F.M.7.8.8.k.k.k.z.R.!.!.L.o . 2.~.~.~.~.~.~.~.!.y.X X A.E.E.T.v.8.8.8.8.6.6.s.D.M.j.h.d.u.u.T.K.J.S.OXOXOXOX",
"OXOXOXOX..e.d.m.D.S.F.F.9.7.8.8.k.k.z.R.E.W.W.!.!.!.!.!.!.E.E.E.!.!.W.!.W.E.E.E.T.v.8.7.6.6.6.7.M.B.B.j.f.d.u...T.T.K.F.D.OXOXOX",
"OXOXOXOX3.e.p.g.N.B.V.F.V.b.9.8.k.v.H.R.E.E.E.W.W.W.I.Y , : : , U H.E.E.E.R.E.T.Y.H.c.9.7.8.s.C.S.B.j.h.f.d.u...T.Y.K.J.S.j.OXOX",
"OXOXOXOX..q.i.f.m.B.V.S.F.F.H.H.H.I.I.R.R.R.E.E.E.E.k ; : : : : ; > Y.R.R.T.Y.Y.Y.J.G.H.V.V.V.F.B.N.j.h.f.u.u...R.T.Y.J.G.D.d.OX",
"OXOXOXOX..0.t.f.g.N.B.V.F.F.G.J.J.I.Y.Y.Y.Y.R.R.R.T.: , t V y y e ; J.Y.Y.T.Y.J.J.J.J.G.F.S.S.B.B.j.j.a.i.u.0...T.Y.K.J.G.S.g.OX",
"OXOXOXOXOX0.e.i.f.h.N.B.V.F.F.F.J.G.J.I.I.I.Y.Y.Y.Y.I t C J J C V r I.Y.Y.J.J.J.J.G.G.F.S.S.V.N.j.j.h.f.i.e.0.5.Y.Y.K.J.G.S.j.e.",
"OXOXOXOXOX..q.t.p.g.m.B.V.V.F.F.F.F.G.J.J.I.J.Y.I.Y.F.V J J J J H f.Y.J.Y.J.J.G.G.G.F.S.S.S.B.N.h.h.f.i.u.q.4.w.J.I.J.J.F.D.j.e.",
"OXOXOXOXOX..0.e.i.p.g.m.N.B.V.S.F.H.G.G.G.J.J.J.J.J.I.h.C J J H X.J.J.J.G.G.G.H.F.F.S.S.B.B.N.j.g.a.d.u.e.q...i.J.J.J.G.F.D.h.e.",
"OXOXOXOXOX ...e.r.p.p.n.m.N.B.V.V.F.F.F.F.H.F.J.H.J.H.J.F.X.! D.J.J.G.G.H.F.F.F.F.S.V.B.B.N.m.g.g.f.i.e.e.....a.F.H.F.F.V.B.f.w.",
"OXOXOXOXOX ...3.w.t.t.g.n.n.N.B.V.V.V.H.F.F.F.F.G.G.G.G.G.G.H.F.G.G.H.F.F.F.S.S.V.B.B.B.m.g.g.f.f.i.u.w.5.....h.V.F.F.V.B.m.i.0.",
"OXOXOXOXOXOX| ..q.w.t.p.g.g.n.m.N.B.V.V.S.V.V.H.F.S.F.F.S.F.F.F.F.F.F.V.F.V.V.V.B.B.N.m.m.g.f.f.i.u.w.q.4...| a.V.Z.B.M.h.p.w...",
"OXOXOXOXOXOX|  .3.q.r.t.t.p.g.n.m.m.N.N.B.V.V.F.S.S.Z.S.S.S.S.F.V.F.V.V.V.B.B.B.N.N.g.g.g.a.p.i.u.e.0.0...3.[ a.N.m.m.a.i.e.4.OX",
"OXOXOXOXOXOX} }  .3.q.e.t.p.p.g.n.n.m.m.m.N.N.V.N.V.V.V.F.V.V.Z.V.V.B.B.N.N.m.m.m.g.g.a.p.i.i.e.e.q.q.......[ u.a.i.i.i.w.3...OX",
"OXOXOXOXOXOXOX}  . .4.q.q.t.t.p.p.g.g.n.n.n.m.N.N.N.N.N.N.N.m.N.N.N.m.m.m.m.m.m.g.a.a.p.i.i.e.w.q.5.......] [ 4.5.5.5.4...| OXOX",
"OXOXOXOXOXOXOX{ } }  .4.q.q.r.t.i.p.p.a.n.n.n.n.n.n.n.n.n.n.n.n.m.n.n.n.g.g.f.a.p.i.i.i.t.e.w.q.q.4.....| / ) [ [ | { } | OXOXOX",
"OXOXOXOXOXOXOXOX} }  . .3.q.q.e.r.t.t.p.p.p.p.p.n.n.n.n.n.n.n.n.n.n.g.g.a.p.p.p.i.t.t.t.e.q.q.0.........] Y ( / / ] [ OXOXOXOXOX",
"OXOXOXOXOXOXOXOX[ { | } } ..0.0.q.r.t.r.i.i.i.i.a.a.n.n.t.n.n.p.p.a.p.p.i.i.t.t.r.r.r.w.q.q.4.3.......| OXOXOXOXOXOXOXOXOXOXOXOX",
"OXOXOXOXOXOXOXOXe ) } } } ....3.4.5.5.w.r.r.t.t.t.t.r.t.t.r.p.t.t.t.t.r.t.r.r.r.r.q.q.q.4.3.3.......| a i OXOXOXOXOXOXOXOXOXOXOX",
"OXOXOXOXOXOXa i a a [ { } } }  .3.4.4.4.q.q.r.q.r.r.r.r.t.r.r.r.r.r.r.w.r.q.r.q.q.q.4.3.3...3.| ..| P e i i OXOXOXOXOXOXOXOXOXOX",
"OXOXOXOXOXs a a a e g [ { { }  .1.| 3.3.4.q.4.q.q.q.q.q.r.r.q.q.q.q.q.q.q.q.4.4.3.3.3.3.} 3.| | | Y a a a a a OXOXOXOXOXOXOXOXOX",
"OXOXOXOXz c l a a a e j ` ' } } } } } } 3.3.3.3.3.3.4.4.4.5.5.4.q.q.4.4.4.4.3.3.3.3.} 3.} | 3.} R a a a s x c z OXOXOXOXOXOXOXOX",
"OXOXOXc Z A Z z a a a e j ` ` ' } { } } 1.[ 3.3.3.3.3.3.3.3.3.3.3.3.3.3.3.3.| | 3.} 3.} 3.| | R s s s s z m A Z m OXOXOXOXOXOXOX",
"OXOXOXZ A D D A z a a a i g ` ' ' ' } } } } ' 1.}  .} } 3.3.3.} 3.} } } 3.' 3.| } } 3.} } | T s s s s c A F F D A c OXOXOXOXOXOX",
"OXOXv Z D F F F S z a a e i i / ' } } [ } } [ [ } } } } [ 1.} | 1.} 3.} ' 3.1.| 3.} } } { N s s s s c G K K K F S m OXOXOXOXOXOX",
"OXz Z A D F F K F A z r i i i e U { } } } ' ' 1.[ } } } ' 3.' } 3.[ 1.3.3.3.[ 1.| } } ( s a s s x c G K Q L K F D Z c OXOXOXOXOX",
"OXc Z A D F F K K F A z s i i a u i E ' } ' ' 3.} } } } 3.} 1.[ 1.3.[ ) ' [ 3.3.} ) h s s s d d z A K L Q Q L K D S v OXOXOXOXOX",
"OXc Z A D F F K F F F Z z a a a i i i a E ' ' ' 1.' 3.' } } 3.' [ [ 3.3.3.' 3./ h s s a s s d z A K L L L L K F F A Z z OXOXOXOX",
"l v Z A G D F F F F F G m x a a a i i e e u g E ] ' 3.' } [ 1.3.3.3.1.3.R j i a a a s s s s l Z D L L L K K K F D A m z OXOXOXOX",
"l c Z Z G D D D F F D D A c x a a a e i i e u u e u g OXOX3.' OXOXOXu u i i a a s s s s s x n S K K K K K K F F G A m z OXOXOXOX",
"l c Z Z A G D D D D D D A Z c s a e a i i u u u u u OXOXOXOXOXOXOXOXOXu i i a a a a a s d n Z F F F F F F F F D A A v z OXOXOXOX",
"f I M m Z A A A A G A A A Z c l a a i i i i i i OXOXOXOXOXOXOXOXOXOXOXOXu i i a a a s s l m S D D D D D D D D D A Z c l OXOXOXOX",
"p N B I W W Z A A A A Z Z Z v z s a a i i i i OXOXOXOXOXOXOXOXOXOXOXOXOXOXOXi i i a a s c m Z W S S D S D S A Z Z m c d OXOXOXOX",
"OXh N I I I m m m Z m m m n c l d a i i i OXOXOXOXOXOXOXOXOXOXOXOXOXOXOXOXOXOXi i i a d z n m m Z Z S W A A Z m v c l f OXOXOXOX",
"OXk f d b M n n v c n n c z l d a i i OXOXOXOXOXOXOXOXOXOXOXOXOXOXOXOXOXOXOXOXOXOXOXi i d l z n n m m m m m m n c x a OXOXOXOXOX",
"OXOXOXg h N z z z l l x d a i i OXOXOXOXOXOXOXOXOXOXOXOXOXOXOXOXOXOXOXOXOXOXOXOXOXOXOXOXu i a d x z z z z z z x a a OXOXOXOXOXOX",
"OXOXOXOXOXi i i i a i i OXOXOXOXOXOXOXOXOXOXOXOXOXOXOXOXOXOXOXOXOXOXOXOXOXOXOXOXOXOXOXOXOXOXOXOXi i i a i i a i OXOXOXOXOXOXOXOX"
};
