/* XPM */
static char *result[] = {
/* columns rows colors chars-per-pixel */
"64 65 144 2 ",
"   c #010101",
".  c #090807",
"X  c #070708",
"o  c #070809",
"O  c #0B0B0B",
"+  c #100E0D",
"@  c #13100F",
"#  c #0F1010",
"$  c #141414",
"%  c #191613",
"&  c #1B1917",
"*  c #161718",
"=  c #17191A",
"-  c #1C1C1C",
";  c #221E1B",
":  c #1C1E20",
">  c #1F2123",
",  c #242323",
"<  c #282420",
"1  c #2E2925",
"2  c #24262A",
"3  c #26292D",
"4  c #2B2B2B",
"5  c #302B27",
"6  c #322E2A",
"7  c #36312D",
"8  c #3B342E",
"9  c #2E3135",
"0  c #323232",
"q  c #3A3531",
"w  c #3D3934",
"e  c #35393E",
"r  c #3B3C3C",
"t  c #423C36",
"y  c #443E39",
"u  c #46403B",
"i  c #4C4138",
"p  c #3A3D41",
"a  c #3C4046",
"s  c #3F4349",
"d  c #454545",
"f  c #4C4741",
"g  c #4E4843",
"h  c #41474D",
"j  c #44494F",
"k  c #4B4B4B",
"l  c #514B44",
"z  c #584F47",
"x  c #504F4F",
"c  c #56504A",
"v  c #5C544C",
"b  c #464B52",
"n  c #494F56",
"m  c #4E545B",
"M  c #545453",
"N  c #52585F",
"B  c #5B5B5B",
"V  c #65564B",
"C  c #645D56",
"Z  c #6D5E51",
"A  c #6E645B",
"S  c #766557",
"D  c #786759",
"F  c #75695E",
"G  c #7D6B5D",
"H  c #575D64",
"J  c #595E65",
"K  c #5A6065",
"L  c #5E636A",
"P  c #636262",
"I  c #61676D",
"U  c #6C6C6C",
"Y  c #756D64",
"T  c #7A6E64",
"R  c #706F6F",
"E  c #7B7167",
"W  c #7B7269",
"Q  c #666C72",
"!  c #686E74",
"~  c #6A7076",
"^  c #6D7279",
"/  c #747474",
"(  c #71777D",
")  c #73797E",
"_  c #7B7B7B",
"`  c #806E5F",
"'  c #837365",
"]  c #85776A",
"[  c #8A7A6C",
"{  c #857B71",
"}  c #8E7E71",
"|  c #807F7F",
" . c #907F71",
".. c #8E8074",
"X. c #8E8479",
"o. c #938375",
"O. c #958678",
"+. c #97887A",
"@. c #9A8B7D",
"#. c #777D83",
"$. c #858484",
"%. c #888787",
"&. c #8B8A8A",
"*. c #978B80",
"=. c #9C8E81",
"-. c #9E9184",
";. c #90908F",
":. c #949393",
">. c #9B9B9B",
",. c #A29486",
"<. c #A39689",
"1. c #A6998C",
"2. c #A99B8E",
"3. c #AC9F92",
"4. c #A1A09F",
"5. c #B0A295",
"6. c #A3A3A2",
"7. c #A8A7A6",
"8. c #ABAAAA",
"9. c #B4B4B4",
"0. c #BDBDBC",
"q. c #C3B4A6",
"w. c #C2C0BF",
"e. c #D4C4B4",
"r. c #D9C8B8",
"t. c #C5C5C5",
"y. c #CAC8C7",
"u. c #CCCCCC",
"i. c #D1CFCE",
"p. c #D2D0CF",
"a. c #D3D3D3",
"s. c #D8D7D6",
"d. c #DCDBDA",
"f. c #E1DFDE",
"g. c #E2E0DF",
"h. c #E5E4E3",
"j. c #E8E6E5",
"k. c #EAE8E7",
"l. c #ECEBEB",
"z. c #F1F0EF",
"x. c #F5F4F4",
"c. c #F8F7F7",
"v. c #FFFFFF",
"b. c None",
/* pixels */
"b.b.b.b.b.b.b.b.b.b.b.b.b.b.b.b.b.b.b.b.b.b.b.        b.b.b.b.b.b.b.b.b.b.b.b.b.b.b.b.b.b.b.b.b.b.b.b.b.b.b.b.b.b.b.b.b.b.b.b.b.",
"b.b.b.b.b.b.b.b.b.b.b.b.b.b.    0 -   b.b.  O h.v.v.a.  b.b.b.b.b.b.b.b.b.b.b.b.b.b.b.b.b.b.b.b.b.b.b.b.b.b.b.b.b.b.b.b.b.b.b.b.",
"b.b.b.b.b.b.b.b.b.b.b.b.b.  / v.v.v.6.  0 r X h.v.v.v.a.  b.b.b.b.b.b.b.b.b.b.b.b.b.b.b.b.b.b.b.b.b.b.b.b.b.b.b.b.b.b.b.b.b.b.b.",
"b.b.b.b.b.b.b.b.b.b.b.b.  M v.v.v.h./ v.v.v.v.k v.v.v.8.  b.b.  b.b.b.b.b.b.b.b.b.b.b.b.b.b.b.b.b.b.b.b.b.b.b.b.b.b.b.b.b.b.b.b.",
"b.b.b.b.b.b.b.b.b.b.b.b.  v.v.v.v._ v.v.v.v.v.v.v.d.d 9.:.o , t.7.o b.b.b.b.b.b.b.b.b.b.b.b.b.b.b.b.b.b.b.b.b.b.b.b.b.b.b.b.b.b.",
"b.b.b.b.b.b.b.b.b.b.b.b.  r 0.v.v.v.v.v.v.v.v.v.v.h.v.v.v.v.X v.v.v.> b.b.b.b.b.b.b.b.b.b.b.b.b.b.b.b.b.b.b.b.b.b.b.b.b.b.b.b.b.",
"b.b.b.b.b.b.b.b.      X x.v.v.v.v.v.v.v.v.v.v.v.v.v.v.v.v.v.4 v.v.v.h.      o       b.b.b.b.b.b.b.b.b.b.b.b.b.b.b.b.b.b.b.b.b.b.",
"b.b.b.b.b.b.b.  - a.X c.v.v.v.v.v.v.v.v.v.v.v.v.v.v.v.v.v.v.9.v.v.v.v.  k.v.v.v.c.r   b.    X O       b.b.b.b.b.b.b.b.b.b.b.b.b.",
"b.b.b.b.b.b.  d v.v.= v.v.v.v.v.v.v.v.v.v.v.v.v.v.v.v.v.v.v.v.h.k u.v.  c.v.v.9.$ X X     l.v.v.v.c.P   b.b.b.b.b.b.b.b.b.b.b.b.",
"b.b.b.b.b.b.  v.v.v., v.v.v.v.v.v.v.v.v.v.v.v.v.v.v.v.v.v.v.v.v.v.k U X v.v.> 9.v.v.v.v.d.= >.v.v.v.v.h.  b.b.b.b.b.b.b.b.b.b.b.",
"b.b.b.b.b.b.O v.v.v._ v.v.v.v.v.v.v.v.v.v.v.v.v.v.v.v.v.v.v.v.v.v.v.  a.v.;.v.v.v.v.v.v.v.v./ 8.v.v.v.v.a.  b.b.b.b.b.b.b.b.b.b.",
"b.b.b.b.b.b.o c.v.u.v.v.v.v.v.v.v.v.v.v.v.v.v.v.v.v.v.v.v.v.v.v.v.v.* * v.v.v.v.v.v.v.v.v.v.v.B v.v.v.v.v.O b.b.b.b.b.b.b.b.b.b.",
"b.b.b.b.b.b.  d.a.9.v.v.v.v.v.v.v.v.v.v.v.v.v.v.v.v.v.v.v.v.v.v.v.v.$ B - v.v.v.v.v.v.v.v.v.v.v.c.v.v.a.t.0   b.b.b.b.b.b.b.b.b.",
"b.b.b.b.b.b.  o , v.v.v.v.v.v.v.v.v.v.v.v.v.v.v.v.v.v.v.v.v.v.v.v.x.O v.  l.v.v.v.v.v.v.v.v.v.v.v.v.t.k.a.$   q d O   b.b.b.b.b.",
"b.b.b.b.b.b.b.    x.v.v.v.v.v.v.v.v.v.v.v.v.v.v.v.v.v.v.v.v.v.v.c.O h.v.- 6.v.v.v.v.v.v.v.v.v.v.v.v.v.v.v.v.O v.v.v.h.  b.b.b.b.",
"b.b.b.b.b.b.b.b.  - v.v.v.v.v.v.v.v.v.v.v.v.v.v.v.v.v.v.v.v.v.B d x.v.v.q $.v.v.v.v.v.v.0.r - B x.v.v.v.v.v.u.u.v.v.v.c.  b.b.b.",
"b.b.b.b.b.b.b.b.X _ * l.v.v.v.v.v.v.v.v.v.v.v.v.v.v.v.v.v.v.v.v.c.v.v.v.O 0.v.v.v.v.v.c.v.v.v.c.q 9.v.v.v.v.v.4.v.v.v.v.7.  b.b.",
"b.b.b.b.b.b.    M h.c.y.v.v.v.v.v.v.v.v.v.v.v.v.v.v.v.v.v.v.v.v.- v.v.h.  v.v.v.v.v.v.v.v.v.v.v.v.3 c.v.v.v.v.h.v.v.v.v.v.  b.b.",
"b.b.b.b.    f u d h.c.v.v.v.v.k.c.v.v.v.v.v.v.v.v.v.v.v.v.v.v.v.O j.h.O M v.v.v.v.v.v.v.v.v.v.v.v.x.&.v.v.v.v.v.v.v.v.v.v.X b.b.",
"b.b.  X W 3.3.*.  h.j.z.v.v.v.s.a.v.v.v.v.v.v.v.v.;.v.d.:.c.k.&.      k v.v.v.v.v.v.v.v.v.v.v.v.v.v.r u.l.v.v.v.7.y.v.v.v.  b.b.",
"b.  C 5.5.3.Y y w O d.h.h.h.h.y., v.v.v.v.v.v.v.v., v.v.d., O   X.c & v.v.v.v.v.v.v.v.v.v.v.v.v.v.v.B v.0.B v.v.v.k.r v.v.  b.b.",
"  Y 5.*.y C e.r.v     * x d o   ; _ k.c.v.v.c.k.d s.v.v.x.h.k 7 = 5.@ k v.v.v.v.v.v.v.v.v.v.v.v.v.v.x.v.v.u.t.v.v.v.u./ 6.  b.b.",
"  { 3.3.l f w v {   } V 7 t F @.=.1 ; 0.g.h.0.$ &.j.j.h.h.7.  4 q.v 3.X r v.v.v.v.v.v.v.v.v.v.v.v.v.v.v.v.v.M v.v.v.v.o   b.b.b.",
"b.  q <.5.3.3.3.X Y 1.,.@.,.3.3.3.+.] 1 O o   , a.j.h.d.d   V   r.f <.2.% O c.v.v.v.v.v.v.v.v.v.v.v.v.v.v.v.9.v.v.v.v.B   b.b.b.",
"b.b.      X       3.3.3.3.3.{   { 3.3.<.<.2.o.8         ; } ,.  A r.$ 3.3.g   d.v.v.v.v.v.v.v.v.v.v.v.v.v.v.v.v.v.v.v._ t.  b.b.",
"b.b.b.b.b.b.b.  W 5.3.3.5.3.-   ; 3.3.3.O o 5.@.o.o...o.o.,.3.  Y 5.r.= 3.3.W   k.v.v.v.v.v.v.v.v.v.v.v.v.v.v.v.v.v.v.r v.a.  b.",
"b.b.b.b.b.b.b.  3.3.3.3.3.3.g   g 3.3.2.    2.3.3.2.1.2.3.3.5.  g Y v e.7 5.3.A o v.v.v.v.v.v.v.v.v.v.v.v.v.v.v.v.v.v.* v.v.O   ",
"b.b.b.b.b.b.  w 3.3.3.3.3.3.3.X.3.3.3.3.    3.3.3.3.3.3.5.3.3.$   Y 5.*.X.Y -.5.o d.v.v.v.v.v.v.v.v.v.v.v.v.v.v.v.v.t.l.v.v./   ",
"b.b.b.b.b.b.  @.3.3.3.3.3.3.3.3.3.3.5.3.<.1.3.3.3.3.3.3.3.3.3.< P   5 2.3.5.3.3.. t.v.v.v.v.v.v.v.v.v.v.v.v.v.v.v.v.v.v.v.v.0.  ",
"b.b.b.b.b.b.  3.3.3.3.3.3.3.3.3.3.3.3.3.3.3.3.3.3.3.3.3.3.3.3.7 I v.d     - ,   * v.v.v.v.v.v.v.v.v.v.v.v.v.v.v.v.v.v.v.v.v.u.  ",
"b.b.b.b.b.b.  5.3.3.3.3.3.3.3.3.3.3.3.3.3.3.3.3.5.3.3.3.3.3.3.5 U v.v.v.s.>.>.h.v.v.v.v.v.v.v.v.v.v.v.v.v.v.v.v.v.v.c.v.v.v.>.  ",
"b.b.b.b.b.b.  3.3.3.3.3.3.3.3.3.3.3.3.3.3.3.3.3.3.3.3.3.3.3.3.& &.v.v.v.v.v.v.v.v.v.v.v.v.v.v.v.v.v.v.v.v.v.v.v.v.v.v.P v.v.4   ",
"b.b.b.b.b.b.  2.3.3.3.3.3.3.3.3.3.3.3.3.3.3.3.3.3.3.3.3.3.3.3.. t.v.v.v.v.v.v.v.v.v.v.v.v.v.v.v.v.v.v.v.v.v.v.v.v.v.v.%.h.c.  b.",
"b.b.b.b.b.b.  @.3.3.3.3.3.3.3.3.3.3.3.3.3.3.3.3.3.5.3.3.3.3.@.  x.v.v.v.v.v.v.v.v.v.v.v.v.v.v.v.v.v.v.v.v.v.v.v.v.v.v.c.k =   b.",
"b.b.b.b.b.b.  ' 3.3.3.3.3.3.3.3.3.3.3.3.3.3.3.3.3.3.3.3.3.3.]   v.v.v.v.v.v.v.v.v.v.v.v.v.v.v.v.v.v.v.v.v.v.v.v.v.v.v.v.    b.b.",
"b.b.b.b.b.b.  ; -.3.3.3.3.3.3.3.3.3.3.3.3.3.3.3.3.3.3.3.3.+.< k v.v.v.v.v.v.v.v.v.v.v.v.v.v.v.v.v.v.v.v.v.v.v.v.v.v.v.v.  b.b.b.",
"b.b.b.b.b.b.b.  } 3.5.3.3.3.3.3.3.3.3.3.3.3.3.3.3.3.3.3.,.}   x.v.v.v.v.v.v.v.v.v.v.v.v.v.v.v.v.v.v.v.v.v.v.v.v.v.v.v.9.b.b.b.b.",
"b.b.b.b.b.b.b.  + o.3.3.5.5 3.3.5.3.3.3.3.3.3.3.3.3.3.,.o.O M v.v.v.v.v.v.v.v.v.v.v.v.v.v.v.v.v.v.v.v.v.v.v.v.v.v.v.v.  b.b.b.b.",
"b.b.b.b.b.b.b.b.  t o.3.5.-.= <.3.3.X., 3.3.3.3.3.3.=.o.< $ v.v.v.v.v.v.v.v.v.v.v.v.v.v.v.v.v.v.v.v.v.v.v.v.v.v.v.c.$   b.b.b.b.",
"b.b.b.b.b.b.b.b.b.  l o.2.3.1.&   % E 3.3.3.3.3.2.o.o.% $ v.v.v.v.v.v.v.v.v.v.v.v.v.v.v.v.v.v.v.v.v.v.v.v.v.c.t.d - y.  b.b.b.b.",
"b.b.b.b.b.b.b.b.b.b.  7 o.@.3.t *.5.3.3.3.3.1.+.o.A   r v.v.v.v.v.v.v.v.v.v.v.v.v.v.v.v.v.v.v.v.v.v.v.v.v.v.v.x.v.h.7.  b.b.b.b.",
"b.b.b.b.b.b.b.b.b.b.b.  . T o.t E @.=.+.o.o.o.T o   0.v.v.v.v.v.v.v.v.v.v.v.v.v.v.v.v.v.v.v.v.v.v.v.v.c.k.v.v.v.h.h.=   b.b.b.b.",
"b.b.b.b.b.b.b.b.b.b.b.b.b.    1 7 o.o.} T q     &.v.v.v.v.v.v.v.v.v.v.v.v.v.v.v.v.v.v.v.v.v.v.v.v.v.v.3.k.v.z.j.h.9.  b.b.b.b.b.",
"b.b.b.b.b.b.b.b.b.b.b.b.b.b.              g w.l.v.v.v.v.v.v.v.v.v.v.v.v.v.v.v.v.v.v.v.v.v.v.v.v.v.v.h.X h.h.j.j.i.  b.b.b.b.b.b.",
"b.b.b.b.b.b.b.b.b.b.b.b.b.b.b.  r h.h.h.9.M j.j.c.v.v.v.v.v.0.v.v.v.v.v.v.v.v.v.v.v.>.v.U k.v.c.h.8.  a.h.h.h.#.  b.b.b.b.b.b.b.",
"b.b.b.b.b.b.b.b.b.b.b.b.b.b.b.b.    B 9.9.- > 7.w.%.r v.v.v.v.w v.v.v.v.v.v.v.v.v.U c.v.v.>.+ X       , 6 $     b.b.b.b.b.b.b.b.",
"b.b.b.b.b.b.b.b.b.b.b.b.b.b.b.b.b.b.          4 $.u.v.v.v.v.v.d.= d.c.v.v.v.c.z./ _ v.v.v.z.h.h.  D Z i t   b.b.b.b.b.b.b.b.b.b.",
"b.b.b.b.b.b.b.b.b.b.b.b.b.b.b.b.b.b.b.b.b.b.b.  h.h.h.h.c.v.v.c.d.O @ B %.%.g   $.l.c.z.h.h.h.B   ` o.[ [   b.b.b.b.b.b.b.b.b.b.",
"b.b.b.b.b.b.b.b.b.b.b.b.b.b.b.b.b.b.b.b.b.b.b.  o g.h.h.h.h.j.h.h.h.3.  ; $   t.h.h.h.j.j.h.B     [ o.o.o.  b.b.b.b.b.b.b.b.b.b.",
"b.b.b.b.b.b.b.b.b.b.b.b.b.b.b.b.b.b.b.b.b.b.b.b.    P f.h.h.h.h.u.9   V ' G     O C :.$.r     b.  A o.o.o.  b.b.b.b.b.b.b.b.b.b.",
"b.b.b.b.b.b.b.b.b.b.b.b.b.b.b.b.b.b.b.b.b.b.b.b.b.b.      X         .  .o.o.  b.b.    % 8 S O b.  y o.o.o.  b.b.b.b.b.b.b.b.b.b.",
"b.b.b.b.b.b.b.b.b.b.b.b.b.b.b.b.b.b.b.b.b.b.b.b.b.b.b.b.  } o.o.  b.O o.o.o.  b.b.b.  G '  .% b.  1 o.o.o.  b.b.b.b.b.b.b.b.b.b.",
"b.b.b.b.b.b.b.b.b.b.b.b.b.b.b.b.b.b.b.b.b.b.b.b.b.b.      % t }   b.; o.o.o.  b.b.b.  } o.o.5 b.  ; o.o.o.  b.b.b.b.b.b.b.b.b.b.",
"b.b.b.b.b.b.b.b.b.b.b.b.b.b.b.b.b.b.b.b.b.b.b.b.  * ^ ( ~ ) Q $     z o.o.+.% b.b.b.  ..} ..v     ; o.o.o.  b.b.b.b.b.b.b.b.b.b.",
"b.b.b.b.b.b.b.b.b.b.b.b.b.b.b.b.b.b.b.b.b.b.b.  p L n n n n n I o X * = o 5 y b.b.b.  : 9 2       5 u % O     b.b.b.b.b.b.b.b.b.",
"b.b.b.b.b.b.b.b.b.b.b.b.b.b.b.b.b.b.b.b.b.b.b.O m n n n n n 2 - #.Q J J ! #.*   b.O n n n n m s   * ) ) Q I ^ r   b.b.b.b.b.b.b.",
"b.b.b.b.b.b.b.b.b.b.b.b.b.b.b.b.b.b.b.b.b.b.  n n n n n n : p H n n n n n n ^ $   m n n n n n 2 9 ! n n n n n n ~   b.b.b.b.b.b.",
"b.b.b.b.b.b.b.b.b.b.b.b.b.b.b.b.b.b.b.b.b.b.  n n $ n n s O H n n n n n n n n ^ X n n n n n b X I n n n n n n n n L   b.b.b.b.b.",
"b.b.b.b.b.b.b.b.b.b.b.b.b.b.b.b.b.b.b.b.b.b.O n =   b n o K n n n n n n n n n n * b n n n n # H n n n n n n n n n n $ b.b.b.b.b.",
"b.b.b.b.b.b.b.b.b.b.b.b.b.b.b.b.b.b.b.b.b.b.  9     p n   n n n n n n n n n n n s 2 n n n n   m n n n n n n n n n n j   b.b.b.b.",
"b.b.b.b.b.b.b.b.b.b.b.b.b.b.b.b.b.b.b.b.b.b.b.  b.  3 s $ m n n n $ h n n n n n b O n n n b O n n n n n n 3 h n n n n   b.b.b.b.",
"b.b.b.b.b.b.b.b.b.b.b.b.b.b.b.b.b.b.b.b.b.b.b.b.b.b.    3 n n n s   2 n n n n n n   n n n p : m n n n n n X o n n n n   b.b.b.b.",
"b.b.b.b.b.b.b.b.b.b.b.b.b.b.b.b.b.b.b.b.b.b.b.b.b.b.b.  * n n n o   X n n n n n n           3 n n n n n n     s n n n   b.b.b.b.",
"b.b.b.b.b.b.b.b.b.b.b.b.b.b.b.b.b.b.b.b.b.b.b.b.b.b.b.b.b.    $   b.  b b b s 2 X   b.b.b.b.  9 b n n n h     o p *     b.b.b.b.",
"b.b.b.b.b.b.b.b.b.b.b.b.b.b.b.b.b.b.b.b.b.b.b.b.b.b.b.b.b.b.b.b.b.b.          b.b.b.b.b.b.b.b.              b.  b.b.b.b.b.b.b.b."
};
